<svg width="65" height="282" viewBox="0 0 65 282" fill="none" xmlns="http://www.w3.org/2000/svg">
<path d="M54.1581 242.831L54.1581 263.791L64.0781 267.151L64.0781 281.471L7.91812 261.151L7.91812 245.311L64.0781 224.991L64.0781 239.471L54.1581 242.831ZM43.5981 246.351L23.0381 253.311L43.5981 260.191L43.5981 246.351ZM41.6781 219.926C37.0915 219.926 33.0648 219.073 29.5981 217.366C26.1315 215.606 23.4648 213.233 21.5981 210.246C19.7315 207.26 18.7981 203.926 18.7981 200.246C18.7981 197.313 19.4115 194.646 20.6381 192.246C21.8648 189.793 23.5181 187.873 25.5981 186.486L4.87812 186.486L4.87812 172.806L64.0781 172.806L64.0781 186.486L57.6781 186.486C59.8115 187.766 61.5181 189.606 62.7981 192.006C64.0781 194.353 64.7181 197.1 64.7181 200.246C64.7181 203.926 63.7848 207.26 61.9181 210.246C59.9981 213.233 57.3048 215.606 53.8381 217.366C50.3181 219.073 46.2648 219.926 41.6781 219.926ZM41.7581 186.486C38.3448 186.486 35.6515 187.446 33.6781 189.366C31.7048 191.233 30.7181 193.526 30.7181 196.246C30.7181 198.966 31.7048 201.286 33.6781 203.206C35.5981 205.073 38.2648 206.006 41.6781 206.006C45.0915 206.006 47.8115 205.073 49.8381 203.206C51.8115 201.286 52.7981 198.966 52.7981 196.246C52.7981 193.526 51.8115 191.233 49.8381 189.366C47.8648 187.446 45.1715 186.486 41.7581 186.486ZM26.8781 147.629C24.4248 146.029 22.5048 144.029 21.1181 141.629C19.6781 139.229 18.9581 136.563 18.9581 133.629L33.4381 133.629L33.4381 137.389C33.4381 140.803 34.1848 143.363 35.6781 145.069C37.1181 146.776 39.6781 147.629 43.3581 147.629L64.0781 147.629L64.0781 161.309L19.4381 161.309L19.4381 147.629L26.8781 147.629ZM14.7981 118.611C14.7981 121.011 14.1048 122.984 12.7181 124.531C11.2781 126.024 9.51812 126.771 7.43812 126.771C5.30478 126.771 3.54478 126.024 2.15811 124.531C0.718113 122.984 -0.00188686 121.011 -0.00188697 118.611C-0.00188707 116.264 0.718113 114.344 2.15811 112.851C3.54478 111.304 5.30478 110.531 7.43812 110.531C9.51812 110.531 11.2781 111.304 12.7181 112.851C14.1048 114.344 14.7981 116.264 14.7981 118.611ZM19.4381 111.811L64.0781 111.811L64.0781 125.491L19.4381 125.491L19.4381 111.811ZM41.6781 103.017C37.0914 103.017 33.0648 102.164 29.5981 100.457C26.1314 98.6969 23.4648 96.3236 21.5981 93.3369C19.7314 90.3503 18.7981 87.0169 18.7981 83.3369C18.7981 80.1903 19.4381 77.4436 20.7181 75.0969C21.9981 72.6969 23.6781 70.8569 25.7581 69.5769L19.4381 69.5769L19.4381 55.8969L64.0781 55.8969L64.0781 69.5769L57.7581 69.5769C59.8381 70.9103 61.5181 72.7769 62.7981 75.1769C64.0781 77.5236 64.7181 80.2703 64.7181 83.4169C64.7181 87.0436 63.7848 90.3503 61.9181 93.3369C59.9981 96.3236 57.3048 98.6969 53.8381 100.457C50.3181 102.164 46.2648 103.017 41.6781 103.017ZM41.7581 69.5769C38.3448 69.5769 35.6514 70.5369 33.6781 72.4569C31.7048 74.3236 30.7181 76.6169 30.7181 79.3369C30.7181 82.0569 31.7048 84.3769 33.6781 86.2969C35.5981 88.1636 38.2648 89.0969 41.6781 89.0969C45.0914 89.0969 47.8114 88.1636 49.8381 86.2969C51.8114 84.3769 52.7981 82.0569 52.7981 79.3369C52.7981 76.6169 51.8114 74.3236 49.8381 72.4569C47.8648 70.5369 45.1714 69.5769 41.7581 69.5769ZM18.9581 17.2C18.9581 11.9734 20.6648 7.81338 24.0781 4.72004C27.4381 1.57338 32.0781 4.16914e-05 37.9981 4.14327e-05L64.0781 4.02927e-05L64.0781 13.6L39.8381 13.6C36.8514 13.6 34.5314 14.3734 32.8781 15.92C31.2248 17.4667 30.3981 19.5467 30.3981 22.16C30.3981 24.7734 31.2248 26.8534 32.8781 28.4C34.5314 29.9467 36.8514 30.72 39.8381 30.72L64.0781 30.72L64.0781 44.4L19.4381 44.4L19.4381 30.72L25.3581 30.72C23.3848 29.3334 21.8381 27.4667 20.7181 25.12C19.5448 22.7734 18.9581 20.1334 18.9581 17.2Z" fill="black"/>
</svg>
