<svg width="65" height="202" viewBox="0 0 65 202" fill="none" xmlns="http://www.w3.org/2000/svg">
<path d="M7.92007 162.944L46.1601 162.944C52.0801 162.944 56.6401 164.624 59.8401 167.984C63.0401 171.291 64.6401 175.771 64.6401 181.424C64.6401 187.344 62.9601 192.091 59.6001 195.664C56.2401 199.237 51.4667 201.024 45.2801 201.024L45.2801 187.424C47.6267 187.424 49.4134 186.944 50.6401 185.984C51.8134 185.024 52.4001 183.637 52.4001 181.824C52.4001 180.171 51.8667 178.891 50.8001 177.984C49.7334 177.077 48.1867 176.624 46.1601 176.624L7.92007 176.624L7.92007 162.944ZM19.4401 106.214L64.0801 106.214L64.0801 119.894L58.0001 119.894C59.9734 121.281 61.5734 123.174 62.8001 125.574C63.9734 127.921 64.5601 130.534 64.5601 133.414C64.5601 136.827 63.8134 139.841 62.3201 142.454C60.7734 145.067 58.5601 147.094 55.6801 148.534C52.8001 149.974 49.4134 150.694 45.5201 150.694L19.4401 150.694L19.4401 137.094L43.6801 137.094C46.6667 137.094 48.9867 136.321 50.6401 134.774C52.2934 133.227 53.1201 131.147 53.1201 128.534C53.1201 125.867 52.2934 123.761 50.6401 122.214C48.9867 120.667 46.6667 119.894 43.6801 119.894L19.4401 119.894L19.4401 106.214ZM4.88007 81.1076L64.0801 81.1076L64.0801 94.7876L4.88007 94.7876L4.88007 81.1076ZM14.8001 62.7138C14.8001 65.1138 14.1067 67.0872 12.7201 68.6338C11.2801 70.1272 9.52007 70.8738 7.44007 70.8738C5.30673 70.8738 3.54673 70.1272 2.16006 68.6338C0.720063 67.0872 6.2245e-05 65.1138 6.21401e-05 62.7138C6.20375e-05 60.3672 0.720062 58.4472 2.16006 56.9538C3.54673 55.4072 5.30673 54.6338 7.44007 54.6338C9.52006 54.6338 11.2801 55.4072 12.7201 56.9538C14.1067 58.4472 14.8001 60.3672 14.8001 62.7138ZM19.4401 55.9138L64.0801 55.9138L64.0801 69.5938L19.4401 69.5938L19.4401 55.9138ZM41.6801 47.1201C37.0934 47.1201 33.0667 46.2668 29.6001 44.5601C26.1334 42.8001 23.4667 40.4268 21.6001 37.4401C19.7334 34.4534 18.8001 31.1201 18.8001 27.4401C18.8001 24.2934 19.4401 21.5468 20.7201 19.2001C22.0001 16.8001 23.6801 14.9601 25.7601 13.6801L19.4401 13.6801L19.4401 0.000103279L64.0801 0.000101328L64.0801 13.6801L57.7601 13.6801C59.8401 15.0134 61.5201 16.8801 62.8001 19.2801C64.0801 21.6268 64.7201 24.3734 64.7201 27.5201C64.7201 31.1468 63.7867 34.4534 61.9201 37.4401C60.0001 40.4268 57.3067 42.8001 53.8401 44.5601C50.3201 46.2668 46.2667 47.1201 41.6801 47.1201ZM41.7601 13.6801C38.3467 13.6801 35.6534 14.6401 33.6801 16.5601C31.7067 18.4268 30.7201 20.7201 30.7201 23.4401C30.7201 26.1601 31.7067 28.4801 33.6801 30.4001C35.6001 32.2668 38.2667 33.2001 41.6801 33.2001C45.0934 33.2001 47.8134 32.2668 49.8401 30.4001C51.8134 28.4801 52.8001 26.1601 52.8001 23.4401C52.8001 20.7201 51.8134 18.4268 49.8401 16.5601C47.8667 14.6401 45.1734 13.6801 41.7601 13.6801Z" fill="black"/>
</svg>
