<svg width="60" height="214" viewBox="0 0 60 214" fill="none" xmlns="http://www.w3.org/2000/svg">
<path d="M59.1992 180.624L34.3992 199.504L59.1992 199.504L59.1992 213.184L3.03922 213.184L3.03922 199.504L27.6792 199.504L3.03922 180.784L3.03921 164.704L30.5592 186.464L59.1992 163.904L59.1992 180.624ZM14.5592 111.723L59.1992 111.723L59.1992 125.403L53.1192 125.403C55.0925 126.79 56.6925 128.683 57.9192 131.083C59.0925 133.43 59.6792 136.043 59.6792 138.923C59.6792 142.336 58.9325 145.35 57.4392 147.963C55.8925 150.576 53.6792 152.603 50.7992 154.043C47.9192 155.483 44.5325 156.203 40.6392 156.203L14.5592 156.203L14.5592 142.603L38.7992 142.603C41.7859 142.603 44.1059 141.83 45.7592 140.283C47.4125 138.736 48.2392 136.656 48.2392 134.043C48.2392 131.376 47.4125 129.27 45.7592 127.723C44.1059 126.176 41.7859 125.403 38.7992 125.403L14.5592 125.403L14.5592 111.723ZM20.8792 86.6169C18.7992 85.3369 17.1192 83.4969 15.8392 81.0969C14.5592 78.6969 13.9192 75.9502 13.9192 72.8569C13.9192 69.1769 14.8525 65.8436 16.7192 62.8569C18.5859 59.8702 21.2525 57.5236 24.7192 55.8169C28.1859 54.0569 32.2125 53.1769 36.7992 53.1769C41.3859 53.1769 45.4392 54.0569 48.9592 55.8169C52.4259 57.5236 55.1192 59.8702 57.0392 62.8569C58.9059 65.8436 59.8392 69.1769 59.8392 72.8569C59.8392 76.0036 59.2259 78.7502 57.9992 81.0969C56.7192 83.4436 55.0392 85.2836 52.9592 86.6169L59.1992 86.6169L59.1992 100.297L-0.000787184 100.297L-0.000787782 86.6169L20.8792 86.6169ZM36.7992 67.0969C33.3859 67.0969 30.7192 68.0569 28.7992 69.9769C26.8259 71.8436 25.8392 74.1636 25.8392 76.9369C25.8392 79.6569 26.8259 81.9769 28.7992 83.8969C30.7725 85.7636 33.4659 86.6969 36.8792 86.6969C40.2925 86.6969 42.9859 85.7636 44.9592 83.8969C46.9325 81.9769 47.9192 79.6569 47.9192 76.9369C47.9192 74.2169 46.9325 71.8969 44.9592 69.9769C42.9325 68.0569 40.2125 67.0969 36.7992 67.0969ZM36.7992 47.12C32.2125 47.12 28.1859 46.2667 24.7192 44.56C21.2525 42.8 18.5859 40.4267 16.7192 37.44C14.8525 34.4533 13.9192 31.12 13.9192 27.44C13.9192 24.2933 14.5592 21.5467 15.8392 19.2C17.1192 16.8 18.7992 14.96 20.8792 13.68L14.5592 13.68L14.5592 1.17264e-05L59.1992 9.77508e-06L59.1992 13.68L52.8792 13.68C54.9592 15.0133 56.6392 16.88 57.9192 19.28C59.1992 21.6267 59.8392 24.3733 59.8392 27.52C59.8392 31.1467 58.9059 34.4533 57.0392 37.44C55.1192 40.4267 52.4259 42.8 48.9592 44.56C45.4392 46.2667 41.3859 47.12 36.7992 47.12ZM36.8792 13.68C33.4659 13.68 30.7725 14.64 28.7992 16.56C26.8259 18.4267 25.8392 20.72 25.8392 23.44C25.8392 26.16 26.8259 28.48 28.7992 30.4C30.7192 32.2667 33.3859 33.2 36.7992 33.2C40.2125 33.2 42.9325 32.2667 44.9592 30.4C46.9325 28.48 47.9192 26.16 47.9192 23.44C47.9192 20.72 46.9325 18.4267 44.9592 16.56C42.9859 14.64 40.2925 13.68 36.8792 13.68Z" fill="black"/>
</svg>
