<svg width="60" height="318" viewBox="0 0 60 318" fill="none" xmlns="http://www.w3.org/2000/svg">
<path d="M59.1992 267.365L59.1992 281.045L24.5592 303.925L59.1992 303.925L59.1992 317.605L3.03922 317.605L3.03922 303.925L37.8392 281.045L3.03922 281.045L3.03921 267.365L59.1992 267.365ZM59.8392 235.529C59.8392 239.902 58.9059 243.849 57.0392 247.369C55.1725 250.835 52.5059 253.582 49.0392 255.609C45.5725 257.582 41.5192 258.569 36.8792 258.569C32.2925 258.569 28.2659 257.555 24.7992 255.529C21.2792 253.502 18.5859 250.729 16.7192 247.209C14.8525 243.689 13.9192 239.742 13.9192 235.369C13.9192 230.995 14.8525 227.049 16.7192 223.529C18.5859 220.009 21.2792 217.235 24.7992 215.209C28.2659 213.182 32.2925 212.169 36.8792 212.169C41.4659 212.169 45.5192 213.209 49.0392 215.289C52.5059 217.315 55.1725 220.115 57.0392 223.689C58.9059 227.209 59.8392 231.155 59.8392 235.529ZM47.9992 235.529C47.9992 232.915 47.0392 230.702 45.1192 228.889C43.1992 227.022 40.4525 226.089 36.8792 226.089C33.3059 226.089 30.5592 226.995 28.6392 228.809C26.7192 230.569 25.7592 232.755 25.7592 235.369C25.7592 238.035 26.7192 240.249 28.6392 242.009C30.5059 243.769 33.2525 244.649 36.8792 244.649C40.4525 244.649 43.1992 243.795 45.1192 242.089C47.0392 240.329 47.9992 238.142 47.9992 235.529ZM21.9992 189.631C19.5459 188.031 17.6259 186.031 16.2392 183.631C14.7992 181.231 14.0792 178.565 14.0792 175.631L28.5592 175.631L28.5592 179.391C28.5592 182.805 29.3059 185.365 30.7992 187.071C32.2392 188.778 34.7992 189.631 38.4792 189.631L59.1992 189.631L59.1992 203.311L14.5592 203.311L14.5592 189.631L21.9992 189.631ZM20.8792 153.812C18.7992 152.532 17.1192 150.692 15.8392 148.292C14.5592 145.892 13.9192 143.146 13.9192 140.052C13.9192 136.372 14.8525 133.039 16.7192 130.052C18.5859 127.066 21.2525 124.719 24.7192 123.012C28.1859 121.252 32.2125 120.372 36.7992 120.372C41.3859 120.372 45.4392 121.252 48.9592 123.012C52.4259 124.719 55.1192 127.066 57.0392 130.052C58.9059 133.039 59.8392 136.372 59.8392 140.052C59.8392 143.199 59.2259 145.946 57.9992 148.292C56.7192 150.639 55.0392 152.479 52.9592 153.812L59.1992 153.812L59.1992 167.492L-0.000788808 167.492L-0.000789406 153.812L20.8792 153.812ZM36.7992 134.292C33.3859 134.292 30.7192 135.252 28.7992 137.172C26.8259 139.039 25.8392 141.359 25.8392 144.132C25.8392 146.852 26.8259 149.172 28.7992 151.092C30.7725 152.959 33.4659 153.892 36.8792 153.892C40.2925 153.892 42.9859 152.959 44.9592 151.092C46.9325 149.172 47.9192 146.852 47.9192 144.132C47.9192 141.412 46.9325 139.092 44.9592 137.172C42.9325 135.252 40.2125 134.292 36.7992 134.292ZM36.1592 69.5156C37.4392 69.5156 38.7725 69.5956 40.1592 69.7556L40.1592 100.716C42.9325 100.502 45.0659 99.6223 46.5592 98.0756C47.9992 96.4756 48.7192 94.5289 48.7192 92.2356C48.7192 88.8223 47.2792 86.4489 44.3992 85.1156L44.3992 70.5556C47.3325 71.3022 49.9725 72.6622 52.3192 74.6356C54.6659 76.5556 56.5059 78.9822 57.8392 81.9156C59.1725 84.8489 59.8392 88.1289 59.8392 91.7556C59.8392 96.1289 58.9059 100.022 57.0392 103.436C55.1725 106.849 52.5059 109.516 49.0392 111.436C45.5725 113.356 41.5192 114.316 36.8792 114.316C32.2392 114.316 28.1859 113.382 24.7192 111.516C21.2525 109.596 18.5859 106.929 16.7192 103.516C14.8525 100.102 13.9192 96.1823 13.9192 91.7556C13.9192 87.4356 14.8259 83.5956 16.6392 80.2356C18.4525 76.8756 21.0392 74.2623 24.3992 72.3956C27.7592 70.4756 31.6792 69.5156 36.1592 69.5156ZM32.5592 83.5156C30.2125 83.5156 28.3459 84.3156 26.9592 85.9156C25.5725 87.5156 24.8792 89.5156 24.8792 91.9156C24.8792 94.2089 25.5459 96.1556 26.8792 97.7556C28.2125 99.3023 30.1059 100.262 32.5592 100.636L32.5592 83.5156ZM21.9992 47.0187C19.5459 45.4187 17.6259 43.4187 16.2392 41.0187C14.7992 38.6187 14.0792 35.952 14.0792 33.0187L28.5592 33.0187L28.5592 36.7787C28.5592 40.192 29.3059 42.752 30.7992 44.4587C32.2392 46.1654 34.7992 47.0187 38.4792 47.0187L59.1992 47.0187L59.1992 60.6987L14.5592 60.6987L14.5592 47.0187L21.9992 47.0187ZM47.5992 -3.83553e-05L59.1992 -3.88623e-05L59.1992 6.95996C59.1992 11.92 57.9992 15.7866 55.5992 18.56C53.1459 21.3333 49.1725 22.72 43.6792 22.72L25.9192 22.72L25.9192 28.16L14.5592 28.16L14.5592 22.72L3.67921 22.72L3.6792 9.03996L14.5592 9.03996L14.5592 0.0799644L25.9192 0.0799639L25.9192 9.03996L43.8392 9.03996C45.1725 9.03996 46.1325 8.71996 46.7192 8.07996C47.3059 7.43996 47.5992 6.3733 47.5992 4.87996L47.5992 -3.83553e-05Z" fill="black"/>
</svg>
