<svg width="65" height="192" viewBox="0 0 65 192" fill="none" xmlns="http://www.w3.org/2000/svg">
<path d="M25.9981 148.233C29.2515 148.233 32.2381 148.98 34.9581 150.473C37.6248 151.966 39.7848 154.26 41.4381 157.353C43.0915 160.446 43.9181 164.286 43.9181 168.873L43.9181 177.353L64.0781 177.353L64.0781 191.033L7.91812 191.033L7.91812 168.873C7.91812 164.393 8.69145 160.606 10.2381 157.513C11.7848 154.42 13.9181 152.1 16.6381 150.553C19.3581 149.006 22.4781 148.233 25.9981 148.233ZM33.0381 169.913C33.0381 167.3 32.4248 165.353 31.1981 164.073C29.9715 162.793 28.2381 162.153 25.9981 162.153C23.7581 162.153 22.0248 162.793 20.7981 164.073C19.5715 165.353 18.9581 167.3 18.9581 169.913L18.9581 177.353L33.0381 177.353L33.0381 169.913ZM14.7981 132.631C14.7981 135.031 14.1048 137.005 12.7181 138.551C11.2781 140.045 9.51812 140.791 7.43812 140.791C5.30479 140.791 3.54479 140.045 2.15812 138.551C0.718118 137.005 -0.00188239 135.031 -0.00188249 132.631C-0.0018826 130.285 0.718118 128.365 2.15812 126.871C3.54479 125.325 5.30479 124.551 7.43812 124.551C9.51812 124.551 11.2781 125.325 12.7181 126.871C14.1048 128.365 14.7981 130.285 14.7981 132.631ZM19.4381 125.831L64.0781 125.831L64.0781 139.511L19.4381 139.511L19.4381 125.831ZM64.7181 93.9975C64.7181 98.3708 63.7848 102.317 61.9181 105.837C60.0515 109.304 57.3848 112.051 53.9181 114.077C50.4515 116.051 46.3981 117.037 41.7581 117.037C37.1715 117.037 33.1448 116.024 29.6781 113.997C26.1581 111.971 23.4648 109.197 21.5981 105.677C19.7315 102.157 18.7981 98.2108 18.7981 93.8375C18.7981 89.4641 19.7315 85.5175 21.5981 81.9975C23.4648 78.4775 26.1581 75.7041 29.6781 73.6775C33.1448 71.6508 37.1715 70.6375 41.7581 70.6375C46.3448 70.6375 50.3981 71.6775 53.9181 73.7575C57.3848 75.7841 60.0515 78.5841 61.9181 82.1575C63.7848 85.6775 64.7181 89.6241 64.7181 93.9975ZM52.8781 93.9975C52.8781 91.3841 51.9181 89.1708 49.9981 87.3575C48.0781 85.4908 45.3315 84.5575 41.7581 84.5575C38.1848 84.5575 35.4381 85.4641 33.5181 87.2775C31.5981 89.0375 30.6381 91.2241 30.6381 93.8375C30.6381 96.5041 31.5981 98.7175 33.5181 100.477C35.3848 102.237 38.1315 103.117 41.7581 103.117C45.3315 103.117 48.0781 102.264 49.9981 100.557C51.9181 98.7975 52.8781 96.6108 52.8781 93.9975ZM52.4781 36.9L64.0781 36.9L64.0781 43.86C64.0781 48.82 62.8781 52.6866 60.4781 55.46C58.0248 58.2333 54.0515 59.62 48.5581 59.62L30.7981 59.62L30.7981 65.06L19.4381 65.06L19.4381 59.62L8.55812 59.62L8.55812 45.94L19.4381 45.94L19.4381 36.98L30.7981 36.98L30.7981 45.94L48.7181 45.94C50.0515 45.94 51.0115 45.62 51.5981 44.98C52.1848 44.34 52.4781 43.2733 52.4781 41.78L52.4781 36.9ZM26.8781 14C24.4248 12.4 22.5048 10.4 21.1181 7.99997C19.6781 5.59997 18.9581 2.9333 18.9581 -3.35522e-05L33.4381 -3.41851e-05L33.4381 3.75997C33.4381 7.1733 34.1848 9.7333 35.6781 11.44C37.1181 13.1466 39.6781 14 43.3581 14L64.0781 14L64.0781 27.68L19.4381 27.68L19.4381 14L26.8781 14Z" fill="black"/>
</svg>
