<svg width="60" height="349" viewBox="0 0 60 349" fill="none" xmlns="http://www.w3.org/2000/svg">
<path d="M3.03922 305.032L13.9992 305.032L13.9992 319.912L59.1992 319.912L59.1992 333.592L13.9992 333.592L13.9992 348.472L3.03922 348.472L3.03922 305.032ZM36.7992 299.286C32.2125 299.286 28.1859 298.433 24.7192 296.726C21.2525 294.966 18.5859 292.593 16.7192 289.606C14.8525 286.62 13.9192 283.286 13.9192 279.606C13.9192 276.46 14.5592 273.713 15.8392 271.366C17.1192 268.966 18.7992 267.126 20.8792 265.846L14.5592 265.846L14.5592 252.166L59.1992 252.166L59.1992 265.846L52.8792 265.846C54.9592 267.18 56.6392 269.046 57.9192 271.446C59.1992 273.793 59.8392 276.54 59.8392 279.686C59.8392 283.313 58.9059 286.62 57.0392 289.606C55.1192 292.593 52.4259 294.966 48.9592 296.726C45.4392 298.433 41.3859 299.286 36.7992 299.286ZM36.8792 265.846C33.4659 265.846 30.7725 266.806 28.7992 268.726C26.8259 270.593 25.8392 272.886 25.8392 275.606C25.8392 278.326 26.8259 280.646 28.7992 282.566C30.7192 284.433 33.3859 285.366 36.7992 285.366C40.2125 285.366 42.9325 284.433 44.9592 282.566C46.9325 280.646 47.9192 278.326 47.9192 275.606C47.9192 272.886 46.9325 270.593 44.9592 268.726C42.9859 266.806 40.2925 265.846 36.8792 265.846ZM36.7992 243.389C32.2125 243.389 28.1859 242.536 24.7192 240.829C21.2525 239.069 18.5859 236.696 16.7192 233.709C14.8525 230.723 13.9192 227.389 13.9192 223.709C13.9192 220.776 14.5325 218.109 15.7592 215.709C16.9859 213.256 18.6392 211.336 20.7192 209.949L-0.000788153 209.949L-0.000788751 196.269L59.1992 196.269L59.1992 209.949L52.7992 209.949C54.9325 211.229 56.6392 213.069 57.9192 215.469C59.1992 217.816 59.8392 220.563 59.8392 223.709C59.8392 227.389 58.9059 230.723 57.0392 233.709C55.1192 236.696 52.4259 239.069 48.9592 240.829C45.4392 242.536 41.3859 243.389 36.7992 243.389ZM36.8792 209.949C33.4659 209.949 30.7725 210.909 28.7992 212.829C26.8259 214.696 25.8392 216.989 25.8392 219.709C25.8392 222.429 26.8259 224.749 28.7992 226.669C30.7192 228.536 33.3859 229.469 36.7992 229.469C40.2125 229.469 42.9325 228.536 44.9592 226.669C46.9325 224.749 47.9192 222.429 47.9192 219.709C47.9192 216.989 46.9325 214.696 44.9592 212.829C42.9859 210.909 40.2925 209.949 36.8792 209.949ZM36.1592 142.692C37.4392 142.692 38.7725 142.772 40.1592 142.932L40.1592 173.892C42.9325 173.679 45.0659 172.799 46.5592 171.252C47.9992 169.652 48.7192 167.706 48.7192 165.412C48.7192 161.999 47.2792 159.626 44.3992 158.292L44.3992 143.732C47.3325 144.479 49.9725 145.839 52.3192 147.812C54.6659 149.732 56.5059 152.159 57.8392 155.092C59.1725 158.026 59.8392 161.306 59.8392 164.932C59.8392 169.306 58.9059 173.199 57.0392 176.612C55.1725 180.026 52.5059 182.692 49.0392 184.612C45.5725 186.532 41.5192 187.492 36.8792 187.492C32.2392 187.492 28.1859 186.559 24.7192 184.692C21.2525 182.772 18.5859 180.106 16.7192 176.692C14.8525 173.279 13.9192 169.359 13.9192 164.932C13.9192 160.612 14.8259 156.772 16.6392 153.412C18.4525 150.052 21.0392 147.439 24.3992 145.572C27.7592 143.652 31.6792 142.692 36.1592 142.692ZM32.5592 156.692C30.2125 156.692 28.3459 157.492 26.9592 159.092C25.5725 160.692 24.8792 162.692 24.8792 165.092C24.8792 167.386 25.5459 169.332 26.8792 170.932C28.2125 172.479 30.1059 173.439 32.5592 173.812L32.5592 156.692ZM14.5592 89.7956L59.1992 89.7956L59.1992 103.476L53.1192 103.476C55.0925 104.862 56.6925 106.756 57.9192 109.156C59.0925 111.502 59.6792 114.116 59.6792 116.996C59.6792 120.409 58.9325 123.422 57.4392 126.036C55.8925 128.649 53.6792 130.676 50.7992 132.116C47.9192 133.556 44.5325 134.276 40.6392 134.276L14.5592 134.276L14.5592 120.676L38.7992 120.676C41.7859 120.676 44.1059 119.902 45.7592 118.356C47.4125 116.809 48.2392 114.729 48.2392 112.116C48.2392 109.449 47.4125 107.342 45.7592 105.796C44.1059 104.249 41.7859 103.476 38.7992 103.476L14.5592 103.476L14.5592 89.7956ZM59.8392 60.2093C59.8392 64.1027 59.1725 67.5693 57.8392 70.6093C56.5059 73.6493 54.6925 76.0493 52.3992 77.8093C50.0525 79.5693 47.4392 80.556 44.5592 80.7693L44.5592 67.2493C46.1059 67.0893 47.3592 66.3693 48.3192 65.0893C49.2792 63.8093 49.7592 62.236 49.7592 60.3693C49.7592 58.6627 49.4392 57.356 48.7992 56.4493C48.1059 55.4893 47.2259 55.0093 46.1592 55.0093C44.8792 55.0093 43.9459 55.676 43.3592 57.0093C42.7192 58.3427 42.0259 60.5027 41.2792 63.4893C40.5325 66.6893 39.7592 69.356 38.9592 71.4893C38.1059 73.6227 36.7992 75.4627 35.0392 77.0093C33.2259 78.556 30.7992 79.3293 27.7592 79.3293C25.1992 79.3293 22.8792 78.636 20.7992 77.2493C18.6659 75.8093 16.9859 73.7293 15.7592 71.0093C14.5325 68.236 13.9192 64.956 13.9192 61.1693C13.9192 55.5693 15.3059 51.1693 18.0792 47.9693C20.8525 44.716 24.5325 42.8493 29.1192 42.3693L29.1192 55.0093C27.5725 55.2227 26.3459 55.916 25.4392 57.0893C24.5325 58.2093 24.0792 59.7027 24.0792 61.5693C24.0792 63.1693 24.3992 64.396 25.0392 65.2493C25.6259 66.1027 26.4525 66.5293 27.5192 66.5293C28.7992 66.5293 29.7592 65.8627 30.3992 64.5293C31.0392 63.1427 31.6792 61.0093 32.3192 58.1293C33.1725 54.8227 34.0259 52.1293 34.8792 50.0493C35.6792 47.9693 37.0125 46.156 38.8792 44.6093C40.6925 43.0093 43.1459 42.1827 46.2392 42.1293C48.8525 42.1293 51.1992 42.876 53.2792 44.3693C55.3059 45.8093 56.9059 47.916 58.0792 50.6893C59.2525 53.4093 59.8392 56.5827 59.8392 60.2093ZM47.9192 19.36L47.9192 -8.37221e-06L59.1992 -8.86528e-06L59.1992 34.64L48.3192 34.64L25.8392 16.08L25.8392 34.48L14.5592 34.48L14.5592 0.399993L25.4392 0.399992L47.9192 19.36Z" fill="black"/>
</svg>
