<svg width="22" height="22" viewBox="0 0 22 22" fill="none" xmlns="http://www.w3.org/2000/svg">
<path d="M3.4175 21.25C2.57857 21.2469 1.77487 20.9118 1.18154 20.3176C0.588221 19.7234 0.253381 18.9183 0.25 18.0779L0.25 4.90069C0.253684 4.06021 0.588584 3.25521 1.18181 2.6609C1.77503 2.06658 2.57856 1.73107 3.4175 1.72738H4.8V1.14297C4.8 0.90614 4.89391 0.679009 5.06107 0.511545C5.22822 0.344081 5.45494 0.25 5.69133 0.25C5.92773 0.25 6.15444 0.344081 6.3216 0.511545C6.48876 0.679009 6.58267 0.90614 6.58267 1.14297V1.72738H14.8753V1.14297C14.8753 0.90614 14.9692 0.679009 15.1364 0.511545C15.3036 0.344081 15.5303 0.25 15.7667 0.25C16.0031 0.25 16.2298 0.344081 16.3969 0.511545C16.5641 0.679009 16.658 0.90614 16.658 1.14297V1.72738H18.0848C18.9238 1.73015 19.7277 2.06545 20.3207 2.66003C20.9138 3.2546 21.2478 4.06014 21.25 4.90069V18.1246C21.22 18.9595 20.8694 19.7505 20.2715 20.3328C19.6735 20.915 18.8743 21.2436 18.0405 21.25H3.4175ZM2.03267 4.85745V18.0779C2.03451 18.4452 2.181 18.7971 2.44031 19.0568C2.69962 19.3166 3.05079 19.4634 3.4175 19.4652H18.0825C18.4492 19.4634 18.8004 19.3166 19.0597 19.0568C19.319 18.7971 19.4655 18.4452 19.4673 18.0779V4.9042C19.4655 4.53681 19.319 4.185 19.0597 3.92521C18.8004 3.66543 18.4492 3.51867 18.0825 3.51682H16.6603V4.10123C16.6441 4.32864 16.5437 4.5418 16.3789 4.69897C16.214 4.85614 15.9965 4.946 15.769 4.95095C15.533 4.94972 15.307 4.85525 15.1401 4.68805C14.9732 4.52085 14.8789 4.29443 14.8777 4.05798V3.51799H6.58383V4.09305C6.58267 4.20798 6.5585 4.32152 6.51275 4.42692C6.46701 4.53233 6.40061 4.62747 6.31749 4.70671C6.23438 4.78594 6.13624 4.84766 6.02888 4.88821C5.92153 4.92876 5.80714 4.94731 5.6925 4.94277C5.45628 4.94185 5.22998 4.84751 5.06283 4.68028C4.89569 4.51305 4.80123 4.28645 4.8 4.0498V3.46539H3.4175C3.04998 3.46725 2.69811 3.61465 2.43867 3.87544C2.17923 4.13624 2.03328 4.48925 2.03267 4.85745ZM15.7212 17.4081C15.4848 17.4081 15.2581 17.314 15.0909 17.1466C14.9237 16.9791 14.8298 16.752 14.8298 16.5152C14.8298 16.2783 14.9237 16.0512 15.0909 15.8837C15.2581 15.7163 15.4848 15.6222 15.7212 15.6222H16.7922C17.0282 15.6234 17.2542 15.7179 17.4211 15.8851C17.588 16.0523 17.6823 16.2787 17.6835 16.5152C17.6679 16.7468 17.569 16.965 17.4051 17.1292C17.2412 17.2934 17.0234 17.3925 16.7922 17.4081H15.7212ZM10.1923 17.4081C9.95594 17.4081 9.72922 17.314 9.56207 17.1466C9.39491 16.9791 9.301 16.752 9.301 16.5152C9.301 16.2783 9.39491 16.0512 9.56207 15.8837C9.72922 15.7163 9.95594 15.6222 10.1923 15.6222H11.2633C11.4997 15.6222 11.7264 15.7163 11.8936 15.8837C12.0608 16.0512 12.1547 16.2783 12.1547 16.5152C12.1547 16.752 12.0608 16.9791 11.8936 17.1466C11.7264 17.314 11.4997 17.4081 11.2633 17.4081H10.1923ZM4.709 17.4081C4.4726 17.4081 4.24589 17.314 4.07873 17.1466C3.91157 16.9791 3.81767 16.752 3.81767 16.5152C3.81767 16.2783 3.91157 16.0512 4.07873 15.8837C4.24589 15.7163 4.4726 15.6222 4.709 15.6222H5.78C6.01602 15.6234 6.24202 15.7179 6.40891 15.8851C6.57581 16.0523 6.67011 16.2787 6.67133 16.5152C6.65576 16.7468 6.55686 16.965 6.39295 17.1292C6.22905 17.2934 6.01127 17.3925 5.78 17.4081H4.709ZM15.7235 13.6551C15.4871 13.6551 15.2604 13.561 15.0932 13.3935C14.9261 13.2261 14.8322 12.9989 14.8322 12.7621C14.8322 12.5253 14.9261 12.2981 15.0932 12.1307C15.2604 11.9632 15.4871 11.8691 15.7235 11.8691H16.7945C17.0305 11.8704 17.2565 11.9648 17.4234 12.132C17.5903 12.2992 17.6846 12.5257 17.6858 12.7621C17.6785 12.9966 17.5823 13.2195 17.4167 13.3854C17.2511 13.5513 17.0286 13.6478 16.7945 13.6551H15.7235ZM10.1947 13.6551C9.95827 13.6551 9.73156 13.561 9.5644 13.3935C9.39724 13.2261 9.30333 12.9989 9.30333 12.7621C9.30333 12.5253 9.39724 12.2981 9.5644 12.1307C9.73156 11.9632 9.95827 11.8691 10.1947 11.8691H11.2657C11.5017 11.8704 11.7277 11.9648 11.8946 12.132C12.0615 12.2992 12.1558 12.5257 12.157 12.7621C12.1604 12.8803 12.1396 12.9979 12.096 13.1078C12.0525 13.2177 11.9869 13.3175 11.9035 13.4011C11.82 13.4847 11.7204 13.5503 11.6107 13.594C11.5011 13.6377 11.3836 13.6585 11.2657 13.6551H10.1947ZM4.71133 13.6551C4.47494 13.6551 4.24822 13.561 4.08107 13.3935C3.91391 13.2261 3.82 12.9989 3.82 12.7621C3.82 12.5253 3.91391 12.2981 4.08107 12.1307C4.24822 11.9632 4.47494 11.8691 4.71133 11.8691H5.78233C6.01693 11.8722 6.24098 11.9673 6.40633 12.1341C6.57169 12.3008 6.66516 12.5259 6.66667 12.7609C6.65936 12.9954 6.56311 13.2183 6.39751 13.3843C6.23191 13.5502 6.00941 13.6466 5.77533 13.6539L4.71133 13.6551ZM15.7258 9.94995C15.4894 9.94995 15.2627 9.85587 15.0956 9.68841C14.9284 9.52094 14.8345 9.29381 14.8345 9.05698C14.8345 8.82015 14.9284 8.59302 15.0956 8.42555C15.2627 8.25809 15.4894 8.16401 15.7258 8.16401H16.7968C17.033 8.16463 17.2594 8.25891 17.4264 8.42624C17.5934 8.59357 17.6875 8.82034 17.6882 9.05698C17.6726 9.28868 17.5737 9.50685 17.4098 9.67106C17.2459 9.83526 17.0281 9.93435 16.7968 9.94995H15.7258ZM10.197 9.94995C9.9606 9.94995 9.73389 9.85587 9.56673 9.68841C9.39957 9.52094 9.30567 9.29381 9.30567 9.05698C9.30567 8.82015 9.39957 8.59302 9.56673 8.42555C9.73389 8.25809 9.9606 8.16401 10.197 8.16401H11.268C11.5044 8.16401 11.7311 8.25809 11.8983 8.42555C12.0654 8.59302 12.1593 8.82015 12.1593 9.05698C12.1593 9.29381 12.0654 9.52094 11.8983 9.68841C11.7311 9.85587 11.5044 9.94995 11.268 9.94995H10.197ZM4.71367 9.94995C4.47727 9.94995 4.25056 9.85587 4.0834 9.68841C3.91624 9.52094 3.82233 9.29381 3.82233 9.05698C3.82233 8.82015 3.91624 8.59302 4.0834 8.42555C4.25056 8.25809 4.47727 8.16401 4.71367 8.16401H5.78467C6.02087 8.16463 6.24723 8.25891 6.41425 8.42624C6.58128 8.59357 6.67538 8.82034 6.676 9.05698C6.66043 9.28868 6.56152 9.50685 6.39762 9.67106C6.23372 9.83526 6.01594 9.93435 5.78467 9.94995H4.71367Z" fill="black" stroke="black" stroke-width="0.5"/>
</svg>
