<svg width="1918" height="253" viewBox="0 0 1918 253" fill="none" xmlns="http://www.w3.org/2000/svg">
<rect width="1920" height="251" transform="translate(-2 2)" fill="white"/>
<line x1="-2" y1="252" x2="1918" y2="252" stroke="black" stroke-width="2"/>
<line x1="-2" y1="1" x2="1918" y2="1" stroke="black" stroke-width="2"/>
<path d="M143.68 180V70.24H152.48L213.12 151.36C213.76 152.107 214.56 153.173 215.52 154.56C216.48 155.947 217.493 157.387 218.56 158.88C219.627 160.373 220.587 161.707 221.44 162.88H222.08C222.08 160.96 222.08 159.04 222.08 157.12C222.08 155.2 222.08 153.28 222.08 151.36V70.24H230.72V180H223.84L161.76 96.64C161.013 95.68 159.733 93.9733 157.92 91.52C156.107 89.0667 154.453 86.8267 152.96 84.8H152.32C152.32 86.8267 152.32 88.8 152.32 90.72C152.32 92.64 152.32 94.6133 152.32 96.64V180H143.68ZM248.038 180L292.198 70.24H304.678L348.838 180H339.558L326.758 148.32H269.478L256.838 180H248.038ZM272.678 140.64H323.558L307.558 100.8C307.238 99.9467 306.758 98.6667 306.118 96.96C305.478 95.2533 304.731 93.28 303.878 91.04C303.024 88.8 302.118 86.5067 301.158 84.16C300.304 81.8133 299.504 79.6267 298.758 77.6H297.478C296.731 79.6267 295.824 82.0267 294.758 84.8C293.691 87.5733 292.624 90.4 291.558 93.28C290.491 96.0533 289.531 98.56 288.677 100.8L272.678 140.64ZM387.14 181.92C380.633 181.92 375.033 180.747 370.34 178.4C365.647 176.053 362.02 172.64 359.46 168.16C357.007 163.573 355.78 157.867 355.78 151.04V147.84H364.58V152.64C364.58 159.573 366.553 164.907 370.5 168.64C374.553 172.373 380.1 174.24 387.14 174.24C394.713 174.24 400.527 171.947 404.58 167.36C408.74 162.667 410.82 155.467 410.82 145.76V70.24H419.46V144.16C419.46 152.693 418.18 159.787 415.62 165.44C413.06 170.987 409.327 175.147 404.42 177.92C399.62 180.587 393.86 181.92 387.14 181.92ZM450.868 180V70.24H459.508V172.32H513.588V180H450.868ZM530.243 180V70.24H613.443V77.92H538.883V119.84H606.403V127.52H538.883V172.32H614.403V180H530.243ZM639.305 180V70.24H692.585C699.625 70.24 705.438 71.6267 710.025 74.4C714.718 77.1733 718.185 80.96 720.425 85.76C722.772 90.4533 723.945 95.7333 723.945 101.6C723.945 107.893 722.558 113.547 719.785 118.56C717.012 123.467 713.332 127.36 708.745 130.24C704.158 133.013 699.092 134.4 693.545 134.4H647.945V180H639.305ZM647.945 126.72H692.265C698.985 126.72 704.478 124.533 708.745 120.16C713.012 115.68 715.145 109.6 715.145 101.92C715.145 96.9067 714.292 92.64 712.585 89.12C710.985 85.4933 708.478 82.72 705.065 80.8C701.652 78.88 697.385 77.92 692.265 77.92H647.945V126.72ZM784.454 181.92C778.587 181.92 772.88 181.44 767.334 180.48C761.894 179.52 757.04 177.867 752.774 175.52C748.507 173.067 745.094 169.813 742.534 165.76C740.08 161.6 738.854 156.32 738.854 149.92C738.854 149.387 738.854 148.96 738.854 148.64C738.854 148.213 738.907 147.627 739.014 146.88H747.814C747.707 147.413 747.6 148.107 747.494 148.96C747.494 149.707 747.494 150.4 747.494 151.04C747.494 156.267 749.094 160.64 752.294 164.16C755.494 167.573 759.76 170.133 765.094 171.84C770.534 173.44 776.454 174.24 782.854 174.24C784.24 174.24 786.374 174.133 789.254 173.92C792.134 173.707 795.227 173.227 798.534 172.48C801.947 171.627 805.147 170.4 808.134 168.8C811.227 167.2 813.734 165.067 815.654 162.4C817.68 159.627 818.694 156.107 818.694 151.84C818.694 147.573 817.574 144.053 815.334 141.28C813.2 138.4 810.32 136.053 806.694 134.24C803.067 132.427 798.96 130.88 794.374 129.6C789.787 128.213 785.04 126.933 780.134 125.76C775.227 124.587 770.48 123.307 765.894 121.92C761.307 120.427 757.2 118.613 753.574 116.48C749.947 114.347 747.014 111.627 744.774 108.32C742.64 105.013 741.574 100.96 741.574 96.16C741.574 92.32 742.32 88.6933 743.814 85.28C745.307 81.8667 747.707 78.9333 751.014 76.48C754.32 73.92 758.694 71.9467 764.134 70.56C769.68 69.0667 776.454 68.32 784.454 68.32C790 68.32 795.12 68.9067 799.814 70.08C804.614 71.2533 808.827 73.0667 812.454 75.52C816.08 77.8667 818.907 80.9067 820.934 84.64C822.96 88.3733 823.974 92.8533 823.974 98.08V100H815.334V96.64C815.334 92.3733 814 88.7467 811.334 85.76C808.667 82.6667 805.094 80.2667 800.614 78.56C796.134 76.8533 791.12 76 785.574 76C777.254 76 770.48 76.8533 765.254 78.56C760.134 80.2667 756.347 82.56 753.894 85.44C751.547 88.2133 750.374 91.3067 750.374 94.72C750.374 98.7733 751.44 102.133 753.574 104.8C755.814 107.467 758.747 109.653 762.374 111.36C766.107 113.067 770.267 114.56 774.854 115.84C779.44 117.12 784.134 118.347 788.934 119.52C793.84 120.693 798.587 122.027 803.174 123.52C807.76 125.013 811.867 126.88 815.494 129.12C819.227 131.36 822.16 134.187 824.294 137.6C826.534 141.013 827.654 145.227 827.654 150.24C827.654 157.493 825.787 163.467 822.054 168.16C818.427 172.853 813.36 176.32 806.854 178.56C800.454 180.8 792.987 181.92 784.454 181.92ZM853.368 180V70.24H862.008V180H853.368ZM928.524 180V70.24H981.484C988.097 70.24 993.644 71.3067 998.124 73.44C1002.71 75.4667 1006.18 78.4533 1008.52 82.4C1010.87 86.24 1012.04 90.88 1012.04 96.32C1012.04 100.48 1011.35 104.373 1009.96 108C1008.58 111.52 1006.6 114.507 1004.04 116.96C1001.48 119.413 998.444 121.227 994.924 122.4V123.04C998.55 123.893 1001.86 125.333 1004.84 127.36C1007.94 129.387 1010.39 132.267 1012.2 136C1014.12 139.627 1015.08 144.427 1015.08 150.4C1015.08 157.867 1013.64 163.787 1010.76 168.16C1007.88 172.427 1003.94 175.467 998.924 177.28C993.91 179.093 988.097 180 981.484 180H928.524ZM937.164 172.32H984.044C990.764 172.32 996.15 170.667 1000.2 167.36C1004.36 164.053 1006.44 158.24 1006.44 149.92C1006.44 144.587 1005.54 140.267 1003.72 136.96C1001.91 133.653 999.244 131.253 995.724 129.76C992.31 128.267 988.097 127.52 983.084 127.52H937.164V172.32ZM937.164 119.84H981.324C985.484 119.84 989.217 118.987 992.524 117.28C995.83 115.467 998.444 112.96 1000.36 109.76C1002.39 106.453 1003.4 102.613 1003.4 98.24C1003.4 91.3067 1001.48 86.1867 997.644 82.88C993.91 79.5733 988.95 77.92 982.764 77.92H937.164V119.84ZM1024.76 180L1068.92 70.24H1081.4L1125.56 180H1116.28L1103.48 148.32H1046.2L1033.56 180H1024.76ZM1049.4 140.64H1100.28L1084.28 100.8C1083.96 99.9467 1083.48 98.6667 1082.84 96.96C1082.2 95.2533 1081.45 93.28 1080.6 91.04C1079.74 88.8 1078.84 86.5067 1077.88 84.16C1077.02 81.8133 1076.22 79.6267 1075.48 77.6H1074.2C1073.45 79.6267 1072.54 82.0267 1071.48 84.8C1070.41 87.5733 1069.34 90.4 1068.28 93.28C1067.21 96.0533 1066.25 98.56 1065.4 100.8L1049.4 140.64ZM1142.9 180V70.24H1200.5C1207.33 70.24 1212.98 71.5733 1217.46 74.24C1221.94 76.9067 1225.3 80.48 1227.54 84.96C1229.78 89.44 1230.9 94.5067 1230.9 100.16C1230.9 108.16 1229.03 114.88 1225.3 120.32C1221.57 125.653 1216.87 129.28 1211.22 131.2L1234.74 180H1225.14L1202.42 132.8H1151.54V180H1142.9ZM1151.54 125.12H1199.22C1206.37 125.12 1211.97 122.88 1216.02 118.4C1220.18 113.92 1222.26 107.787 1222.26 100C1222.26 95.4133 1221.41 91.52 1219.7 88.32C1217.99 85.0133 1215.43 82.4533 1212.02 80.64C1208.61 78.8267 1204.34 77.92 1199.22 77.92H1151.54V125.12ZM1261.18 180V70.24H1314.14C1320.75 70.24 1326.3 71.3067 1330.78 73.44C1335.37 75.4667 1338.83 78.4533 1341.18 82.4C1343.53 86.24 1344.7 90.88 1344.7 96.32C1344.7 100.48 1344.01 104.373 1342.62 108C1341.23 111.52 1339.26 114.507 1336.7 116.96C1334.14 119.413 1331.1 121.227 1327.58 122.4V123.04C1331.21 123.893 1334.51 125.333 1337.5 127.36C1340.59 129.387 1343.05 132.267 1344.86 136C1346.78 139.627 1347.74 144.427 1347.74 150.4C1347.74 157.867 1346.3 163.787 1343.42 168.16C1340.54 172.427 1336.59 175.467 1331.58 177.28C1326.57 179.093 1320.75 180 1314.14 180H1261.18ZM1269.82 172.32H1316.7C1323.42 172.32 1328.81 170.667 1332.86 167.36C1337.02 164.053 1339.1 158.24 1339.1 149.92C1339.1 144.587 1338.19 140.267 1336.38 136.96C1334.57 133.653 1331.9 131.253 1328.38 129.76C1324.97 128.267 1320.75 127.52 1315.74 127.52H1269.82V172.32ZM1269.82 119.84H1313.98C1318.14 119.84 1321.87 118.987 1325.18 117.28C1328.49 115.467 1331.1 112.96 1333.02 109.76C1335.05 106.453 1336.06 102.613 1336.06 98.24C1336.06 91.3067 1334.14 86.1867 1330.3 82.88C1326.57 79.5733 1321.61 77.92 1315.42 77.92H1269.82V119.84ZM1371.49 180V70.24H1454.69V77.92H1380.13V119.84H1447.65V127.52H1380.13V172.32H1455.65V180H1371.49ZM1480.56 180V70.24H1538.16C1544.98 70.24 1550.64 71.5733 1555.12 74.24C1559.6 76.9067 1562.96 80.48 1565.2 84.96C1567.44 89.44 1568.56 94.5067 1568.56 100.16C1568.56 108.16 1566.69 114.88 1562.96 120.32C1559.22 125.653 1554.53 129.28 1548.88 131.2L1572.4 180H1562.8L1540.08 132.8H1489.2V180H1480.56ZM1489.2 125.12H1536.88C1544.02 125.12 1549.62 122.88 1553.68 118.4C1557.84 113.92 1559.92 107.787 1559.92 100C1559.92 95.4133 1559.06 91.52 1557.36 88.32C1555.65 85.0133 1553.09 82.4533 1549.68 80.64C1546.26 78.8267 1542 77.92 1536.88 77.92H1489.2V125.12ZM1588.92 180V174.56L1664.92 77.92H1593.08V70.24H1677.72V75.36L1601.24 172.32H1679.16V180H1588.92ZM1730.95 180V133.44L1686.63 70.24H1696.23L1735.11 125.92H1735.75L1774.47 70.24H1784.23L1739.75 133.44V180H1730.95Z" fill="black"/>
</svg>
