<svg width="1920" height="1350" viewBox="0 0 1920 1350" fill="none" xmlns="http://www.w3.org/2000/svg">
<g clip-path="url(#clip0_1050_2745)">
<rect width="1920" height="1350" fill="white"/>
<g clip-path="url(#clip1_1050_2745)">
<rect x="1" y="106" width="1938" height="1018" fill="#F5F5F5"/>
<g filter="url(#filter0_f_1050_2745)">
<rect x="-1" y="1082" width="1920" height="242" fill="white"/>
</g>
<g filter="url(#filter1_f_1050_2745)">
<rect y="1203" width="1920" height="242" fill="white"/>
</g>
<rect x="1" y="106" width="100" height="100" fill="white" fill-opacity="0.9"/>
<rect x="103" y="106" width="100" height="100" fill="white" fill-opacity="0.9"/>
<rect x="205" y="106" width="100" height="100" fill="white" fill-opacity="0.9"/>
<rect x="307" y="106" width="100" height="100" fill="white" fill-opacity="0.9"/>
<rect x="1" y="208" width="100" height="100" fill="white" fill-opacity="0.9"/>
<rect x="103" y="208" width="100" height="100" fill="white" fill-opacity="0.9"/>
<rect x="205" y="208" width="100" height="100" fill="white" fill-opacity="0.9"/>
<rect x="307" y="208" width="100" height="100" fill="white" fill-opacity="0.9"/>
<rect x="817" y="106" width="100" height="100" fill="white" fill-opacity="0.9"/>
<rect x="919" y="106" width="100" height="100" fill="white" fill-opacity="0.9"/>
<rect x="1021" y="106" width="100" height="100" fill="white" fill-opacity="0.9"/>
<rect x="1123" y="106" width="100" height="100" fill="white" fill-opacity="0.9"/>
<rect x="817" y="208" width="100" height="100" fill="white" fill-opacity="0.9"/>
<rect x="919" y="208" width="100" height="100" fill="white" fill-opacity="0.9"/>
<rect x="1021" y="208" width="100" height="100" fill="white" fill-opacity="0.9"/>
<rect x="1123" y="208" width="100" height="100" fill="white" fill-opacity="0.9"/>
<rect x="409" y="106" width="100" height="100" fill="white" fill-opacity="0.9"/>
<rect x="511" y="106" width="100" height="100" fill="white" fill-opacity="0.9"/>
<rect x="613" y="106" width="100" height="100" fill="white" fill-opacity="0.9"/>
<rect x="715" y="106" width="100" height="100" fill="white" fill-opacity="0.9"/>
<rect x="409" y="208" width="100" height="100" fill="white" fill-opacity="0.9"/>
<rect x="511" y="208" width="100" height="100" fill="white" fill-opacity="0.9"/>
<rect x="613" y="208" width="100" height="100" fill="white" fill-opacity="0.9"/>
<rect x="715" y="208" width="100" height="100" fill="white" fill-opacity="0.9"/>
<rect x="1" y="310" width="100" height="100" fill="white" fill-opacity="0.9"/>
<rect x="103" y="310" width="100" height="100" fill="white" fill-opacity="0.9"/>
<rect x="205" y="310" width="100" height="100" fill="white" fill-opacity="0.9"/>
<rect x="307" y="310" width="100" height="100" fill="white" fill-opacity="0.9"/>
<rect x="1" y="412" width="100" height="100" fill="white" fill-opacity="0.9"/>
<rect x="103" y="412" width="100" height="100" fill="white" fill-opacity="0.9"/>
<rect x="205" y="412" width="100" height="100" fill="white" fill-opacity="0.9"/>
<rect x="307" y="412" width="100" height="100" fill="white" fill-opacity="0.9"/>
<rect x="817" y="310" width="100" height="100" fill="white" fill-opacity="0.9"/>
<rect x="919" y="310" width="100" height="100" fill="white" fill-opacity="0.9"/>
<rect x="1021" y="310" width="100" height="100" fill="white" fill-opacity="0.9"/>
<rect x="1123" y="310" width="100" height="100" fill="white" fill-opacity="0.9"/>
<rect x="817" y="412" width="100" height="100" fill="white" fill-opacity="0.9"/>
<rect x="919" y="412" width="100" height="100" fill="white" fill-opacity="0.9"/>
<rect x="1021" y="412" width="100" height="100" fill="white" fill-opacity="0.9"/>
<rect x="1123" y="412" width="100" height="100" fill="white" fill-opacity="0.9"/>
<rect x="409" y="310" width="100" height="100" fill="white" fill-opacity="0.9"/>
<rect x="511" y="310" width="100" height="100" fill="white" fill-opacity="0.9"/>
<rect x="613" y="310" width="100" height="100" fill="white" fill-opacity="0.9"/>
<rect x="715" y="310" width="100" height="100" fill="white" fill-opacity="0.9"/>
<rect x="409" y="412" width="100" height="100" fill="white" fill-opacity="0.9"/>
<rect x="511" y="412" width="100" height="100" fill="white" fill-opacity="0.9"/>
<rect x="613" y="412" width="100" height="100" fill="white" fill-opacity="0.9"/>
<rect x="715" y="412" width="100" height="100" fill="white" fill-opacity="0.9"/>
<rect x="2" y="514" width="100" height="100" fill="white" fill-opacity="0.9"/>
<rect x="104" y="514" width="100" height="100" fill="white" fill-opacity="0.9"/>
<rect x="206" y="514" width="100" height="100" fill="white" fill-opacity="0.9"/>
<rect x="308" y="514" width="100" height="100" fill="white" fill-opacity="0.9"/>
<rect x="2" y="616" width="100" height="100" fill="white" fill-opacity="0.9"/>
<rect x="104" y="616" width="100" height="100" fill="white" fill-opacity="0.9"/>
<rect x="206" y="616" width="100" height="100" fill="white" fill-opacity="0.9"/>
<rect x="308" y="616" width="100" height="100" fill="white" fill-opacity="0.9"/>
<rect x="818" y="514" width="100" height="100" fill="white" fill-opacity="0.9"/>
<rect x="920" y="514" width="100" height="100" fill="white" fill-opacity="0.9"/>
<rect x="1022" y="514" width="100" height="100" fill="white" fill-opacity="0.9"/>
<rect x="1124" y="514" width="100" height="100" fill="white" fill-opacity="0.9"/>
<rect x="818" y="616" width="100" height="100" fill="white" fill-opacity="0.9"/>
<rect x="920" y="616" width="100" height="100" fill="white" fill-opacity="0.9"/>
<rect x="1022" y="616" width="100" height="100" fill="white" fill-opacity="0.9"/>
<rect x="1124" y="616" width="100" height="100" fill="white" fill-opacity="0.9"/>
<rect x="410" y="514" width="100" height="100" fill="white" fill-opacity="0.9"/>
<rect x="512" y="514" width="100" height="100" fill="white" fill-opacity="0.9"/>
<rect x="614" y="514" width="100" height="100" fill="white" fill-opacity="0.9"/>
<rect x="716" y="514" width="100" height="100" fill="white" fill-opacity="0.9"/>
<rect x="410" y="616" width="100" height="100" fill="white" fill-opacity="0.9"/>
<rect x="512" y="616" width="100" height="100" fill="white" fill-opacity="0.9"/>
<rect x="614" y="616" width="100" height="100" fill="white" fill-opacity="0.9"/>
<rect x="716" y="616" width="100" height="100" fill="white" fill-opacity="0.9"/>
<rect x="2" y="718" width="100" height="100" fill="white" fill-opacity="0.9"/>
<rect x="104" y="718" width="100" height="100" fill="white" fill-opacity="0.9"/>
<rect x="206" y="718" width="100" height="100" fill="white" fill-opacity="0.9"/>
<rect x="308" y="718" width="100" height="100" fill="white" fill-opacity="0.9"/>
<rect x="2" y="820" width="100" height="100" fill="white" fill-opacity="0.9"/>
<rect x="104" y="820" width="100" height="100" fill="white" fill-opacity="0.9"/>
<rect x="206" y="820" width="100" height="100" fill="white" fill-opacity="0.9"/>
<rect x="308" y="820" width="100" height="100" fill="white" fill-opacity="0.9"/>
<rect x="818" y="718" width="100" height="100" fill="white" fill-opacity="0.9"/>
<rect x="920" y="718" width="100" height="100" fill="white" fill-opacity="0.9"/>
<rect x="1022" y="718" width="100" height="100" fill="white" fill-opacity="0.9"/>
<rect x="1124" y="718" width="100" height="100" fill="white" fill-opacity="0.9"/>
<rect x="818" y="820" width="100" height="100" fill="white" fill-opacity="0.9"/>
<rect x="920" y="820" width="100" height="100" fill="white" fill-opacity="0.9"/>
<rect x="1022" y="820" width="100" height="100" fill="white" fill-opacity="0.9"/>
<rect x="1124" y="820" width="100" height="100" fill="white" fill-opacity="0.9"/>
<rect x="410" y="718" width="100" height="100" fill="white" fill-opacity="0.9"/>
<rect x="512" y="718" width="100" height="100" fill="white" fill-opacity="0.9"/>
<rect x="614" y="718" width="100" height="100" fill="white" fill-opacity="0.9"/>
<rect x="716" y="718" width="100" height="100" fill="white" fill-opacity="0.9"/>
<rect x="410" y="820" width="100" height="100" fill="white" fill-opacity="0.9"/>
<rect x="512" y="820" width="100" height="100" fill="white" fill-opacity="0.9"/>
<rect x="614" y="820" width="100" height="100" fill="white" fill-opacity="0.9"/>
<rect x="716" y="820" width="100" height="100" fill="white" fill-opacity="0.9"/>
<rect x="2" y="1024" width="100" height="100" fill="white" fill-opacity="0.9"/>
<rect x="104" y="1024" width="100" height="100" fill="white" fill-opacity="0.9"/>
<rect x="206" y="1024" width="100" height="100" fill="white" fill-opacity="0.9"/>
<rect x="308" y="1024" width="100" height="100" fill="white" fill-opacity="0.9"/>
<rect x="818" y="1024" width="100" height="100" fill="white" fill-opacity="0.9"/>
<rect x="920" y="1024" width="100" height="100" fill="white" fill-opacity="0.9"/>
<rect x="1022" y="1024" width="100" height="100" fill="white" fill-opacity="0.9"/>
<rect x="1124" y="1024" width="100" height="100" fill="white" fill-opacity="0.9"/>
<rect x="410" y="1024" width="100" height="100" fill="white" fill-opacity="0.9"/>
<rect x="512" y="1024" width="100" height="100" fill="white" fill-opacity="0.9"/>
<rect x="614" y="1024" width="100" height="100" fill="white" fill-opacity="0.9"/>
<rect x="716" y="1024" width="100" height="100" fill="white" fill-opacity="0.9"/>
<rect x="2" y="922" width="100" height="100" fill="white" fill-opacity="0.9"/>
<rect x="104" y="922" width="100" height="100" fill="white" fill-opacity="0.9"/>
<rect x="206" y="922" width="100" height="100" fill="white" fill-opacity="0.9"/>
<rect x="308" y="922" width="100" height="100" fill="white" fill-opacity="0.9"/>
<rect x="818" y="922" width="100" height="100" fill="white" fill-opacity="0.9"/>
<rect x="920" y="922" width="100" height="100" fill="white" fill-opacity="0.9"/>
<rect x="1022" y="922" width="100" height="100" fill="white" fill-opacity="0.9"/>
<rect x="1124" y="922" width="100" height="100" fill="white" fill-opacity="0.9"/>
<rect x="1532" y="106" width="100" height="100" fill="white" fill-opacity="0.9"/>
<rect x="1634" y="106" width="100" height="100" fill="white" fill-opacity="0.9"/>
<rect x="1736" y="106" width="100" height="100" fill="white" fill-opacity="0.9"/>
<rect x="1532" y="208" width="100" height="100" fill="white" fill-opacity="0.9"/>
<rect x="1634" y="208" width="100" height="100" fill="white" fill-opacity="0.9"/>
<rect x="1736" y="208" width="100" height="100" fill="white" fill-opacity="0.9"/>
<rect x="1532" y="310" width="100" height="100" fill="white" fill-opacity="0.9"/>
<rect x="1634" y="310" width="100" height="100" fill="white" fill-opacity="0.9"/>
<rect x="1736" y="310" width="100" height="100" fill="white" fill-opacity="0.9"/>
<rect x="1532" y="412" width="100" height="100" fill="white" fill-opacity="0.9"/>
<rect x="1634" y="412" width="100" height="100" fill="white" fill-opacity="0.9"/>
<rect x="1736" y="412" width="100" height="100" fill="white" fill-opacity="0.9"/>
<rect x="1533" y="514" width="100" height="100" fill="white" fill-opacity="0.9"/>
<rect x="1635" y="514" width="100" height="100" fill="white" fill-opacity="0.9"/>
<rect x="1737" y="514" width="100" height="100" fill="white" fill-opacity="0.9"/>
<rect x="1533" y="616" width="100" height="100" fill="white" fill-opacity="0.9"/>
<rect x="1635" y="616" width="100" height="100" fill="white" fill-opacity="0.9"/>
<rect x="1737" y="616" width="100" height="100" fill="white" fill-opacity="0.9"/>
<rect x="1533" y="718" width="100" height="100" fill="white" fill-opacity="0.9"/>
<rect x="1635" y="718" width="100" height="100" fill="white" fill-opacity="0.9"/>
<rect x="1737" y="718" width="100" height="100" fill="white" fill-opacity="0.9"/>
<rect x="1533" y="820" width="100" height="100" fill="white" fill-opacity="0.9"/>
<rect x="1635" y="820" width="100" height="100" fill="white" fill-opacity="0.9"/>
<rect x="1737" y="820" width="100" height="100" fill="white" fill-opacity="0.9"/>
<rect x="1533" y="1024" width="100" height="100" fill="white" fill-opacity="0.9"/>
<rect x="1635" y="1024" width="100" height="100" fill="white" fill-opacity="0.9"/>
<rect x="1737" y="1024" width="100" height="100" fill="white" fill-opacity="0.9"/>
<rect x="1533" y="922" width="100" height="100" fill="white" fill-opacity="0.9"/>
<rect x="1635" y="922" width="100" height="100" fill="white" fill-opacity="0.9"/>
<rect x="1737" y="922" width="100" height="100" fill="white" fill-opacity="0.9"/>
<rect x="1839" y="106" width="100" height="100" fill="white" fill-opacity="0.9"/>
<rect x="1839" y="208" width="100" height="100" fill="white" fill-opacity="0.9"/>
<rect x="1839" y="310" width="100" height="100" fill="white" fill-opacity="0.9"/>
<rect x="1839" y="412" width="100" height="100" fill="white" fill-opacity="0.9"/>
<rect x="1840" y="514" width="100" height="100" fill="white" fill-opacity="0.9"/>
<rect x="1840" y="616" width="100" height="100" fill="white" fill-opacity="0.9"/>
<rect x="1840" y="718" width="100" height="100" fill="white" fill-opacity="0.9"/>
<rect x="1840" y="820" width="100" height="100" fill="white" fill-opacity="0.9"/>
<rect x="1840" y="1024" width="100" height="100" fill="white" fill-opacity="0.9"/>
<rect x="1840" y="922" width="100" height="100" fill="white" fill-opacity="0.9"/>
<rect x="1225" y="106" width="100" height="100" fill="white" fill-opacity="0.9"/>
<rect x="1327" y="106" width="100" height="100" fill="white" fill-opacity="0.9"/>
<rect x="1429" y="106" width="100" height="100" fill="white" fill-opacity="0.9"/>
<rect x="1225" y="208" width="100" height="100" fill="white" fill-opacity="0.9"/>
<rect x="1327" y="208" width="100" height="100" fill="white" fill-opacity="0.9"/>
<rect x="1429" y="208" width="100" height="100" fill="white" fill-opacity="0.9"/>
<rect x="1225" y="310" width="100" height="100" fill="white" fill-opacity="0.9"/>
<rect x="1327" y="310" width="100" height="100" fill="white" fill-opacity="0.9"/>
<rect x="1429" y="310" width="100" height="100" fill="white" fill-opacity="0.9"/>
<rect x="1225" y="412" width="100" height="100" fill="white" fill-opacity="0.9"/>
<rect x="1327" y="412" width="100" height="100" fill="white" fill-opacity="0.9"/>
<rect x="1429" y="412" width="100" height="100" fill="white" fill-opacity="0.9"/>
<rect x="1226" y="514" width="100" height="100" fill="white" fill-opacity="0.9"/>
<rect x="1328" y="514" width="100" height="100" fill="white" fill-opacity="0.9"/>
<rect x="1430" y="514" width="100" height="100" fill="white" fill-opacity="0.9"/>
<rect x="1226" y="616" width="100" height="100" fill="white" fill-opacity="0.9"/>
<rect x="1328" y="616" width="100" height="100" fill="white" fill-opacity="0.9"/>
<rect x="1430" y="616" width="100" height="100" fill="white" fill-opacity="0.9"/>
<rect x="1226" y="718" width="100" height="100" fill="white" fill-opacity="0.9"/>
<rect x="1328" y="718" width="100" height="100" fill="white" fill-opacity="0.9"/>
<rect x="1430" y="718" width="100" height="100" fill="white" fill-opacity="0.9"/>
<rect x="1226" y="820" width="100" height="100" fill="white" fill-opacity="0.9"/>
<rect x="1328" y="820" width="100" height="100" fill="white" fill-opacity="0.9"/>
<rect x="1430" y="820" width="100" height="100" fill="white" fill-opacity="0.9"/>
<rect x="1226" y="1024" width="100" height="100" fill="white" fill-opacity="0.9"/>
<rect x="1328" y="1024" width="100" height="100" fill="white" fill-opacity="0.9"/>
<rect x="1430" y="1024" width="100" height="100" fill="white" fill-opacity="0.9"/>
<rect x="1" y="1103" width="100" height="100" fill="white" fill-opacity="0.9"/>
<rect x="103" y="1103" width="100" height="100" fill="white" fill-opacity="0.9"/>
<rect x="205" y="1103" width="100" height="100" fill="white" fill-opacity="0.9"/>
<rect x="307" y="1103" width="100" height="100" fill="white" fill-opacity="0.9"/>
<rect x="817" y="1103" width="100" height="100" fill="white" fill-opacity="0.9"/>
<rect x="919" y="1103" width="100" height="100" fill="white" fill-opacity="0.9"/>
<rect x="1021" y="1103" width="100" height="100" fill="white" fill-opacity="0.9"/>
<rect x="1123" y="1103" width="100" height="100" fill="white" fill-opacity="0.9"/>
<rect x="409" y="1103" width="100" height="100" fill="white" fill-opacity="0.9"/>
<rect x="511" y="1103" width="100" height="100" fill="white" fill-opacity="0.9"/>
<rect x="613" y="1103" width="100" height="100" fill="white" fill-opacity="0.9"/>
<rect x="715" y="1103" width="100" height="100" fill="white" fill-opacity="0.9"/>
<rect x="1531" y="1103" width="100" height="100" fill="white" fill-opacity="0.9"/>
<rect x="1633" y="1103" width="100" height="100" fill="white" fill-opacity="0.9"/>
<rect x="1735" y="1103" width="100" height="100" fill="white" fill-opacity="0.9"/>
<rect x="1837" y="1103" width="100" height="100" fill="white" fill-opacity="0.9"/>
<rect x="1225" y="1103" width="100" height="100" fill="white" fill-opacity="0.9"/>
<rect x="1327" y="1103" width="100" height="100" fill="white" fill-opacity="0.9"/>
<rect x="1429" y="1103" width="100" height="100" fill="white" fill-opacity="0.9"/>
<rect x="1226" y="922" width="100" height="100" fill="white" fill-opacity="0.9"/>
<rect x="1328" y="922" width="100" height="100" fill="white" fill-opacity="0.9"/>
<rect x="1430" y="922" width="100" height="100" fill="white" fill-opacity="0.9"/>
<rect x="410" y="922" width="100" height="100" fill="white" fill-opacity="0.9"/>
<rect x="512" y="922" width="100" height="100" fill="white" fill-opacity="0.9"/>
<rect x="614" y="922" width="100" height="100" fill="white" fill-opacity="0.9"/>
<rect x="716" y="922" width="100" height="100" fill="white" fill-opacity="0.9"/>
<path d="M25.4307 158.5C95.973 158.5 153.361 215.246 153.361 285C153.361 354.754 95.973 411.5 25.4307 411.5C-45.1118 411.5 -102.5 354.754 -102.5 285C-102.5 215.271 -45.1117 158.5 25.4307 158.5ZM25.4307 161.771C-43.275 161.771 -99.2041 217.062 -99.2041 285C-99.2041 352.964 -43.3006 408.229 25.4307 408.229C94.1363 408.228 150.039 352.964 150.039 285C150.039 217.036 94.1363 161.772 25.4307 161.771Z" fill="black" stroke="black"/>
<path d="M25.4297 172.391C88.2232 172.391 139.32 222.921 139.32 285.001C139.32 347.081 88.2233 397.611 25.4297 397.611C-37.3892 397.637 -88.4609 347.107 -88.4609 285.001C-88.4608 222.921 -37.3639 172.391 25.4297 172.391ZM25.4297 175.637C-35.5525 175.662 -85.1649 224.711 -85.165 285.001C-85.165 345.316 -35.5528 394.365 25.4297 394.365C86.4122 394.365 136.024 345.316 136.024 285.001C136.024 224.686 86.4121 175.637 25.4297 175.637Z" fill="black" stroke="black"/>
<path d="M25.4307 186.255C80.5011 186.255 125.308 230.57 125.308 285.002C125.307 339.434 80.5265 383.748 25.4307 383.748C-29.6396 383.748 -74.4451 339.459 -74.4453 285.002C-74.4453 230.57 -29.6396 186.255 25.4307 186.255ZM25.4307 189.526C-27.8029 189.527 -71.123 232.36 -71.123 285.002C-71.1229 337.669 -27.8027 380.476 25.4307 380.477C78.6643 380.477 121.985 337.644 121.985 285.002C121.985 232.335 78.6643 189.526 25.4307 189.526Z" fill="black" stroke="black"/>
<path d="M25.4258 200.116C72.7474 200.116 111.263 238.189 111.263 284.999C111.263 331.783 72.7728 369.882 25.4258 369.882C-21.9211 369.882 -60.4102 331.809 -60.4102 284.999C-60.4101 238.215 -21.921 200.116 25.4258 200.116ZM25.4258 203.388C-20.0845 203.388 -57.1142 240.006 -57.1143 284.999C-57.1143 329.993 -20.0845 366.61 25.4258 366.61C70.9362 366.61 107.966 330.018 107.966 284.999C107.966 240.005 70.9362 203.388 25.4258 203.388Z" fill="black" stroke="black"/>
<path d="M25.4336 214.007C65.0316 214.007 97.2293 245.864 97.2295 285C97.2295 324.136 65.0317 355.994 25.4336 355.994H25.4326C-14.165 356.019 -46.3633 324.136 -46.3633 285C-46.3631 245.864 -14.1646 214.007 25.4336 214.007ZM25.4326 217.253C-12.3284 217.279 -43.0662 247.655 -43.0664 285C-43.0664 322.371 -12.3281 352.748 25.4336 352.748C63.1951 352.748 93.9336 322.371 93.9336 285C93.9334 247.655 63.1951 217.253 25.4336 217.253H25.4326Z" fill="black" stroke="black"/>
<path d="M25.4346 227.87C57.2842 227.87 83.2168 253.512 83.2168 285C83.2167 316.488 57.3095 342.129 25.4346 342.129C-6.44056 342.129 -32.3475 316.513 -32.3477 285C-32.3477 253.512 -6.4405 227.87 25.4346 227.87ZM25.4346 231.142C-4.60403 231.142 -29.0254 255.303 -29.0254 285C-29.0252 314.697 -4.57821 338.857 25.4346 338.857C55.473 338.857 79.8944 314.697 79.8945 285C79.8945 255.277 55.4472 231.142 25.4346 231.142Z" fill="black" stroke="black"/>
<path d="M1002.36 972H935.64C916.488 972 901 956.536 901 937.5C901 918.425 916.527 903 935.64 903H1002.36C1021.51 903 1037 918.464 1037 937.5C1037 956.575 1021.51 972 1002.36 972Z" stroke="black" stroke-width="32.6849" stroke-miterlimit="10"/>
</g>
<rect width="1938" height="100" transform="translate(1 8)" fill="#F5F5F5"/>
<rect x="1" y="8" width="100" height="100" fill="white" fill-opacity="0.9"/>
<rect x="103" y="8" width="100" height="100" fill="white" fill-opacity="0.9"/>
<rect x="205" y="8" width="100" height="100" fill="white" fill-opacity="0.9"/>
<rect x="307" y="8" width="100" height="100" fill="white" fill-opacity="0.9"/>
<rect x="817" y="8" width="100" height="100" fill="white" fill-opacity="0.9"/>
<rect x="919" y="8" width="100" height="100" fill="white" fill-opacity="0.9"/>
<rect x="1021" y="8" width="100" height="100" fill="white" fill-opacity="0.9"/>
<rect x="1123" y="8" width="100" height="100" fill="white" fill-opacity="0.9"/>
<rect x="409" y="8" width="100" height="100" fill="white" fill-opacity="0.9"/>
<rect x="511" y="8" width="100" height="100" fill="white" fill-opacity="0.9"/>
<rect x="613" y="8" width="100" height="100" fill="white" fill-opacity="0.9"/>
<rect x="715" y="8" width="100" height="100" fill="white" fill-opacity="0.9"/>
<rect x="1532" y="8" width="100" height="100" fill="white" fill-opacity="0.9"/>
<rect x="1634" y="8" width="100" height="100" fill="white" fill-opacity="0.9"/>
<rect x="1736" y="8" width="100" height="100" fill="white" fill-opacity="0.9"/>
<rect x="1839" y="8" width="100" height="100" fill="white" fill-opacity="0.9"/>
<rect x="1225" y="8" width="100" height="100" fill="white" fill-opacity="0.9"/>
<rect x="1327" y="8" width="100" height="100" fill="white" fill-opacity="0.9"/>
<rect x="1429" y="8" width="100" height="100" fill="white" fill-opacity="0.9"/>
<g filter="url(#filter2_f_1050_2745)">
<rect x="13" y="-136" width="1920" height="242" fill="white"/>
</g>
<path d="M709.98 21.2481L709.98 9.12012L419.853 9.1201L419.853 21.2481L709.98 21.2481Z" fill="black"/>
<path d="M709.98 47.3604L709.98 35.2324L419.853 35.2324L419.853 47.3604L709.98 47.3604Z" fill="black"/>
<path d="M709.98 73.4805L709.98 61.3525L419.853 61.3525L419.853 73.4805L709.98 73.4805Z" fill="black"/>
<path d="M709.98 99.6016L709.98 87.4736L419.853 87.4736L419.853 99.6016L709.98 99.6016Z" fill="black"/>
<path d="M709.98 125.722L709.98 113.594L419.853 113.594L419.853 125.722L709.98 125.722Z" fill="black"/>
<path d="M709.98 151.834L709.98 139.706L419.853 139.706L419.853 151.834L709.98 151.834Z" fill="black"/>
<rect x="-1" y="1203" width="100" height="100" fill="white" fill-opacity="0.9"/>
<rect x="101" y="1203" width="100" height="100" fill="white" fill-opacity="0.9"/>
<rect x="203" y="1203" width="100" height="100" fill="white" fill-opacity="0.9"/>
<rect x="305" y="1203" width="100" height="100" fill="white" fill-opacity="0.9"/>
<rect x="815" y="1203" width="100" height="100" fill="white" fill-opacity="0.9"/>
<rect x="917" y="1203" width="100" height="100" fill="white" fill-opacity="0.9"/>
<rect x="1019" y="1203" width="100" height="100" fill="white" fill-opacity="0.9"/>
<rect x="1121" y="1203" width="100" height="100" fill="white" fill-opacity="0.9"/>
<rect x="407" y="1203" width="100" height="100" fill="white" fill-opacity="0.9"/>
<rect x="509" y="1203" width="100" height="100" fill="white" fill-opacity="0.9"/>
<rect x="611" y="1203" width="100" height="100" fill="white" fill-opacity="0.9"/>
<rect x="713" y="1203" width="100" height="100" fill="white" fill-opacity="0.9"/>
<rect x="1530" y="1203" width="100" height="100" fill="white" fill-opacity="0.9"/>
<rect x="1632" y="1203" width="100" height="100" fill="white" fill-opacity="0.9"/>
<rect x="1734" y="1203" width="100" height="100" fill="white" fill-opacity="0.9"/>
<rect x="1837" y="1203" width="100" height="100" fill="white" fill-opacity="0.9"/>
<rect x="1223" y="1203" width="100" height="100" fill="white" fill-opacity="0.9"/>
<rect x="1325" y="1203" width="100" height="100" fill="white" fill-opacity="0.9"/>
<rect x="1427" y="1203" width="100" height="100" fill="white" fill-opacity="0.9"/>
<path d="M1823 73L1779.49 73L1743.72 132L1779.49 191L1823 191L1787.24 132L1823 73Z" fill="black"/>
<path d="M1714.62 73L1758.14 73L1722.38 132L1758.14 191L1714.62 191L1678.86 132L1714.62 73Z" fill="black"/>
<path d="M1649.76 73L1693.28 73L1657.51 132L1693.28 191L1649.76 191L1614 132L1649.76 73Z" fill="black"/>
</g>
<defs>
<filter id="filter0_f_1050_2745" x="-201" y="882" width="2320" height="642" filterUnits="userSpaceOnUse" color-interpolation-filters="sRGB">
<feFlood flood-opacity="0" result="BackgroundImageFix"/>
<feBlend mode="normal" in="SourceGraphic" in2="BackgroundImageFix" result="shape"/>
<feGaussianBlur stdDeviation="100" result="effect1_foregroundBlur_1050_2745"/>
</filter>
<filter id="filter1_f_1050_2745" x="-200" y="1003" width="2320" height="642" filterUnits="userSpaceOnUse" color-interpolation-filters="sRGB">
<feFlood flood-opacity="0" result="BackgroundImageFix"/>
<feBlend mode="normal" in="SourceGraphic" in2="BackgroundImageFix" result="shape"/>
<feGaussianBlur stdDeviation="100" result="effect1_foregroundBlur_1050_2745"/>
</filter>
<filter id="filter2_f_1050_2745" x="-187" y="-336" width="2320" height="642" filterUnits="userSpaceOnUse" color-interpolation-filters="sRGB">
<feFlood flood-opacity="0" result="BackgroundImageFix"/>
<feBlend mode="normal" in="SourceGraphic" in2="BackgroundImageFix" result="shape"/>
<feGaussianBlur stdDeviation="100" result="effect1_foregroundBlur_1050_2745"/>
</filter>
<clipPath id="clip0_1050_2745">
<rect width="1920" height="1350" fill="white"/>
</clipPath>
<clipPath id="clip1_1050_2745">
<rect width="1938" height="1018" fill="white" transform="translate(1 106)"/>
</clipPath>
</defs>
</svg>
