<svg width="1920" height="980" viewBox="0 0 1920 980" fill="none" xmlns="http://www.w3.org/2000/svg">
<g clip-path="url(#clip0_1077_3606)">
<rect width="1920" height="980" fill="white"/>
<rect width="1938" height="1018" fill="#F5F5F5"/>
<rect width="100" height="100" fill="white" fill-opacity="0.9"/>
<rect x="102" width="100" height="100" fill="white" fill-opacity="0.9"/>
<rect x="204" width="100" height="100" fill="white" fill-opacity="0.9"/>
<rect x="306" width="100" height="100" fill="white" fill-opacity="0.9"/>
<rect y="102" width="100" height="100" fill="white" fill-opacity="0.9"/>
<rect x="102" y="102" width="100" height="100" fill="white" fill-opacity="0.9"/>
<rect x="204" y="102" width="100" height="100" fill="white" fill-opacity="0.9"/>
<rect x="306" y="102" width="100" height="100" fill="white" fill-opacity="0.9"/>
<rect x="816" width="100" height="100" fill="white" fill-opacity="0.9"/>
<rect x="918" width="100" height="100" fill="white" fill-opacity="0.9"/>
<rect x="1020" width="100" height="100" fill="white" fill-opacity="0.9"/>
<rect x="1122" width="100" height="100" fill="white" fill-opacity="0.9"/>
<rect x="816" y="102" width="100" height="100" fill="white" fill-opacity="0.9"/>
<rect x="918" y="102" width="100" height="100" fill="white" fill-opacity="0.9"/>
<rect x="1020" y="102" width="100" height="100" fill="white" fill-opacity="0.9"/>
<rect x="1122" y="102" width="100" height="100" fill="white" fill-opacity="0.9"/>
<rect x="408" width="100" height="100" fill="white" fill-opacity="0.9"/>
<rect x="510" width="100" height="100" fill="white" fill-opacity="0.9"/>
<rect x="612" width="100" height="100" fill="white" fill-opacity="0.9"/>
<rect x="714" width="100" height="100" fill="white" fill-opacity="0.9"/>
<rect x="408" y="102" width="100" height="100" fill="white" fill-opacity="0.9"/>
<rect x="510" y="102" width="100" height="100" fill="white" fill-opacity="0.9"/>
<rect x="612" y="102" width="100" height="100" fill="white" fill-opacity="0.9"/>
<rect x="714" y="102" width="100" height="100" fill="white" fill-opacity="0.9"/>
<rect y="204" width="100" height="100" fill="white" fill-opacity="0.9"/>
<rect x="102" y="204" width="100" height="100" fill="white" fill-opacity="0.9"/>
<rect x="204" y="204" width="100" height="100" fill="white" fill-opacity="0.9"/>
<rect x="306" y="204" width="100" height="100" fill="white" fill-opacity="0.9"/>
<rect y="306" width="100" height="100" fill="white" fill-opacity="0.9"/>
<rect x="102" y="306" width="100" height="100" fill="white" fill-opacity="0.9"/>
<rect x="204" y="306" width="100" height="100" fill="white" fill-opacity="0.9"/>
<rect x="306" y="306" width="100" height="100" fill="white" fill-opacity="0.9"/>
<rect x="816" y="204" width="100" height="100" fill="white" fill-opacity="0.9"/>
<rect x="918" y="204" width="100" height="100" fill="white" fill-opacity="0.9"/>
<rect x="1020" y="204" width="100" height="100" fill="white" fill-opacity="0.9"/>
<rect x="1122" y="204" width="100" height="100" fill="white" fill-opacity="0.9"/>
<rect x="816" y="306" width="100" height="100" fill="white" fill-opacity="0.9"/>
<rect x="918" y="306" width="100" height="100" fill="white" fill-opacity="0.9"/>
<rect x="1020" y="306" width="100" height="100" fill="white" fill-opacity="0.9"/>
<rect x="1122" y="306" width="100" height="100" fill="white" fill-opacity="0.9"/>
<rect x="408" y="204" width="100" height="100" fill="white" fill-opacity="0.9"/>
<rect x="510" y="204" width="100" height="100" fill="white" fill-opacity="0.9"/>
<rect x="612" y="204" width="100" height="100" fill="white" fill-opacity="0.9"/>
<rect x="714" y="204" width="100" height="100" fill="white" fill-opacity="0.9"/>
<rect x="408" y="306" width="100" height="100" fill="white" fill-opacity="0.9"/>
<rect x="510" y="306" width="100" height="100" fill="white" fill-opacity="0.9"/>
<rect x="612" y="306" width="100" height="100" fill="white" fill-opacity="0.9"/>
<rect x="714" y="306" width="100" height="100" fill="white" fill-opacity="0.9"/>
<rect x="1" y="408" width="100" height="100" fill="white" fill-opacity="0.9"/>
<rect x="103" y="408" width="100" height="100" fill="white" fill-opacity="0.9"/>
<rect x="205" y="408" width="100" height="100" fill="white" fill-opacity="0.9"/>
<rect x="307" y="408" width="100" height="100" fill="white" fill-opacity="0.9"/>
<rect x="1" y="510" width="100" height="100" fill="white" fill-opacity="0.9"/>
<rect x="103" y="510" width="100" height="100" fill="white" fill-opacity="0.9"/>
<rect x="205" y="510" width="100" height="100" fill="white" fill-opacity="0.9"/>
<rect x="307" y="510" width="100" height="100" fill="white" fill-opacity="0.9"/>
<rect x="817" y="408" width="100" height="100" fill="white" fill-opacity="0.9"/>
<rect x="919" y="408" width="100" height="100" fill="white" fill-opacity="0.9"/>
<rect x="1021" y="408" width="100" height="100" fill="white" fill-opacity="0.9"/>
<rect x="1123" y="408" width="100" height="100" fill="white" fill-opacity="0.9"/>
<rect x="817" y="510" width="100" height="100" fill="white" fill-opacity="0.9"/>
<rect x="919" y="510" width="100" height="100" fill="white" fill-opacity="0.9"/>
<rect x="1021" y="510" width="100" height="100" fill="white" fill-opacity="0.9"/>
<rect x="1123" y="510" width="100" height="100" fill="white" fill-opacity="0.9"/>
<rect x="409" y="408" width="100" height="100" fill="white" fill-opacity="0.9"/>
<rect x="511" y="408" width="100" height="100" fill="white" fill-opacity="0.9"/>
<rect x="613" y="408" width="100" height="100" fill="white" fill-opacity="0.9"/>
<rect x="715" y="408" width="100" height="100" fill="white" fill-opacity="0.9"/>
<rect x="409" y="510" width="100" height="100" fill="white" fill-opacity="0.9"/>
<rect x="511" y="510" width="100" height="100" fill="white" fill-opacity="0.9"/>
<rect x="613" y="510" width="100" height="100" fill="white" fill-opacity="0.9"/>
<rect x="715" y="510" width="100" height="100" fill="white" fill-opacity="0.9"/>
<rect x="1" y="612" width="100" height="100" fill="white" fill-opacity="0.9"/>
<rect x="103" y="612" width="100" height="100" fill="white" fill-opacity="0.9"/>
<rect x="205" y="612" width="100" height="100" fill="white" fill-opacity="0.9"/>
<rect x="307" y="612" width="100" height="100" fill="white" fill-opacity="0.9"/>
<rect x="1" y="714" width="100" height="100" fill="white" fill-opacity="0.9"/>
<rect x="103" y="714" width="100" height="100" fill="white" fill-opacity="0.9"/>
<rect x="205" y="714" width="100" height="100" fill="white" fill-opacity="0.9"/>
<rect x="307" y="714" width="100" height="100" fill="white" fill-opacity="0.9"/>
<rect x="817" y="612" width="100" height="100" fill="white" fill-opacity="0.9"/>
<rect x="919" y="612" width="100" height="100" fill="white" fill-opacity="0.9"/>
<rect x="1021" y="612" width="100" height="100" fill="white" fill-opacity="0.9"/>
<rect x="1123" y="612" width="100" height="100" fill="white" fill-opacity="0.9"/>
<rect x="817" y="714" width="100" height="100" fill="white" fill-opacity="0.9"/>
<rect x="919" y="714" width="100" height="100" fill="white" fill-opacity="0.9"/>
<rect x="1021" y="714" width="100" height="100" fill="white" fill-opacity="0.9"/>
<rect x="1123" y="714" width="100" height="100" fill="white" fill-opacity="0.9"/>
<rect x="409" y="612" width="100" height="100" fill="white" fill-opacity="0.9"/>
<rect x="511" y="612" width="100" height="100" fill="white" fill-opacity="0.9"/>
<rect x="613" y="612" width="100" height="100" fill="white" fill-opacity="0.9"/>
<rect x="715" y="612" width="100" height="100" fill="white" fill-opacity="0.9"/>
<rect x="409" y="714" width="100" height="100" fill="white" fill-opacity="0.9"/>
<rect x="511" y="714" width="100" height="100" fill="white" fill-opacity="0.9"/>
<rect x="613" y="714" width="100" height="100" fill="white" fill-opacity="0.9"/>
<rect x="715" y="714" width="100" height="100" fill="white" fill-opacity="0.9"/>
<rect x="1" y="918" width="100" height="100" fill="white" fill-opacity="0.9"/>
<rect x="103" y="918" width="100" height="100" fill="white" fill-opacity="0.9"/>
<rect x="205" y="918" width="100" height="100" fill="white" fill-opacity="0.9"/>
<rect x="307" y="918" width="100" height="100" fill="white" fill-opacity="0.9"/>
<rect x="817" y="918" width="100" height="100" fill="white" fill-opacity="0.9"/>
<rect x="919" y="918" width="100" height="100" fill="white" fill-opacity="0.9"/>
<rect x="1021" y="918" width="100" height="100" fill="white" fill-opacity="0.9"/>
<rect x="1123" y="918" width="100" height="100" fill="white" fill-opacity="0.9"/>
<rect x="409" y="918" width="100" height="100" fill="white" fill-opacity="0.9"/>
<rect x="511" y="918" width="100" height="100" fill="white" fill-opacity="0.9"/>
<rect x="613" y="918" width="100" height="100" fill="white" fill-opacity="0.9"/>
<rect x="715" y="918" width="100" height="100" fill="white" fill-opacity="0.9"/>
<rect x="1" y="816" width="100" height="100" fill="white" fill-opacity="0.9"/>
<rect x="103" y="816" width="100" height="100" fill="white" fill-opacity="0.9"/>
<rect x="205" y="816" width="100" height="100" fill="white" fill-opacity="0.9"/>
<rect x="307" y="816" width="100" height="100" fill="white" fill-opacity="0.9"/>
<rect x="817" y="816" width="100" height="100" fill="white" fill-opacity="0.9"/>
<rect x="919" y="816" width="100" height="100" fill="white" fill-opacity="0.9"/>
<rect x="1021" y="816" width="100" height="100" fill="white" fill-opacity="0.9"/>
<rect x="1123" y="816" width="100" height="100" fill="white" fill-opacity="0.9"/>
<rect x="1531" width="100" height="100" fill="white" fill-opacity="0.9"/>
<rect x="1633" width="100" height="100" fill="white" fill-opacity="0.9"/>
<rect x="1735" width="100" height="100" fill="white" fill-opacity="0.9"/>
<rect x="1531" y="102" width="100" height="100" fill="white" fill-opacity="0.9"/>
<rect x="1633" y="102" width="100" height="100" fill="white" fill-opacity="0.9"/>
<rect x="1735" y="102" width="100" height="100" fill="white" fill-opacity="0.9"/>
<rect x="1531" y="204" width="100" height="100" fill="white" fill-opacity="0.9"/>
<rect x="1633" y="204" width="100" height="100" fill="white" fill-opacity="0.9"/>
<rect x="1735" y="204" width="100" height="100" fill="white" fill-opacity="0.9"/>
<rect x="1531" y="306" width="100" height="100" fill="white" fill-opacity="0.9"/>
<rect x="1633" y="306" width="100" height="100" fill="white" fill-opacity="0.9"/>
<rect x="1735" y="306" width="100" height="100" fill="white" fill-opacity="0.9"/>
<rect x="1532" y="408" width="100" height="100" fill="white" fill-opacity="0.9"/>
<rect x="1634" y="408" width="100" height="100" fill="white" fill-opacity="0.9"/>
<rect x="1736" y="408" width="100" height="100" fill="white" fill-opacity="0.9"/>
<rect x="1532" y="510" width="100" height="100" fill="white" fill-opacity="0.9"/>
<rect x="1634" y="510" width="100" height="100" fill="white" fill-opacity="0.9"/>
<rect x="1736" y="510" width="100" height="100" fill="white" fill-opacity="0.9"/>
<rect x="1532" y="612" width="100" height="100" fill="white" fill-opacity="0.9"/>
<rect x="1634" y="612" width="100" height="100" fill="white" fill-opacity="0.9"/>
<rect x="1736" y="612" width="100" height="100" fill="white" fill-opacity="0.9"/>
<rect x="1532" y="714" width="100" height="100" fill="white" fill-opacity="0.9"/>
<rect x="1634" y="714" width="100" height="100" fill="white" fill-opacity="0.9"/>
<rect x="1736" y="714" width="100" height="100" fill="white" fill-opacity="0.9"/>
<rect x="1532" y="918" width="100" height="100" fill="white" fill-opacity="0.9"/>
<rect x="1634" y="918" width="100" height="100" fill="white" fill-opacity="0.9"/>
<rect x="1736" y="918" width="100" height="100" fill="white" fill-opacity="0.9"/>
<rect x="1532" y="816" width="100" height="100" fill="white" fill-opacity="0.9"/>
<rect x="1634" y="816" width="100" height="100" fill="white" fill-opacity="0.9"/>
<rect x="1736" y="816" width="100" height="100" fill="white" fill-opacity="0.9"/>
<rect x="1838" width="100" height="100" fill="white" fill-opacity="0.9"/>
<rect x="1838" y="102" width="100" height="100" fill="white" fill-opacity="0.9"/>
<rect x="1838" y="204" width="100" height="100" fill="white" fill-opacity="0.9"/>
<rect x="1838" y="306" width="100" height="100" fill="white" fill-opacity="0.9"/>
<rect x="1839" y="408" width="100" height="100" fill="white" fill-opacity="0.9"/>
<rect x="1839" y="510" width="100" height="100" fill="white" fill-opacity="0.9"/>
<rect x="1839" y="612" width="100" height="100" fill="white" fill-opacity="0.9"/>
<rect x="1839" y="714" width="100" height="100" fill="white" fill-opacity="0.9"/>
<rect x="1839" y="918" width="100" height="100" fill="white" fill-opacity="0.9"/>
<rect x="1839" y="816" width="100" height="100" fill="white" fill-opacity="0.9"/>
<rect x="1224" width="100" height="100" fill="white" fill-opacity="0.9"/>
<rect x="1326" width="100" height="100" fill="white" fill-opacity="0.9"/>
<rect x="1428" width="100" height="100" fill="white" fill-opacity="0.9"/>
<rect x="1224" y="102" width="100" height="100" fill="white" fill-opacity="0.9"/>
<rect x="1326" y="102" width="100" height="100" fill="white" fill-opacity="0.9"/>
<rect x="1428" y="102" width="100" height="100" fill="white" fill-opacity="0.9"/>
<rect x="1224" y="204" width="100" height="100" fill="white" fill-opacity="0.9"/>
<rect x="1326" y="204" width="100" height="100" fill="white" fill-opacity="0.9"/>
<rect x="1428" y="204" width="100" height="100" fill="white" fill-opacity="0.9"/>
<rect x="1224" y="306" width="100" height="100" fill="white" fill-opacity="0.9"/>
<rect x="1326" y="306" width="100" height="100" fill="white" fill-opacity="0.9"/>
<rect x="1428" y="306" width="100" height="100" fill="white" fill-opacity="0.9"/>
<rect x="1225" y="408" width="100" height="100" fill="white" fill-opacity="0.9"/>
<rect x="1327" y="408" width="100" height="100" fill="white" fill-opacity="0.9"/>
<rect x="1429" y="408" width="100" height="100" fill="white" fill-opacity="0.9"/>
<rect x="1225" y="510" width="100" height="100" fill="white" fill-opacity="0.9"/>
<rect x="1327" y="510" width="100" height="100" fill="white" fill-opacity="0.9"/>
<rect x="1429" y="510" width="100" height="100" fill="white" fill-opacity="0.9"/>
<rect x="1225" y="612" width="100" height="100" fill="white" fill-opacity="0.9"/>
<rect x="1327" y="612" width="100" height="100" fill="white" fill-opacity="0.9"/>
<rect x="1429" y="612" width="100" height="100" fill="white" fill-opacity="0.9"/>
<rect x="1225" y="714" width="100" height="100" fill="white" fill-opacity="0.9"/>
<rect x="1327" y="714" width="100" height="100" fill="white" fill-opacity="0.9"/>
<rect x="1429" y="714" width="100" height="100" fill="white" fill-opacity="0.9"/>
<rect x="1225" y="918" width="100" height="100" fill="white" fill-opacity="0.9"/>
<rect x="1327" y="918" width="100" height="100" fill="white" fill-opacity="0.9"/>
<rect x="1429" y="918" width="100" height="100" fill="white" fill-opacity="0.9"/>
<rect x="1225" y="816" width="100" height="100" fill="white" fill-opacity="0.9"/>
<rect x="1327" y="816" width="100" height="100" fill="white" fill-opacity="0.9"/>
<rect x="1429" y="816" width="100" height="100" fill="white" fill-opacity="0.9"/>
<rect x="409" y="816" width="100" height="100" fill="white" fill-opacity="0.9"/>
<rect x="511" y="816" width="100" height="100" fill="white" fill-opacity="0.9"/>
<rect x="613" y="816" width="100" height="100" fill="white" fill-opacity="0.9"/>
<rect x="715" y="816" width="100" height="100" fill="white" fill-opacity="0.9"/>
<g filter="url(#filter0_d_1077_3606)">
<path d="M1554.17 9.30762L1516.48 47L1554.17 84.6924L1524.69 114.172L1487 76.4795L1449.31 114.172L1419.83 84.6924L1457.52 47L1419.83 9.30762L1449.31 -20.1719L1487 17.5205L1524.69 -20.1719L1554.17 9.30762Z" stroke="black" stroke-width="4" shape-rendering="crispEdges"/>
</g>
<g filter="url(#filter1_d_1077_3606)">
<path d="M1667.17 46.3076L1629.48 84L1667.17 121.692L1637.69 151.172L1600 113.479L1562.31 151.172L1532.83 121.692L1570.52 84L1532.83 46.3076L1562.31 16.8281L1600 54.5205L1637.69 16.8281L1667.17 46.3076Z" stroke="black" stroke-width="4" shape-rendering="crispEdges"/>
</g>
<g filter="url(#filter2_d_1077_3606)">
<path d="M1629.17 157.308L1591.48 195L1629.17 232.692L1599.69 262.172L1562 224.479L1524.31 262.172L1494.83 232.692L1532.52 195L1494.83 157.308L1524.31 127.828L1562 165.521L1599.69 127.828L1629.17 157.308Z" stroke="black" stroke-width="4" shape-rendering="crispEdges"/>
</g>
<g filter="url(#filter3_d_1077_3606)">
<path d="M1739.17 195.308L1701.48 233L1739.17 270.692L1709.69 300.172L1672 262.479L1634.31 300.172L1604.83 270.692L1642.52 233L1604.83 195.308L1634.31 165.828L1672 203.521L1709.69 165.828L1739.17 195.308Z" stroke="black" stroke-width="4" shape-rendering="crispEdges"/>
</g>
<g filter="url(#filter4_d_1077_3606)">
<path d="M1706.17 -64.6924L1668.48 -27L1706.17 10.6924L1676.69 40.1719L1639 2.47949L1601.31 40.1719L1571.83 10.6924L1609.52 -27L1571.83 -64.6924L1601.31 -94.1719L1639 -56.4795L1676.69 -94.1719L1706.17 -64.6924Z" stroke="black" stroke-width="4"/>
<path d="M1819.17 -27.6924L1781.48 10L1819.17 47.6924L1789.69 77.1719L1752 39.4795L1714.31 77.1719L1684.83 47.6924L1722.52 10L1684.83 -27.6924L1714.31 -57.1719L1752 -19.4795L1789.69 -57.1719L1819.17 -27.6924Z" stroke="black" stroke-width="4"/>
<path d="M1781.17 83.3076L1743.48 121L1781.17 158.692L1751.69 188.172L1714 150.479L1676.31 188.172L1646.83 158.692L1684.52 121L1646.83 83.3076L1676.31 53.8281L1714 91.5205L1751.69 53.8281L1781.17 83.3076Z" stroke="black" stroke-width="4"/>
<path d="M1891.17 121.308L1853.48 159L1891.17 196.692L1861.69 226.172L1824 188.479L1786.31 226.172L1756.83 196.692L1794.52 159L1756.83 121.308L1786.31 91.8281L1824 129.521L1861.69 91.8281L1891.17 121.308Z" stroke="black" stroke-width="4"/>
</g>
<g filter="url(#filter5_d_1077_3606)">
<path d="M1930.17 9.30762L1892.48 47L1930.17 84.6924L1900.69 114.172L1863 76.4795L1825.31 114.172L1795.83 84.6924L1833.52 47L1795.83 9.30762L1825.31 -20.1719L1863 17.5205L1900.69 -20.1719L1930.17 9.30762Z" stroke="black" stroke-width="4" shape-rendering="crispEdges"/>
</g>
<g filter="url(#filter6_d_1077_3606)">
<path d="M2043.17 46.3076L2005.48 84L2043.17 121.692L2013.69 151.172L1976 113.479L1938.31 151.172L1908.83 121.692L1946.52 84L1908.83 46.3076L1938.31 16.8281L1976 54.5205L2013.69 16.8281L2043.17 46.3076Z" stroke="black" stroke-width="4" shape-rendering="crispEdges"/>
</g>
<g filter="url(#filter7_d_1077_3606)">
<path d="M2005.17 157.308L1967.48 195L2005.17 232.692L1975.69 262.172L1938 224.479L1900.31 262.172L1870.83 232.692L1908.52 195L1870.83 157.308L1900.31 127.828L1938 165.521L1975.69 127.828L2005.17 157.308Z" stroke="black" stroke-width="4" shape-rendering="crispEdges"/>
</g>
<g filter="url(#filter8_d_1077_3606)">
<path d="M73.1719 877.308L35.4795 915L73.1719 952.692L43.6924 982.172L6 944.479L-31.6924 982.172L-61.1719 952.692L-23.4795 915L-61.1719 877.308L-31.6924 847.828L6 885.521L43.6924 847.828L73.1719 877.308Z" stroke="black" stroke-width="4" shape-rendering="crispEdges"/>
</g>
<g filter="url(#filter9_d_1077_3606)">
<path d="M35.1719 988.308L-2.52051 1026L35.1719 1063.69L5.69238 1093.17L-32 1055.48L-69.6924 1093.17L-99.1719 1063.69L-61.4795 1026L-99.1719 988.308L-69.6924 958.828L-32 996.521L5.69238 958.828L35.1719 988.308Z" stroke="black" stroke-width="4" shape-rendering="crispEdges"/>
</g>
<g filter="url(#filter10_d_1077_3606)">
<path d="M112.172 766.308L74.4795 804L112.172 841.692L82.6924 871.172L45 833.479L7.30762 871.172L-22.1719 841.692L15.5205 804L-22.1719 766.308L7.30762 736.828L45 774.521L82.6924 736.828L112.172 766.308Z" stroke="black" stroke-width="4"/>
<path d="M225.172 803.308L187.479 841L225.172 878.692L195.692 908.172L158 870.479L120.308 908.172L90.8281 878.692L128.521 841L90.8281 803.308L120.308 773.828L158 811.521L195.692 773.828L225.172 803.308Z" stroke="black" stroke-width="4"/>
<path d="M187.172 914.308L149.479 952L187.172 989.692L157.692 1019.17L120 981.479L82.3076 1019.17L52.8281 989.692L90.5205 952L52.8281 914.308L82.3076 884.828L120 922.521L157.692 884.828L187.172 914.308Z" stroke="black" stroke-width="4"/>
<path d="M297.172 952.308L259.479 990L297.172 1027.69L267.692 1057.17L230 1019.48L192.308 1057.17L162.828 1027.69L200.521 990L162.828 952.308L192.308 922.828L230 960.521L267.692 922.828L297.172 952.308Z" stroke="black" stroke-width="4"/>
</g>
<g filter="url(#filter11_d_1077_3606)">
<path d="M336.172 840.308L298.479 878L336.172 915.692L306.692 945.172L269 907.479L231.308 945.172L201.828 915.692L239.521 878L201.828 840.308L231.308 810.828L269 848.521L306.692 810.828L336.172 840.308Z" stroke="black" stroke-width="4" shape-rendering="crispEdges"/>
</g>
<g filter="url(#filter12_d_1077_3606)">
<path d="M449.172 877.308L411.479 915L449.172 952.692L419.692 982.172L382 944.479L344.308 982.172L314.828 952.692L352.521 915L314.828 877.308L344.308 847.828L382 885.521L419.692 847.828L449.172 877.308Z" stroke="black" stroke-width="4" shape-rendering="crispEdges"/>
</g>
<g filter="url(#filter13_d_1077_3606)">
<path d="M411.172 988.308L373.479 1026L411.172 1063.69L381.692 1093.17L344 1055.48L306.308 1093.17L276.828 1063.69L314.521 1026L276.828 988.308L306.308 958.828L344 996.521L381.692 958.828L411.172 988.308Z" stroke="black" stroke-width="4" shape-rendering="crispEdges"/>
</g>
</g>
<defs>
<filter id="filter0_d_1077_3606" x="1407" y="-29" width="160" height="160" filterUnits="userSpaceOnUse" color-interpolation-filters="sRGB">
<feFlood flood-opacity="0" result="BackgroundImageFix"/>
<feColorMatrix in="SourceAlpha" type="matrix" values="0 0 0 0 0 0 0 0 0 0 0 0 0 0 0 0 0 0 127 0" result="hardAlpha"/>
<feOffset dy="4"/>
<feGaussianBlur stdDeviation="5"/>
<feComposite in2="hardAlpha" operator="out"/>
<feColorMatrix type="matrix" values="0 0 0 0 0 0 0 0 0 0 0 0 0 0 0 0 0 0 0.25 0"/>
<feBlend mode="normal" in2="BackgroundImageFix" result="effect1_dropShadow_1077_3606"/>
<feBlend mode="normal" in="SourceGraphic" in2="effect1_dropShadow_1077_3606" result="shape"/>
</filter>
<filter id="filter1_d_1077_3606" x="1520" y="8" width="160" height="160" filterUnits="userSpaceOnUse" color-interpolation-filters="sRGB">
<feFlood flood-opacity="0" result="BackgroundImageFix"/>
<feColorMatrix in="SourceAlpha" type="matrix" values="0 0 0 0 0 0 0 0 0 0 0 0 0 0 0 0 0 0 127 0" result="hardAlpha"/>
<feOffset dy="4"/>
<feGaussianBlur stdDeviation="5"/>
<feComposite in2="hardAlpha" operator="out"/>
<feColorMatrix type="matrix" values="0 0 0 0 0 0 0 0 0 0 0 0 0 0 0 0 0 0 0.25 0"/>
<feBlend mode="normal" in2="BackgroundImageFix" result="effect1_dropShadow_1077_3606"/>
<feBlend mode="normal" in="SourceGraphic" in2="effect1_dropShadow_1077_3606" result="shape"/>
</filter>
<filter id="filter2_d_1077_3606" x="1482" y="119" width="160" height="160" filterUnits="userSpaceOnUse" color-interpolation-filters="sRGB">
<feFlood flood-opacity="0" result="BackgroundImageFix"/>
<feColorMatrix in="SourceAlpha" type="matrix" values="0 0 0 0 0 0 0 0 0 0 0 0 0 0 0 0 0 0 127 0" result="hardAlpha"/>
<feOffset dy="4"/>
<feGaussianBlur stdDeviation="5"/>
<feComposite in2="hardAlpha" operator="out"/>
<feColorMatrix type="matrix" values="0 0 0 0 0 0 0 0 0 0 0 0 0 0 0 0 0 0 0.25 0"/>
<feBlend mode="normal" in2="BackgroundImageFix" result="effect1_dropShadow_1077_3606"/>
<feBlend mode="normal" in="SourceGraphic" in2="effect1_dropShadow_1077_3606" result="shape"/>
</filter>
<filter id="filter3_d_1077_3606" x="1592" y="157" width="160" height="160" filterUnits="userSpaceOnUse" color-interpolation-filters="sRGB">
<feFlood flood-opacity="0" result="BackgroundImageFix"/>
<feColorMatrix in="SourceAlpha" type="matrix" values="0 0 0 0 0 0 0 0 0 0 0 0 0 0 0 0 0 0 127 0" result="hardAlpha"/>
<feOffset dy="4"/>
<feGaussianBlur stdDeviation="5"/>
<feComposite in2="hardAlpha" operator="out"/>
<feColorMatrix type="matrix" values="0 0 0 0 0 0 0 0 0 0 0 0 0 0 0 0 0 0 0.25 0"/>
<feBlend mode="normal" in2="BackgroundImageFix" result="effect1_dropShadow_1077_3606"/>
<feBlend mode="normal" in="SourceGraphic" in2="effect1_dropShadow_1077_3606" result="shape"/>
</filter>
<filter id="filter4_d_1077_3606" x="1559" y="-103" width="345" height="420" filterUnits="userSpaceOnUse" color-interpolation-filters="sRGB">
<feFlood flood-opacity="0" result="BackgroundImageFix"/>
<feColorMatrix in="SourceAlpha" type="matrix" values="0 0 0 0 0 0 0 0 0 0 0 0 0 0 0 0 0 0 127 0" result="hardAlpha"/>
<feOffset dy="4"/>
<feGaussianBlur stdDeviation="5"/>
<feComposite in2="hardAlpha" operator="out"/>
<feColorMatrix type="matrix" values="0 0 0 0 0 0 0 0 0 0 0 0 0 0 0 0 0 0 0.25 0"/>
<feBlend mode="normal" in2="BackgroundImageFix" result="effect1_dropShadow_1077_3606"/>
<feBlend mode="normal" in="SourceGraphic" in2="effect1_dropShadow_1077_3606" result="shape"/>
</filter>
<filter id="filter5_d_1077_3606" x="1783" y="-29" width="160" height="160" filterUnits="userSpaceOnUse" color-interpolation-filters="sRGB">
<feFlood flood-opacity="0" result="BackgroundImageFix"/>
<feColorMatrix in="SourceAlpha" type="matrix" values="0 0 0 0 0 0 0 0 0 0 0 0 0 0 0 0 0 0 127 0" result="hardAlpha"/>
<feOffset dy="4"/>
<feGaussianBlur stdDeviation="5"/>
<feComposite in2="hardAlpha" operator="out"/>
<feColorMatrix type="matrix" values="0 0 0 0 0 0 0 0 0 0 0 0 0 0 0 0 0 0 0.25 0"/>
<feBlend mode="normal" in2="BackgroundImageFix" result="effect1_dropShadow_1077_3606"/>
<feBlend mode="normal" in="SourceGraphic" in2="effect1_dropShadow_1077_3606" result="shape"/>
</filter>
<filter id="filter6_d_1077_3606" x="1896" y="8" width="160" height="160" filterUnits="userSpaceOnUse" color-interpolation-filters="sRGB">
<feFlood flood-opacity="0" result="BackgroundImageFix"/>
<feColorMatrix in="SourceAlpha" type="matrix" values="0 0 0 0 0 0 0 0 0 0 0 0 0 0 0 0 0 0 127 0" result="hardAlpha"/>
<feOffset dy="4"/>
<feGaussianBlur stdDeviation="5"/>
<feComposite in2="hardAlpha" operator="out"/>
<feColorMatrix type="matrix" values="0 0 0 0 0 0 0 0 0 0 0 0 0 0 0 0 0 0 0.25 0"/>
<feBlend mode="normal" in2="BackgroundImageFix" result="effect1_dropShadow_1077_3606"/>
<feBlend mode="normal" in="SourceGraphic" in2="effect1_dropShadow_1077_3606" result="shape"/>
</filter>
<filter id="filter7_d_1077_3606" x="1858" y="119" width="160" height="160" filterUnits="userSpaceOnUse" color-interpolation-filters="sRGB">
<feFlood flood-opacity="0" result="BackgroundImageFix"/>
<feColorMatrix in="SourceAlpha" type="matrix" values="0 0 0 0 0 0 0 0 0 0 0 0 0 0 0 0 0 0 127 0" result="hardAlpha"/>
<feOffset dy="4"/>
<feGaussianBlur stdDeviation="5"/>
<feComposite in2="hardAlpha" operator="out"/>
<feColorMatrix type="matrix" values="0 0 0 0 0 0 0 0 0 0 0 0 0 0 0 0 0 0 0.25 0"/>
<feBlend mode="normal" in2="BackgroundImageFix" result="effect1_dropShadow_1077_3606"/>
<feBlend mode="normal" in="SourceGraphic" in2="effect1_dropShadow_1077_3606" result="shape"/>
</filter>
<filter id="filter8_d_1077_3606" x="-74" y="839" width="160" height="160" filterUnits="userSpaceOnUse" color-interpolation-filters="sRGB">
<feFlood flood-opacity="0" result="BackgroundImageFix"/>
<feColorMatrix in="SourceAlpha" type="matrix" values="0 0 0 0 0 0 0 0 0 0 0 0 0 0 0 0 0 0 127 0" result="hardAlpha"/>
<feOffset dy="4"/>
<feGaussianBlur stdDeviation="5"/>
<feComposite in2="hardAlpha" operator="out"/>
<feColorMatrix type="matrix" values="0 0 0 0 0 0 0 0 0 0 0 0 0 0 0 0 0 0 0.25 0"/>
<feBlend mode="normal" in2="BackgroundImageFix" result="effect1_dropShadow_1077_3606"/>
<feBlend mode="normal" in="SourceGraphic" in2="effect1_dropShadow_1077_3606" result="shape"/>
</filter>
<filter id="filter9_d_1077_3606" x="-112" y="950" width="160" height="160" filterUnits="userSpaceOnUse" color-interpolation-filters="sRGB">
<feFlood flood-opacity="0" result="BackgroundImageFix"/>
<feColorMatrix in="SourceAlpha" type="matrix" values="0 0 0 0 0 0 0 0 0 0 0 0 0 0 0 0 0 0 127 0" result="hardAlpha"/>
<feOffset dy="4"/>
<feGaussianBlur stdDeviation="5"/>
<feComposite in2="hardAlpha" operator="out"/>
<feColorMatrix type="matrix" values="0 0 0 0 0 0 0 0 0 0 0 0 0 0 0 0 0 0 0.25 0"/>
<feBlend mode="normal" in2="BackgroundImageFix" result="effect1_dropShadow_1077_3606"/>
<feBlend mode="normal" in="SourceGraphic" in2="effect1_dropShadow_1077_3606" result="shape"/>
</filter>
<filter id="filter10_d_1077_3606" x="-35" y="728" width="345" height="420" filterUnits="userSpaceOnUse" color-interpolation-filters="sRGB">
<feFlood flood-opacity="0" result="BackgroundImageFix"/>
<feColorMatrix in="SourceAlpha" type="matrix" values="0 0 0 0 0 0 0 0 0 0 0 0 0 0 0 0 0 0 127 0" result="hardAlpha"/>
<feOffset dy="4"/>
<feGaussianBlur stdDeviation="5"/>
<feComposite in2="hardAlpha" operator="out"/>
<feColorMatrix type="matrix" values="0 0 0 0 0 0 0 0 0 0 0 0 0 0 0 0 0 0 0.25 0"/>
<feBlend mode="normal" in2="BackgroundImageFix" result="effect1_dropShadow_1077_3606"/>
<feBlend mode="normal" in="SourceGraphic" in2="effect1_dropShadow_1077_3606" result="shape"/>
</filter>
<filter id="filter11_d_1077_3606" x="189" y="802" width="160" height="160" filterUnits="userSpaceOnUse" color-interpolation-filters="sRGB">
<feFlood flood-opacity="0" result="BackgroundImageFix"/>
<feColorMatrix in="SourceAlpha" type="matrix" values="0 0 0 0 0 0 0 0 0 0 0 0 0 0 0 0 0 0 127 0" result="hardAlpha"/>
<feOffset dy="4"/>
<feGaussianBlur stdDeviation="5"/>
<feComposite in2="hardAlpha" operator="out"/>
<feColorMatrix type="matrix" values="0 0 0 0 0 0 0 0 0 0 0 0 0 0 0 0 0 0 0.25 0"/>
<feBlend mode="normal" in2="BackgroundImageFix" result="effect1_dropShadow_1077_3606"/>
<feBlend mode="normal" in="SourceGraphic" in2="effect1_dropShadow_1077_3606" result="shape"/>
</filter>
<filter id="filter12_d_1077_3606" x="302" y="839" width="160" height="160" filterUnits="userSpaceOnUse" color-interpolation-filters="sRGB">
<feFlood flood-opacity="0" result="BackgroundImageFix"/>
<feColorMatrix in="SourceAlpha" type="matrix" values="0 0 0 0 0 0 0 0 0 0 0 0 0 0 0 0 0 0 127 0" result="hardAlpha"/>
<feOffset dy="4"/>
<feGaussianBlur stdDeviation="5"/>
<feComposite in2="hardAlpha" operator="out"/>
<feColorMatrix type="matrix" values="0 0 0 0 0 0 0 0 0 0 0 0 0 0 0 0 0 0 0.25 0"/>
<feBlend mode="normal" in2="BackgroundImageFix" result="effect1_dropShadow_1077_3606"/>
<feBlend mode="normal" in="SourceGraphic" in2="effect1_dropShadow_1077_3606" result="shape"/>
</filter>
<filter id="filter13_d_1077_3606" x="264" y="950" width="160" height="160" filterUnits="userSpaceOnUse" color-interpolation-filters="sRGB">
<feFlood flood-opacity="0" result="BackgroundImageFix"/>
<feColorMatrix in="SourceAlpha" type="matrix" values="0 0 0 0 0 0 0 0 0 0 0 0 0 0 0 0 0 0 127 0" result="hardAlpha"/>
<feOffset dy="4"/>
<feGaussianBlur stdDeviation="5"/>
<feComposite in2="hardAlpha" operator="out"/>
<feColorMatrix type="matrix" values="0 0 0 0 0 0 0 0 0 0 0 0 0 0 0 0 0 0 0.25 0"/>
<feBlend mode="normal" in2="BackgroundImageFix" result="effect1_dropShadow_1077_3606"/>
<feBlend mode="normal" in="SourceGraphic" in2="effect1_dropShadow_1077_3606" result="shape"/>
</filter>
<clipPath id="clip0_1077_3606">
<rect width="1920" height="980" fill="white"/>
</clipPath>
</defs>
</svg>
