<svg width="22" height="22" viewBox="0 0 22 22" fill="none" xmlns="http://www.w3.org/2000/svg">
<g clip-path="url(#clip0_1265_2123)">
<path d="M0.916667 4.3544H3.42467C3.62142 5.07832 4.05091 5.71739 4.64688 6.17301C5.24286 6.62862 5.97219 6.87547 6.72238 6.87547C7.47256 6.87547 8.20189 6.62862 8.79787 6.17301C9.39384 5.71739 9.82333 5.07832 10.0201 4.3544H21.0833C21.3264 4.3544 21.5596 4.25783 21.7315 4.08592C21.9034 3.91401 22 3.68085 22 3.43774C22 3.19462 21.9034 2.96146 21.7315 2.78956C21.5596 2.61765 21.3264 2.52107 21.0833 2.52107H10.0201C9.82333 1.79715 9.39384 1.15808 8.79787 0.702467C8.20189 0.24685 7.47256 0 6.72238 0C5.97219 0 5.24286 0.24685 4.64688 0.702467C4.05091 1.15808 3.62142 1.79715 3.42467 2.52107H0.916667C0.673552 2.52107 0.440394 2.61765 0.268485 2.78956C0.0965771 2.96146 0 3.19462 0 3.43774C0 3.68085 0.0965771 3.91401 0.268485 4.08592C0.440394 4.25783 0.673552 4.3544 0.916667 4.3544V4.3544ZM6.72192 1.83357C7.03919 1.83357 7.34934 1.92765 7.61314 2.10392C7.87695 2.28019 8.08256 2.53073 8.20397 2.82385C8.32539 3.11697 8.35716 3.43952 8.29526 3.75069C8.23336 4.06187 8.08058 4.34771 7.85623 4.57205C7.63189 4.7964 7.34605 4.94918 7.03487 5.01108C6.7237 5.07298 6.40115 5.04121 6.10803 4.91979C5.81491 4.79838 5.56437 4.59277 5.3881 4.32896C5.21183 4.06516 5.11775 3.75501 5.11775 3.43774C5.11824 3.01243 5.2874 2.60469 5.58814 2.30396C5.88887 2.00322 6.29661 1.83406 6.72192 1.83357V1.83357Z" fill="#2F80ED"/>
<path d="M21.0833 10.0825H18.5753C18.3789 9.35842 17.9496 8.71912 17.3537 8.26332C16.7577 7.80751 16.0283 7.56055 15.2781 7.56055C14.5278 7.56055 13.7984 7.80751 13.2025 8.26332C12.6066 8.71912 12.1773 9.35842 11.9808 10.0825H0.916667C0.673552 10.0825 0.440394 10.1791 0.268485 10.351C0.0965771 10.5229 0 10.7561 0 10.9992C0 11.2423 0.0965771 11.4754 0.268485 11.6474C0.440394 11.8193 0.673552 11.9158 0.916667 11.9158H11.9808C12.1773 12.6399 12.6066 13.2792 13.2025 13.735C13.7984 14.1908 14.5278 14.4378 15.2781 14.4378C16.0283 14.4378 16.7577 14.1908 17.3537 13.735C17.9496 13.2792 18.3789 12.6399 18.5753 11.9158H21.0833C21.3264 11.9158 21.5596 11.8193 21.7315 11.6474C21.9034 11.4754 22 11.2423 22 10.9992C22 10.7561 21.9034 10.5229 21.7315 10.351C21.5596 10.1791 21.3264 10.0825 21.0833 10.0825ZM15.2781 12.6033C14.9608 12.6033 14.6507 12.5093 14.3869 12.333C14.1231 12.1567 13.9174 11.9062 13.796 11.6131C13.6746 11.3199 13.6428 10.9974 13.7047 10.6862C13.7666 10.375 13.9194 10.0892 14.1438 9.86486C14.3681 9.64051 14.6539 9.48773 14.9651 9.42583C15.2763 9.36393 15.5988 9.3957 15.892 9.51712C16.1851 9.63853 16.4356 9.84414 16.6119 10.1079C16.7882 10.3717 16.8823 10.6819 16.8823 10.9992C16.8818 11.4245 16.7126 11.8322 16.4119 12.133C16.1111 12.4337 15.7034 12.6028 15.2781 12.6033V12.6033Z" fill="#2F80ED"/>
<path d="M21.0833 17.6461H10.0201C9.82333 16.9221 9.39384 16.2831 8.79787 15.8275C8.20189 15.3719 7.47256 15.125 6.72238 15.125C5.97219 15.125 5.24286 15.3719 4.64688 15.8275C4.05091 16.2831 3.62142 16.9221 3.42467 17.6461H0.916667C0.673552 17.6461 0.440394 17.7426 0.268485 17.9145C0.0965771 18.0865 0 18.3196 0 18.5627C0 18.8058 0.0965771 19.039 0.268485 19.2109C0.440394 19.3828 0.673552 19.4794 0.916667 19.4794H3.42467C3.62142 20.2033 4.05091 20.8424 4.64688 21.298C5.24286 21.7536 5.97219 22.0004 6.72238 22.0004C7.47256 22.0004 8.20189 21.7536 8.79787 21.298C9.39384 20.8424 9.82333 20.2033 10.0201 19.4794H21.0833C21.3264 19.4794 21.5596 19.3828 21.7315 19.2109C21.9034 19.039 22 18.8058 22 18.5627C22 18.3196 21.9034 18.0865 21.7315 17.9145C21.5596 17.7426 21.3264 17.6461 21.0833 17.6461ZM6.72192 20.1669C6.40464 20.1669 6.09449 20.0728 5.83069 19.8965C5.56689 19.7203 5.36128 19.4697 5.23986 19.1766C5.11844 18.8835 5.08668 18.5609 5.14857 18.2498C5.21047 17.9386 5.36325 17.6528 5.5876 17.4284C5.81195 17.2041 6.09778 17.0513 6.40896 16.9894C6.72014 16.9275 7.04268 16.9593 7.3358 17.0807C7.62893 17.2021 7.87946 17.4077 8.05573 17.6715C8.232 17.9353 8.32608 18.2455 8.32608 18.5627C8.32536 18.988 8.15611 19.3956 7.85543 19.6962C7.55475 19.9969 7.14715 20.1662 6.72192 20.1669V20.1669Z" fill="#2F80ED"/>
</g>
<defs>
<clipPath id="clip0_1265_2123">
<rect width="22" height="22" fill="white"/>
</clipPath>
</defs>
</svg>
