<svg width="1870" height="1310" viewBox="0 0 1870 1310" fill="none" xmlns="http://www.w3.org/2000/svg">
<g clip-path="url(#clip0_1164_2149)">
<g clip-path="url(#clip1_1164_2149)">
<rect width="1920" height="1310" transform="translate(-50)" fill="#E2E2E2"/>
<rect x="-50" width="70" height="70" fill="white"/>
<rect x="21" width="70" height="70" fill="white"/>
<rect x="92" width="70" height="70" fill="white"/>
<rect x="163" width="70" height="70" fill="white"/>
<rect x="234" width="70" height="70" fill="white"/>
<rect x="305" width="70" height="70" fill="white"/>
<rect x="376" width="70" height="70" fill="white"/>
<rect x="447" width="70" height="70" fill="white"/>
<rect x="518" width="70" height="70" fill="white"/>
<rect x="589" width="70" height="70" fill="white"/>
<rect x="660" width="70" height="70" fill="white"/>
<rect x="731" width="70" height="70" fill="white"/>
<rect x="802" width="70" height="70" fill="white"/>
<rect x="873" width="70" height="70" fill="white"/>
<rect x="944" width="70" height="70" fill="white"/>
<rect x="1015" width="70" height="70" fill="white"/>
<rect x="1086" width="70" height="70" fill="white"/>
<rect x="1157" width="70" height="70" fill="white"/>
<rect x="1228" width="70" height="70" fill="white"/>
<rect x="1299" width="70" height="70" fill="white"/>
<rect x="1370" width="70" height="70" fill="white"/>
<rect x="1441" width="70" height="70" fill="white"/>
<rect x="1512" width="70" height="70" fill="white"/>
<rect x="1583" width="70" height="70" fill="white"/>
<rect x="1654" width="70" height="70" fill="white"/>
<rect x="1725" width="70" height="70" fill="white"/>
<rect x="1796" width="70" height="70" fill="white"/>
<rect x="1867" width="70" height="70" fill="white"/>
<rect x="-50" y="71" width="70" height="70" fill="white"/>
<rect x="21" y="71" width="70" height="70" fill="white"/>
<rect x="92" y="71" width="70" height="70" fill="white"/>
<rect x="163" y="71" width="70" height="70" fill="white"/>
<rect x="234" y="71" width="70" height="70" fill="white"/>
<rect x="305" y="71" width="70" height="70" fill="white"/>
<rect x="376" y="71" width="70" height="70" fill="white"/>
<rect x="447" y="71" width="70" height="70" fill="white"/>
<rect x="518" y="71" width="70" height="70" fill="white"/>
<rect x="589" y="71" width="70" height="70" fill="white"/>
<rect x="660" y="71" width="70" height="70" fill="white"/>
<rect x="731" y="71" width="70" height="70" fill="white"/>
<rect x="802" y="71" width="70" height="70" fill="white"/>
<rect x="873" y="71" width="70" height="70" fill="white"/>
<rect x="944" y="71" width="70" height="70" fill="white"/>
<rect x="1015" y="71" width="70" height="70" fill="white"/>
<rect x="1086" y="71" width="70" height="70" fill="white"/>
<rect x="1157" y="71" width="70" height="70" fill="white"/>
<rect x="1228" y="71" width="70" height="70" fill="white"/>
<rect x="1299" y="71" width="70" height="70" fill="white"/>
<rect x="1370" y="71" width="70" height="70" fill="white"/>
<rect x="1441" y="71" width="70" height="70" fill="white"/>
<rect x="1512" y="71" width="70" height="70" fill="white"/>
<rect x="1583" y="71" width="70" height="70" fill="white"/>
<rect x="1654" y="71" width="70" height="70" fill="white"/>
<rect x="1725" y="71" width="70" height="70" fill="white"/>
<rect x="1796" y="71" width="70" height="70" fill="white"/>
<rect x="1867" y="71" width="70" height="70" fill="white"/>
<rect x="-50" y="142" width="70" height="70" fill="white"/>
<rect x="21" y="142" width="70" height="70" fill="white"/>
<rect x="92" y="142" width="70" height="70" fill="white"/>
<rect x="163" y="142" width="70" height="70" fill="white"/>
<rect x="234" y="142" width="70" height="70" fill="white"/>
<rect x="305" y="142" width="70" height="70" fill="white"/>
<rect x="376" y="142" width="70" height="70" fill="white"/>
<rect x="447" y="142" width="70" height="70" fill="white"/>
<rect x="518" y="142" width="70" height="70" fill="white"/>
<rect x="589" y="142" width="70" height="70" fill="white"/>
<rect x="660" y="142" width="70" height="70" fill="white"/>
<rect x="731" y="142" width="70" height="70" fill="white"/>
<rect x="802" y="142" width="70" height="70" fill="white"/>
<rect x="873" y="142" width="70" height="70" fill="white"/>
<rect x="944" y="142" width="70" height="70" fill="white"/>
<rect x="1015" y="142" width="70" height="70" fill="white"/>
<rect x="1086" y="142" width="70" height="70" fill="white"/>
<rect x="1157" y="142" width="70" height="70" fill="white"/>
<rect x="1228" y="142" width="70" height="70" fill="white"/>
<rect x="1299" y="142" width="70" height="70" fill="white"/>
<rect x="1370" y="142" width="70" height="70" fill="white"/>
<rect x="1441" y="142" width="70" height="70" fill="white"/>
<rect x="1512" y="142" width="70" height="70" fill="white"/>
<rect x="1583" y="142" width="70" height="70" fill="white"/>
<rect x="1654" y="142" width="70" height="70" fill="white"/>
<rect x="1725" y="142" width="70" height="70" fill="white"/>
<rect x="1796" y="142" width="70" height="70" fill="white"/>
<rect x="1867" y="142" width="70" height="70" fill="white"/>
<rect x="-50" y="213" width="70" height="70" fill="white"/>
<rect x="21" y="213" width="70" height="70" fill="white"/>
<rect x="92" y="213" width="70" height="70" fill="white"/>
<rect x="163" y="213" width="70" height="70" fill="white"/>
<rect x="234" y="213" width="70" height="70" fill="white"/>
<rect x="305" y="213" width="70" height="70" fill="white"/>
<rect x="376" y="213" width="70" height="70" fill="white"/>
<rect x="447" y="213" width="70" height="70" fill="white"/>
<rect x="518" y="213" width="70" height="70" fill="white"/>
<rect x="589" y="213" width="70" height="70" fill="white"/>
<rect x="660" y="213" width="70" height="70" fill="white"/>
<rect x="731" y="213" width="70" height="70" fill="white"/>
<rect x="802" y="213" width="70" height="70" fill="white"/>
<rect x="873" y="213" width="70" height="70" fill="white"/>
<rect x="944" y="213" width="70" height="70" fill="white"/>
<rect x="1015" y="213" width="70" height="70" fill="white"/>
<rect x="1086" y="213" width="70" height="70" fill="white"/>
<rect x="1157" y="213" width="70" height="70" fill="white"/>
<rect x="1228" y="213" width="70" height="70" fill="white"/>
<rect x="1299" y="213" width="70" height="70" fill="white"/>
<rect x="1370" y="213" width="70" height="70" fill="white"/>
<rect x="1441" y="213" width="70" height="70" fill="white"/>
<rect x="1512" y="213" width="70" height="70" fill="white"/>
<rect x="1583" y="213" width="70" height="70" fill="white"/>
<rect x="1654" y="213" width="70" height="70" fill="white"/>
<rect x="1725" y="213" width="70" height="70" fill="white"/>
<rect x="1796" y="213" width="70" height="70" fill="white"/>
<rect x="1867" y="213" width="70" height="70" fill="white"/>
<rect x="-50" y="284" width="70" height="70" fill="white"/>
<rect x="21" y="284" width="70" height="70" fill="white"/>
<rect x="92" y="284" width="70" height="70" fill="white"/>
<rect x="163" y="284" width="70" height="70" fill="white"/>
<rect x="234" y="284" width="70" height="70" fill="white"/>
<rect x="305" y="284" width="70" height="70" fill="white"/>
<rect x="376" y="284" width="70" height="70" fill="white"/>
<rect x="447" y="284" width="70" height="70" fill="white"/>
<rect x="518" y="284" width="70" height="70" fill="white"/>
<rect x="589" y="284" width="70" height="70" fill="white"/>
<rect x="660" y="284" width="70" height="70" fill="white"/>
<rect x="731" y="284" width="70" height="70" fill="white"/>
<rect x="802" y="284" width="70" height="70" fill="white"/>
<rect x="873" y="284" width="70" height="70" fill="white"/>
<rect x="944" y="284" width="70" height="70" fill="white"/>
<rect x="1015" y="284" width="70" height="70" fill="white"/>
<rect x="1086" y="284" width="70" height="70" fill="white"/>
<rect x="1157" y="284" width="70" height="70" fill="white"/>
<rect x="1228" y="284" width="70" height="70" fill="white"/>
<rect x="1299" y="284" width="70" height="70" fill="white"/>
<rect x="1370" y="284" width="70" height="70" fill="white"/>
<rect x="1441" y="284" width="70" height="70" fill="white"/>
<rect x="1512" y="284" width="70" height="70" fill="white"/>
<rect x="1583" y="284" width="70" height="70" fill="white"/>
<rect x="1654" y="284" width="70" height="70" fill="white"/>
<rect x="1725" y="284" width="70" height="70" fill="white"/>
<rect x="1796" y="284" width="70" height="70" fill="white"/>
<rect x="1867" y="284" width="70" height="70" fill="white"/>
<rect x="-50" y="355" width="70" height="70" fill="white"/>
<rect x="21" y="355" width="70" height="70" fill="white"/>
<rect x="92" y="355" width="70" height="70" fill="white"/>
<rect x="163" y="355" width="70" height="70" fill="white"/>
<rect x="234" y="355" width="70" height="70" fill="white"/>
<rect x="305" y="355" width="70" height="70" fill="white"/>
<rect x="376" y="355" width="70" height="70" fill="white"/>
<rect x="447" y="355" width="70" height="70" fill="white"/>
<rect x="518" y="355" width="70" height="70" fill="white"/>
<rect x="589" y="355" width="70" height="70" fill="white"/>
<rect x="660" y="355" width="70" height="70" fill="white"/>
<rect x="731" y="355" width="70" height="70" fill="white"/>
<rect x="802" y="355" width="70" height="70" fill="white"/>
<rect x="873" y="355" width="70" height="70" fill="white"/>
<rect x="944" y="355" width="70" height="70" fill="white"/>
<rect x="1015" y="355" width="70" height="70" fill="white"/>
<rect x="1086" y="355" width="70" height="70" fill="white"/>
<rect x="1157" y="355" width="70" height="70" fill="white"/>
<rect x="1228" y="355" width="70" height="70" fill="white"/>
<rect x="1299" y="355" width="70" height="70" fill="white"/>
<rect x="1370" y="355" width="70" height="70" fill="white"/>
<rect x="1441" y="355" width="70" height="70" fill="white"/>
<rect x="1512" y="355" width="70" height="70" fill="white"/>
<rect x="1583" y="355" width="70" height="70" fill="white"/>
<rect x="1654" y="355" width="70" height="70" fill="white"/>
<rect x="1725" y="355" width="70" height="70" fill="white"/>
<rect x="1796" y="355" width="70" height="70" fill="white"/>
<rect x="1867" y="355" width="70" height="70" fill="white"/>
<rect x="-50" y="426" width="70" height="70" fill="white"/>
<rect x="21" y="426" width="70" height="70" fill="white"/>
<rect x="92" y="426" width="70" height="70" fill="white"/>
<rect x="163" y="426" width="70" height="70" fill="white"/>
<rect x="234" y="426" width="70" height="70" fill="white"/>
<rect x="305" y="426" width="70" height="70" fill="white"/>
<rect x="376" y="426" width="70" height="70" fill="white"/>
<rect x="447" y="426" width="70" height="70" fill="white"/>
<rect x="518" y="426" width="70" height="70" fill="white"/>
<rect x="589" y="426" width="70" height="70" fill="white"/>
<rect x="660" y="426" width="70" height="70" fill="white"/>
<rect x="731" y="426" width="70" height="70" fill="white"/>
<rect x="802" y="426" width="70" height="70" fill="white"/>
<rect x="873" y="426" width="70" height="70" fill="white"/>
<rect x="944" y="426" width="70" height="70" fill="white"/>
<rect x="1015" y="426" width="70" height="70" fill="white"/>
<rect x="1086" y="426" width="70" height="70" fill="white"/>
<rect x="1157" y="426" width="70" height="70" fill="white"/>
<rect x="1228" y="426" width="70" height="70" fill="white"/>
<rect x="1299" y="426" width="70" height="70" fill="white"/>
<rect x="1370" y="426" width="70" height="70" fill="white"/>
<rect x="1441" y="426" width="70" height="70" fill="white"/>
<rect x="1512" y="426" width="70" height="70" fill="white"/>
<rect x="1583" y="426" width="70" height="70" fill="white"/>
<rect x="1654" y="426" width="70" height="70" fill="white"/>
<rect x="1725" y="426" width="70" height="70" fill="white"/>
<rect x="1796" y="426" width="70" height="70" fill="white"/>
<rect x="1867" y="426" width="70" height="70" fill="white"/>
<rect x="-50" y="497" width="70" height="70" fill="white"/>
<rect x="21" y="497" width="70" height="70" fill="white"/>
<rect x="92" y="497" width="70" height="70" fill="white"/>
<rect x="163" y="497" width="70" height="70" fill="white"/>
<rect x="234" y="497" width="70" height="70" fill="white"/>
<rect x="305" y="497" width="70" height="70" fill="white"/>
<rect x="376" y="497" width="70" height="70" fill="white"/>
<rect x="447" y="497" width="70" height="70" fill="white"/>
<rect x="518" y="497" width="70" height="70" fill="white"/>
<rect x="589" y="497" width="70" height="70" fill="white"/>
<rect x="660" y="497" width="70" height="70" fill="white"/>
<rect x="731" y="497" width="70" height="70" fill="white"/>
<rect x="802" y="497" width="70" height="70" fill="white"/>
<rect x="873" y="497" width="70" height="70" fill="white"/>
<rect x="944" y="497" width="70" height="70" fill="white"/>
<rect x="1015" y="497" width="70" height="70" fill="white"/>
<rect x="1086" y="497" width="70" height="70" fill="white"/>
<rect x="1157" y="497" width="70" height="70" fill="white"/>
<rect x="1228" y="497" width="70" height="70" fill="white"/>
<rect x="1299" y="497" width="70" height="70" fill="white"/>
<rect x="1370" y="497" width="70" height="70" fill="white"/>
<rect x="1441" y="497" width="70" height="70" fill="white"/>
<rect x="1512" y="497" width="70" height="70" fill="white"/>
<rect x="1583" y="497" width="70" height="70" fill="white"/>
<rect x="1654" y="497" width="70" height="70" fill="white"/>
<rect x="1725" y="497" width="70" height="70" fill="white"/>
<rect x="1796" y="497" width="70" height="70" fill="white"/>
<rect x="1867" y="497" width="70" height="70" fill="white"/>
<rect x="-50" y="568" width="70" height="70" fill="white"/>
<rect x="21" y="568" width="70" height="70" fill="white"/>
<rect x="92" y="568" width="70" height="70" fill="white"/>
<rect x="163" y="568" width="70" height="70" fill="white"/>
<rect x="234" y="568" width="70" height="70" fill="white"/>
<rect x="305" y="568" width="70" height="70" fill="white"/>
<rect x="376" y="568" width="70" height="70" fill="white"/>
<rect x="447" y="568" width="70" height="70" fill="white"/>
<rect x="518" y="568" width="70" height="70" fill="white"/>
<rect x="589" y="568" width="70" height="70" fill="white"/>
<rect x="660" y="568" width="70" height="70" fill="white"/>
<rect x="731" y="568" width="70" height="70" fill="white"/>
<rect x="802" y="568" width="70" height="70" fill="white"/>
<rect x="873" y="568" width="70" height="70" fill="white"/>
<rect x="944" y="568" width="70" height="70" fill="white"/>
<rect x="1015" y="568" width="70" height="70" fill="white"/>
<rect x="1086" y="568" width="70" height="70" fill="white"/>
<rect x="1157" y="568" width="70" height="70" fill="white"/>
<rect x="1228" y="568" width="70" height="70" fill="white"/>
<rect x="1299" y="568" width="70" height="70" fill="white"/>
<rect x="1370" y="568" width="70" height="70" fill="white"/>
<rect x="1441" y="568" width="70" height="70" fill="white"/>
<rect x="1512" y="568" width="70" height="70" fill="white"/>
<rect x="1583" y="568" width="70" height="70" fill="white"/>
<rect x="1654" y="568" width="70" height="70" fill="white"/>
<rect x="1725" y="568" width="70" height="70" fill="white"/>
<rect x="1796" y="568" width="70" height="70" fill="white"/>
<rect x="1867" y="568" width="70" height="70" fill="white"/>
<rect x="-50" y="639" width="70" height="70" fill="white"/>
<rect x="21" y="639" width="70" height="70" fill="white"/>
<rect x="92" y="639" width="70" height="70" fill="white"/>
<rect x="163" y="639" width="70" height="70" fill="white"/>
<rect x="234" y="639" width="70" height="70" fill="white"/>
<rect x="305" y="639" width="70" height="70" fill="white"/>
<rect x="376" y="639" width="70" height="70" fill="white"/>
<rect x="447" y="639" width="70" height="70" fill="white"/>
<rect x="518" y="639" width="70" height="70" fill="white"/>
<rect x="589" y="639" width="70" height="70" fill="white"/>
<rect x="660" y="639" width="70" height="70" fill="white"/>
<rect x="731" y="639" width="70" height="70" fill="white"/>
<rect x="802" y="639" width="70" height="70" fill="white"/>
<rect x="873" y="639" width="70" height="70" fill="white"/>
<rect x="944" y="639" width="70" height="70" fill="white"/>
<rect x="1015" y="639" width="70" height="70" fill="white"/>
<rect x="1086" y="639" width="70" height="70" fill="white"/>
<rect x="1157" y="639" width="70" height="70" fill="white"/>
<rect x="1228" y="639" width="70" height="70" fill="white"/>
<rect x="1299" y="639" width="70" height="70" fill="white"/>
<rect x="1370" y="639" width="70" height="70" fill="white"/>
<rect x="1441" y="639" width="70" height="70" fill="white"/>
<rect x="1512" y="639" width="70" height="70" fill="white"/>
<rect x="1583" y="639" width="70" height="70" fill="white"/>
<rect x="1654" y="639" width="70" height="70" fill="white"/>
<rect x="1725" y="639" width="70" height="70" fill="white"/>
<rect x="1796" y="639" width="70" height="70" fill="white"/>
<rect x="1867" y="639" width="70" height="70" fill="white"/>
<rect x="-50" y="710" width="70" height="70" fill="white"/>
<rect x="21" y="710" width="70" height="70" fill="white"/>
<rect x="92" y="710" width="70" height="70" fill="white"/>
<rect x="163" y="710" width="70" height="70" fill="white"/>
<rect x="234" y="710" width="70" height="70" fill="white"/>
<rect x="305" y="710" width="70" height="70" fill="white"/>
<rect x="376" y="710" width="70" height="70" fill="white"/>
<rect x="447" y="710" width="70" height="70" fill="white"/>
<rect x="518" y="710" width="70" height="70" fill="white"/>
<rect x="589" y="710" width="70" height="70" fill="white"/>
<rect x="660" y="710" width="70" height="70" fill="white"/>
<rect x="731" y="710" width="70" height="70" fill="white"/>
<rect x="802" y="710" width="70" height="70" fill="white"/>
<rect x="873" y="710" width="70" height="70" fill="white"/>
<rect x="944" y="710" width="70" height="70" fill="white"/>
<rect x="1015" y="710" width="70" height="70" fill="white"/>
<rect x="1086" y="710" width="70" height="70" fill="white"/>
<rect x="1157" y="710" width="70" height="70" fill="white"/>
<rect x="1228" y="710" width="70" height="70" fill="white"/>
<rect x="1299" y="710" width="70" height="70" fill="white"/>
<rect x="1370" y="710" width="70" height="70" fill="white"/>
<rect x="1441" y="710" width="70" height="70" fill="white"/>
<rect x="1512" y="710" width="70" height="70" fill="white"/>
<rect x="1583" y="710" width="70" height="70" fill="white"/>
<rect x="1654" y="710" width="70" height="70" fill="white"/>
<rect x="1725" y="710" width="70" height="70" fill="white"/>
<rect x="1796" y="710" width="70" height="70" fill="white"/>
<rect x="1867" y="710" width="70" height="70" fill="white"/>
<rect x="-50" y="781" width="70" height="70" fill="white"/>
<rect x="21" y="781" width="70" height="70" fill="white"/>
<rect x="92" y="781" width="70" height="70" fill="white"/>
<rect x="163" y="781" width="70" height="70" fill="white"/>
<rect x="234" y="781" width="70" height="70" fill="white"/>
<rect x="305" y="781" width="70" height="70" fill="white"/>
<rect x="376" y="781" width="70" height="70" fill="white"/>
<rect x="447" y="781" width="70" height="70" fill="white"/>
<rect x="518" y="781" width="70" height="70" fill="white"/>
<rect x="589" y="781" width="70" height="70" fill="white"/>
<rect x="660" y="781" width="70" height="70" fill="white"/>
<rect x="731" y="781" width="70" height="70" fill="white"/>
<rect x="802" y="781" width="70" height="70" fill="white"/>
<rect x="873" y="781" width="70" height="70" fill="white"/>
<rect x="944" y="781" width="70" height="70" fill="white"/>
<rect x="1015" y="781" width="70" height="70" fill="white"/>
<rect x="1086" y="781" width="70" height="70" fill="white"/>
<rect x="1157" y="781" width="70" height="70" fill="white"/>
<rect x="1228" y="781" width="70" height="70" fill="white"/>
<rect x="1299" y="781" width="70" height="70" fill="white"/>
<rect x="1370" y="781" width="70" height="70" fill="white"/>
<rect x="1441" y="781" width="70" height="70" fill="white"/>
<rect x="1512" y="781" width="70" height="70" fill="white"/>
<rect x="1583" y="781" width="70" height="70" fill="white"/>
<rect x="1654" y="781" width="70" height="70" fill="white"/>
<rect x="1725" y="781" width="70" height="70" fill="white"/>
<rect x="1796" y="781" width="70" height="70" fill="white"/>
<rect x="1867" y="781" width="70" height="70" fill="white"/>
<rect x="-50" y="852" width="70" height="70" fill="white"/>
<rect x="21" y="852" width="70" height="70" fill="white"/>
<rect x="92" y="852" width="70" height="70" fill="white"/>
<rect x="163" y="852" width="70" height="70" fill="white"/>
<rect x="234" y="852" width="70" height="70" fill="white"/>
<rect x="305" y="852" width="70" height="70" fill="white"/>
<rect x="376" y="852" width="70" height="70" fill="white"/>
<rect x="447" y="852" width="70" height="70" fill="white"/>
<rect x="518" y="852" width="70" height="70" fill="white"/>
<rect x="589" y="852" width="70" height="70" fill="white"/>
<rect x="660" y="852" width="70" height="70" fill="white"/>
<rect x="731" y="852" width="70" height="70" fill="white"/>
<rect x="802" y="852" width="70" height="70" fill="white"/>
<rect x="873" y="852" width="70" height="70" fill="white"/>
<rect x="944" y="852" width="70" height="70" fill="white"/>
<rect x="1015" y="852" width="70" height="70" fill="white"/>
<rect x="1086" y="852" width="70" height="70" fill="white"/>
<rect x="1157" y="852" width="70" height="70" fill="white"/>
<rect x="1228" y="852" width="70" height="70" fill="white"/>
<rect x="1299" y="852" width="70" height="70" fill="white"/>
<rect x="1370" y="852" width="70" height="70" fill="white"/>
<rect x="1441" y="852" width="70" height="70" fill="white"/>
<rect x="1512" y="852" width="70" height="70" fill="white"/>
<rect x="1583" y="852" width="70" height="70" fill="white"/>
<rect x="1654" y="852" width="70" height="70" fill="white"/>
<rect x="1725" y="852" width="70" height="70" fill="white"/>
<rect x="1796" y="852" width="70" height="70" fill="white"/>
<rect x="1867" y="852" width="70" height="70" fill="white"/>
<rect x="-50" y="923" width="70" height="70" fill="white"/>
<rect x="21" y="923" width="70" height="70" fill="white"/>
<rect x="92" y="923" width="70" height="70" fill="white"/>
<rect x="163" y="923" width="70" height="70" fill="white"/>
<rect x="234" y="923" width="70" height="70" fill="white"/>
<rect x="305" y="923" width="70" height="70" fill="white"/>
<rect x="376" y="923" width="70" height="70" fill="white"/>
<rect x="447" y="923" width="70" height="70" fill="white"/>
<rect x="518" y="923" width="70" height="70" fill="white"/>
<rect x="589" y="923" width="70" height="70" fill="white"/>
<rect x="660" y="923" width="70" height="70" fill="white"/>
<rect x="731" y="923" width="70" height="70" fill="white"/>
<rect x="802" y="923" width="70" height="70" fill="white"/>
<rect x="873" y="923" width="70" height="70" fill="white"/>
<rect x="944" y="923" width="70" height="70" fill="white"/>
<rect x="1015" y="923" width="70" height="70" fill="white"/>
<rect x="1086" y="923" width="70" height="70" fill="white"/>
<rect x="1157" y="923" width="70" height="70" fill="white"/>
<rect x="1228" y="923" width="70" height="70" fill="white"/>
<rect x="1299" y="923" width="70" height="70" fill="white"/>
<rect x="1370" y="923" width="70" height="70" fill="white"/>
<rect x="1441" y="923" width="70" height="70" fill="white"/>
<rect x="1512" y="923" width="70" height="70" fill="white"/>
<rect x="1583" y="923" width="70" height="70" fill="white"/>
<rect x="1654" y="923" width="70" height="70" fill="white"/>
<rect x="1725" y="923" width="70" height="70" fill="white"/>
<rect x="1796" y="923" width="70" height="70" fill="white"/>
<rect x="1867" y="923" width="70" height="70" fill="white"/>
<rect x="-50" y="994" width="70" height="70" fill="white"/>
<rect x="21" y="994" width="70" height="70" fill="white"/>
<rect x="92" y="994" width="70" height="70" fill="white"/>
<rect x="163" y="994" width="70" height="70" fill="white"/>
<rect x="234" y="994" width="70" height="70" fill="white"/>
<rect x="305" y="994" width="70" height="70" fill="white"/>
<rect x="376" y="994" width="70" height="70" fill="white"/>
<rect x="447" y="994" width="70" height="70" fill="white"/>
<rect x="518" y="994" width="70" height="70" fill="white"/>
<rect x="589" y="994" width="70" height="70" fill="white"/>
<rect x="660" y="994" width="70" height="70" fill="white"/>
<rect x="731" y="994" width="70" height="70" fill="white"/>
<rect x="802" y="994" width="70" height="70" fill="white"/>
<rect x="873" y="994" width="70" height="70" fill="white"/>
<rect x="944" y="994" width="70" height="70" fill="white"/>
<rect x="1015" y="994" width="70" height="70" fill="white"/>
<rect x="1086" y="994" width="70" height="70" fill="white"/>
<rect x="1157" y="994" width="70" height="70" fill="white"/>
<rect x="1228" y="994" width="70" height="70" fill="white"/>
<rect x="1299" y="994" width="70" height="70" fill="white"/>
<rect x="1370" y="994" width="70" height="70" fill="white"/>
<rect x="1441" y="994" width="70" height="70" fill="white"/>
<rect x="1512" y="994" width="70" height="70" fill="white"/>
<rect x="1583" y="994" width="70" height="70" fill="white"/>
<rect x="1654" y="994" width="70" height="70" fill="white"/>
<rect x="1725" y="994" width="70" height="70" fill="white"/>
<rect x="1796" y="994" width="70" height="70" fill="white"/>
<rect x="1867" y="994" width="70" height="70" fill="white"/>
<rect x="-50" y="1065" width="70" height="70" fill="white"/>
<rect x="21" y="1065" width="70" height="70" fill="white"/>
<rect x="92" y="1065" width="70" height="70" fill="white"/>
<rect x="163" y="1065" width="70" height="70" fill="white"/>
<rect x="234" y="1065" width="70" height="70" fill="white"/>
<rect x="305" y="1065" width="70" height="70" fill="white"/>
<rect x="376" y="1065" width="70" height="70" fill="white"/>
<rect x="447" y="1065" width="70" height="70" fill="white"/>
<rect x="518" y="1065" width="70" height="70" fill="white"/>
<rect x="589" y="1065" width="70" height="70" fill="white"/>
<rect x="660" y="1065" width="70" height="70" fill="white"/>
<rect x="731" y="1065" width="70" height="70" fill="white"/>
<rect x="802" y="1065" width="70" height="70" fill="white"/>
<rect x="873" y="1065" width="70" height="70" fill="white"/>
<rect x="944" y="1065" width="70" height="70" fill="white"/>
<rect x="1015" y="1065" width="70" height="70" fill="white"/>
<rect x="1086" y="1065" width="70" height="70" fill="white"/>
<rect x="1157" y="1065" width="70" height="70" fill="white"/>
<rect x="1228" y="1065" width="70" height="70" fill="white"/>
<rect x="1299" y="1065" width="70" height="70" fill="white"/>
<rect x="1370" y="1065" width="70" height="70" fill="white"/>
<rect x="1441" y="1065" width="70" height="70" fill="white"/>
<rect x="1512" y="1065" width="70" height="70" fill="white"/>
<rect x="1583" y="1065" width="70" height="70" fill="white"/>
<rect x="1654" y="1065" width="70" height="70" fill="white"/>
<rect x="1725" y="1065" width="70" height="70" fill="white"/>
<rect x="1796" y="1065" width="70" height="70" fill="white"/>
<rect x="1867" y="1065" width="70" height="70" fill="white"/>
<rect x="-50" y="1136" width="70" height="70" fill="white"/>
<rect x="21" y="1136" width="70" height="70" fill="white"/>
<rect x="92" y="1136" width="70" height="70" fill="white"/>
<rect x="163" y="1136" width="70" height="70" fill="white"/>
<rect x="234" y="1136" width="70" height="70" fill="white"/>
<rect x="305" y="1136" width="70" height="70" fill="white"/>
<rect x="376" y="1136" width="70" height="70" fill="white"/>
<rect x="447" y="1136" width="70" height="70" fill="white"/>
<rect x="518" y="1136" width="70" height="70" fill="white"/>
<rect x="589" y="1136" width="70" height="70" fill="white"/>
<rect x="660" y="1136" width="70" height="70" fill="white"/>
<rect x="731" y="1136" width="70" height="70" fill="white"/>
<rect x="802" y="1136" width="70" height="70" fill="white"/>
<rect x="873" y="1136" width="70" height="70" fill="white"/>
<rect x="944" y="1136" width="70" height="70" fill="white"/>
<rect x="1015" y="1136" width="70" height="70" fill="white"/>
<rect x="1086" y="1136" width="70" height="70" fill="white"/>
<rect x="1157" y="1136" width="70" height="70" fill="white"/>
<rect x="1228" y="1136" width="70" height="70" fill="white"/>
<rect x="1299" y="1136" width="70" height="70" fill="white"/>
<rect x="1370" y="1136" width="70" height="70" fill="white"/>
<rect x="1441" y="1136" width="70" height="70" fill="white"/>
<rect x="1512" y="1136" width="70" height="70" fill="white"/>
<rect x="1583" y="1136" width="70" height="70" fill="white"/>
<rect x="1654" y="1136" width="70" height="70" fill="white"/>
<rect x="1725" y="1136" width="70" height="70" fill="white"/>
<rect x="1796" y="1136" width="70" height="70" fill="white"/>
<rect x="1867" y="1136" width="70" height="70" fill="white"/>
<rect x="-50" y="1207" width="70" height="70" fill="white"/>
<rect x="21" y="1207" width="70" height="70" fill="white"/>
<rect x="92" y="1207" width="70" height="70" fill="white"/>
<rect x="163" y="1207" width="70" height="70" fill="white"/>
<rect x="234" y="1207" width="70" height="70" fill="white"/>
<rect x="305" y="1207" width="70" height="70" fill="white"/>
<rect x="376" y="1207" width="70" height="70" fill="white"/>
<rect x="447" y="1207" width="70" height="70" fill="white"/>
<rect x="518" y="1207" width="70" height="70" fill="white"/>
<rect x="589" y="1207" width="70" height="70" fill="white"/>
<rect x="660" y="1207" width="70" height="70" fill="white"/>
<rect x="731" y="1207" width="70" height="70" fill="white"/>
<rect x="802" y="1207" width="70" height="70" fill="white"/>
<rect x="873" y="1207" width="70" height="70" fill="white"/>
<rect x="944" y="1207" width="70" height="70" fill="white"/>
<rect x="1015" y="1207" width="70" height="70" fill="white"/>
<rect x="1086" y="1207" width="70" height="70" fill="white"/>
<rect x="1157" y="1207" width="70" height="70" fill="white"/>
<rect x="1228" y="1207" width="70" height="70" fill="white"/>
<rect x="1299" y="1207" width="70" height="70" fill="white"/>
<rect x="1370" y="1207" width="70" height="70" fill="white"/>
<rect x="1441" y="1207" width="70" height="70" fill="white"/>
<rect x="1512" y="1207" width="70" height="70" fill="white"/>
<rect x="1583" y="1207" width="70" height="70" fill="white"/>
<rect x="1654" y="1207" width="70" height="70" fill="white"/>
<rect x="1725" y="1207" width="70" height="70" fill="white"/>
<rect x="1796" y="1207" width="70" height="70" fill="white"/>
<rect x="1867" y="1207" width="70" height="70" fill="white"/>
<rect x="-50" y="1278" width="70" height="70" fill="white"/>
<rect x="21" y="1278" width="70" height="70" fill="white"/>
<rect x="92" y="1278" width="70" height="70" fill="white"/>
<rect x="163" y="1278" width="70" height="70" fill="white"/>
<rect x="234" y="1278" width="70" height="70" fill="white"/>
<rect x="305" y="1278" width="70" height="70" fill="white"/>
<rect x="376" y="1278" width="70" height="70" fill="white"/>
<rect x="447" y="1278" width="70" height="70" fill="white"/>
<rect x="518" y="1278" width="70" height="70" fill="white"/>
<rect x="589" y="1278" width="70" height="70" fill="white"/>
<rect x="660" y="1278" width="70" height="70" fill="white"/>
<rect x="731" y="1278" width="70" height="70" fill="white"/>
<rect x="802" y="1278" width="70" height="70" fill="white"/>
<rect x="873" y="1278" width="70" height="70" fill="white"/>
<rect x="944" y="1278" width="70" height="70" fill="white"/>
<rect x="1015" y="1278" width="70" height="70" fill="white"/>
<rect x="1086" y="1278" width="70" height="70" fill="white"/>
<rect x="1157" y="1278" width="70" height="70" fill="white"/>
<rect x="1228" y="1278" width="70" height="70" fill="white"/>
<rect x="1299" y="1278" width="70" height="70" fill="white"/>
<rect x="1370" y="1278" width="70" height="70" fill="white"/>
<rect x="1441" y="1278" width="70" height="70" fill="white"/>
<rect x="1512" y="1278" width="70" height="70" fill="white"/>
<rect x="1583" y="1278" width="70" height="70" fill="white"/>
<rect x="1654" y="1278" width="70" height="70" fill="white"/>
<rect x="1725" y="1278" width="70" height="70" fill="white"/>
<rect x="1796" y="1278" width="70" height="70" fill="white"/>
<rect x="1867" y="1278" width="70" height="70" fill="white"/>
</g>
<path d="M778.9 218.62H786.12V220.34H778.9V218.62ZM779.1 226H777.1V212H786.98V213.74H779.1V226ZM789.515 226V215.4H791.435V226H789.515ZM790.475 213.36C790.102 213.36 789.789 213.24 789.535 213C789.295 212.76 789.175 212.467 789.175 212.12C789.175 211.76 789.295 211.46 789.535 211.22C789.789 210.98 790.102 210.86 790.475 210.86C790.849 210.86 791.155 210.98 791.395 211.22C791.649 211.447 791.775 211.733 791.775 212.08C791.775 212.44 791.655 212.747 791.415 213C791.175 213.24 790.862 213.36 790.475 213.36ZM795.101 226V211.16H797.021V226H795.101ZM804.601 226.12C803.534 226.12 802.707 225.833 802.121 225.26C801.534 224.687 801.241 223.867 801.241 222.8V213.08H803.161V222.72C803.161 223.293 803.301 223.733 803.581 224.04C803.874 224.347 804.287 224.5 804.821 224.5C805.421 224.5 805.921 224.333 806.321 224L806.921 225.38C806.627 225.633 806.274 225.82 805.861 225.94C805.461 226.06 805.041 226.12 804.601 226.12ZM799.441 216.98V215.4H806.201V216.98H799.441ZM809.242 226V215.4H811.082V218.28L810.902 217.56C811.195 216.827 811.689 216.267 812.382 215.88C813.075 215.493 813.929 215.3 814.942 215.3V217.16C814.862 217.147 814.782 217.14 814.702 217.14C814.635 217.14 814.569 217.14 814.502 217.14C813.475 217.14 812.662 217.447 812.062 218.06C811.462 218.673 811.162 219.56 811.162 220.72V226H809.242ZM818.198 230C817.691 230 817.198 229.913 816.718 229.74C816.238 229.58 815.825 229.34 815.478 229.02L816.298 227.58C816.565 227.833 816.858 228.027 817.178 228.16C817.498 228.293 817.838 228.36 818.198 228.36C818.665 228.36 819.051 228.24 819.358 228C819.665 227.76 819.951 227.333 820.218 226.72L820.878 225.26L821.078 225.02L825.238 215.4H827.118L821.978 227.06C821.671 227.807 821.325 228.393 820.938 228.82C820.565 229.247 820.151 229.547 819.698 229.72C819.245 229.907 818.745 230 818.198 230ZM820.718 226.34L815.878 215.4H817.878L821.998 224.84L820.718 226.34ZM829.507 218.04C829.133 218.04 828.813 217.913 828.547 217.66C828.28 217.393 828.147 217.06 828.147 216.66C828.147 216.26 828.28 215.933 828.547 215.68C828.813 215.427 829.133 215.3 829.507 215.3C829.867 215.3 830.173 215.427 830.427 215.68C830.693 215.933 830.827 216.26 830.827 216.66C830.827 217.06 830.693 217.393 830.427 217.66C830.173 217.913 829.867 218.04 829.507 218.04ZM829.507 226.12C829.133 226.12 828.813 225.993 828.547 225.74C828.28 225.473 828.147 225.14 828.147 224.74C828.147 224.34 828.28 224.013 828.547 223.76C828.813 223.507 829.133 223.38 829.507 223.38C829.867 223.38 830.173 223.507 830.427 223.76C830.693 224.013 830.827 224.34 830.827 224.74C830.827 225.14 830.693 225.473 830.427 225.74C830.173 225.993 829.867 226.12 829.507 226.12Z" fill="white"/>
<mask id="mask0_1164_2149" style="mask-type:luminance" maskUnits="userSpaceOnUse" x="1647" y="149" width="309" height="313">
<path d="M1955.71 149H1647.94V461.423H1955.71V149Z" fill="white"/>
</mask>
<g mask="url(#mask0_1164_2149)">
<path fill-rule="evenodd" clip-rule="evenodd" d="M1812.81 149H1790.83V247.809L1754.37 156.195L1733.98 164.555L1771.39 258.541L1700.78 186.863L1685.24 202.643L1752.91 271.343L1665.21 232.445L1656.41 252.894L1749.21 294.053H1647.94V316.369H1749.21L1656.41 357.528L1665.21 377.978L1752.91 339.079L1685.24 407.78L1700.78 423.559L1771.39 351.881L1733.98 445.869L1754.37 454.228L1790.83 362.614V461.423H1812.81V362.614L1849.28 454.228L1869.66 445.869L1832.25 351.881L1902.86 423.559L1918.41 407.78L1850.73 339.079L1938.44 377.978L1947.24 357.528L1854.44 316.369H1955.71V294.053H1854.43L1947.24 252.894L1938.44 232.445L1850.73 271.343L1918.41 202.643L1902.86 186.863L1832.25 258.541L1869.66 164.555L1849.28 156.195L1812.81 247.809V149Z" fill="#C2B4A3"/>
</g>
<path d="M178.073 1048.28L157.72 1009.83C128.41 1025.34 104.598 1034.77 86.5388 1038.01C107.584 1023.63 126.699 998.871 144.103 963.517L105.071 944.256C93.2018 968.323 82.0968 983.761 72.0477 993.592C77.7641 967.194 70.4821 929.984 39.2426 871L0.793895 891.353C16.3044 920.663 25.7346 944.475 28.975 962.498C14.5932 941.453 -10.1654 922.374 -45.4829 904.934L-64.7436 943.965C-40.6768 955.835 -25.2391 966.94 -15.4085 976.989C-41.8055 971.272 -79.0162 978.554 -138 1009.76L-117.647 1048.21C-88.3735 1032.7 -64.598 1023.3 -46.5388 1020.03C-67.62 1034.59 -86.6987 1059.31 -104.03 1094.48L-64.9985 1113.74C-53.2017 1089.79 -42.0604 1074.31 -31.9749 1064.41C-37.6912 1090.81 -30.4093 1128.02 0.830285 1187L39.279 1166.65C23.7684 1137.37 14.3747 1113.6 11.0978 1095.54C25.6617 1116.62 50.3839 1135.7 85.5557 1153.03L104.816 1114C80.8589 1102.2 65.3847 1091.1 55.4813 1081.01C60.8335 1082.18 66.5863 1082.8 72.9216 1082.8C97.8258 1082.8 131.068 1073.11 178.109 1048.21L178.073 1048.28Z" fill="#C2B4A3"/>
</g>
<defs>
<clipPath id="clip0_1164_2149">
<rect width="1870" height="1310" fill="white"/>
</clipPath>
<clipPath id="clip1_1164_2149">
<rect width="1920" height="1310" fill="white" transform="translate(-50)"/>
</clipPath>
</defs>
</svg>
