<svg width="56" height="532" viewBox="0 0 56 532" fill="none" xmlns="http://www.w3.org/2000/svg">
<path d="M56 515.426L14.64 515.426L14.64 531.826L-3.82868e-06 531.826L-6.08769e-06 480.146L14.64 480.146L14.64 496.546L56 496.546L56 515.426ZM20.8 457.963L20.8 433.003L34.4 433.003L34.4 457.963L20.8 457.963ZM41.76 456.683L41.76 428.683L56 428.683L56 475.243L-6.30204e-06 475.243L-8.29178e-06 429.723L14.24 429.723L14.24 456.683L41.76 456.683ZM56 421.415L-8.65494e-06 421.415L-9.86138e-06 393.815C-1.01341e-05 387.575 1.14666 382.081 3.43999 377.335C5.67999 372.588 8.87999 368.881 13.04 366.215C17.2 363.548 22.16 362.215 27.92 362.215C33.7333 362.215 38.7467 363.548 42.96 366.215C47.12 368.881 50.3467 372.588 52.64 377.335C54.88 382.081 56 387.575 56 393.815L56 421.415ZM41.28 402.535L41.28 394.615C41.28 391.948 40.7733 389.628 39.76 387.655C38.7467 385.628 37.2533 384.055 35.28 382.935C33.2533 381.815 30.8 381.255 27.92 381.255C25.0933 381.255 22.6933 381.815 20.72 382.935C18.7467 384.055 17.2533 385.628 16.24 387.655C15.2267 389.628 14.72 391.948 14.72 394.615L14.72 402.535L41.28 402.535ZM56 355.321L-1.1544e-05 355.321L-1.28518e-05 325.401C-1.31899e-05 317.668 1.38665 311.961 4.15999 308.281C6.87999 304.601 10.3733 302.761 14.64 302.761C17.4667 302.761 20 303.561 22.24 305.161C24.4267 306.708 26.16 308.974 27.44 311.961C28.72 314.948 29.36 318.628 29.36 323.001L25.04 321.401C25.04 317.028 25.6533 313.268 26.88 310.121C28.1067 306.921 29.8933 304.468 32.24 302.761C34.5333 301.001 37.3067 300.121 40.56 300.121C45.4133 300.121 49.2 302.148 51.92 306.201C54.64 310.201 56 316.068 56 323.801L56 355.321ZM42.8 336.761L42.8 325.401C42.8 323.321 42.4267 321.774 41.68 320.761C40.9333 319.694 39.84 319.161 38.4 319.161C36.96 319.161 35.8667 319.694 35.12 320.761C34.3733 321.774 34 323.321 34 325.401L34 338.041L21.52 338.041L21.52 327.961C21.52 325.828 21.1733 324.281 20.48 323.321C19.7333 322.308 18.6933 321.801 17.36 321.801C15.9733 321.801 14.9333 322.308 14.24 323.321C13.5467 324.281 13.2 325.828 13.2 327.961L13.2 336.761L42.8 336.761ZM56 299.526L-1.50529e-05 275.046L-1.58642e-05 256.486L56 232.006L56 251.526L8.95999 269.606L8.95999 262.246L56 280.326L56 299.526ZM46.24 284.966L32.64 280.166L32.64 254.406L46.24 249.606L46.24 284.966ZM56 228.993L-1.7066e-05 228.993L-1.82444e-05 202.033C-1.84729e-05 196.806 0.853315 192.299 2.55998 188.513C4.26665 184.673 6.71998 181.713 9.91998 179.633C13.0666 177.553 16.8 176.513 21.12 176.513C25.44 176.513 29.1733 177.553 32.32 179.633C35.4133 181.713 37.7867 184.673 39.44 188.513C41.0933 192.299 41.92 196.806 41.92 202.033L41.92 218.513L34.16 210.113L56 210.113L56 228.993ZM56 195.473L35.6 209.233L35.6 189.233L56 175.313L56 195.473ZM36.24 210.113L27.68 218.513L27.68 203.233C27.68 200.619 27.0933 198.699 25.92 197.473C24.7466 196.193 23.1466 195.553 21.12 195.553C19.0933 195.553 17.4933 196.193 16.32 197.473C15.1467 198.699 14.56 200.619 14.56 203.233L14.56 218.513L5.99999 210.113L36.24 210.113ZM56 169.383L-1.96716e-05 169.383L-2.09794e-05 139.463C-2.13175e-05 131.73 1.38665 126.023 4.15998 122.343C6.87998 118.663 10.3733 116.823 14.64 116.823C17.4666 116.823 20 117.623 22.24 119.223C24.4266 120.77 26.16 123.037 27.44 126.023C28.72 129.01 29.36 132.69 29.36 137.063L25.04 135.463C25.04 131.09 25.6533 127.33 26.88 124.183C28.1066 120.983 29.8933 118.53 32.24 116.823C34.5333 115.063 37.3066 114.183 40.56 114.183C45.4133 114.183 49.2 116.21 51.92 120.263C54.64 124.263 56 130.13 56 137.863L56 169.383ZM42.8 150.823L42.8 139.463C42.8 137.383 42.4266 135.837 41.68 134.823C40.9333 133.757 39.84 133.223 38.4 133.223C36.96 133.223 35.8666 133.757 35.12 134.823C34.3733 135.837 34 137.383 34 139.463L34 152.103L21.52 152.103L21.52 142.023C21.52 139.89 21.1733 138.343 20.48 137.383C19.7333 136.37 18.6933 135.863 17.36 135.863C15.9733 135.863 14.9333 136.37 14.24 137.383C13.5466 138.343 13.2 139.89 13.2 142.023L13.2 150.823L42.8 150.823ZM20.8 90.2284L20.8 65.2684L34.4 65.2684L34.4 90.2284L20.8 90.2284ZM41.76 88.9484L41.76 60.9484L56 60.9484L56 107.508L-2.23762e-05 107.508L-2.4366e-05 61.9884L14.24 61.9884L14.24 88.9484L41.76 88.9484ZM56 53.6802L-2.47291e-05 53.6802L-2.59076e-05 26.7202C-2.6136e-05 21.4936 0.853307 16.9869 2.55997 13.2002C4.26664 9.36023 6.71997 6.40023 9.91997 4.32023C13.0666 2.24023 16.8 1.20023 21.12 1.20023C25.44 1.20023 29.1733 2.24023 32.32 4.32023C35.4133 6.40023 37.7866 9.36023 39.44 13.2002C41.0933 16.9869 41.92 21.4936 41.92 26.7202L41.92 43.2002L34.16 34.8002L56 34.8002L56 53.6802ZM56 20.1602L35.6 33.9202L35.6 13.9202L56 0.000227992L56 20.1602ZM36.24 34.8002L27.68 43.2002L27.68 27.9202C27.68 25.3069 27.0933 23.3869 25.92 22.1602C24.7466 20.8802 23.1466 20.2402 21.12 20.2402C19.0933 20.2402 17.4933 20.8802 16.32 22.1602C15.1466 23.3869 14.56 25.3069 14.56 27.9202L14.56 43.2002L5.99998 34.8002L36.24 34.8002Z" fill="black"/>
</svg>
