<svg width="580" height="325" viewBox="0 0 580 325" fill="none" xmlns="http://www.w3.org/2000/svg">
<g clip-path="url(#clip0_1104_4843)">
<path d="M122.062 323.763H33.4525C33.4525 323.763 31.6564 297.388 42.2833 297.089C52.9101 296.789 51.7127 308.777 65.0344 292.293C78.3562 275.809 94.5208 276.709 96.6163 286.449C98.7118 296.19 92.5753 303.982 103.801 301.584C115.027 299.187 131.192 305.48 122.062 323.763Z" fill="#E6E6E6"/>
<path d="M76.2603 323.769L75.9609 323.757C76.6586 306.393 80.2906 295.237 83.2155 288.934C86.3906 282.092 89.4503 279.322 89.4812 279.295L89.6803 279.519C89.6501 279.546 86.6263 282.288 83.4764 289.084C80.5679 295.359 76.9554 306.47 76.2603 323.769Z" fill="white"/>
<path d="M108.33 323.804L108.043 323.72C110.271 316.361 114.288 309.67 119.734 304.247L119.935 304.469C114.53 309.855 110.543 316.498 108.33 323.804Z" fill="white"/>
<path d="M47.4079 323.783L47.111 323.742C48.0772 317.232 47.055 310.582 44.1786 304.663C42.9995 302.181 41.4385 299.9 39.5527 297.902L39.7601 297.686C41.6714 299.707 43.2538 302.017 44.4496 304.53C47.3519 310.503 48.3831 317.214 47.4079 323.783Z" fill="white"/>
<path d="M134.088 324.163H23.8956L23.8704 323.79C23.8074 322.86 22.4014 300.931 29.4984 293.107C30.2025 292.28 31.0716 291.61 32.0499 291.14C33.0282 290.67 34.094 290.411 35.1786 290.378C39.8044 290.246 42.7117 291.981 45.0568 293.373C49.4765 295.998 52.3957 297.732 63.0119 284.596C74.5117 270.366 86.9202 267.304 94.0531 269.007C98.6619 270.107 101.838 273.216 102.768 277.537C103.65 281.629 103.368 285.473 103.142 288.563C102.901 291.869 102.711 294.479 104.067 295.663C105.201 296.65 107.458 296.74 111.176 295.945C118.739 294.33 129.294 295.712 134.591 302.565C137.441 306.252 139.687 312.952 134.199 323.942L134.088 324.163ZM24.6475 323.361H133.592C137.681 315.055 137.809 308.037 133.958 303.056C129.098 296.77 118.903 295.115 111.343 296.73C107.303 297.593 104.896 297.45 103.541 296.268C101.882 294.822 102.086 292.034 102.343 288.507C102.565 285.469 102.84 281.688 101.984 277.708C101.122 273.701 98.1634 270.814 93.8665 269.789C86.9612 268.14 74.8967 271.163 63.6339 285.102C52.5836 298.777 49.2541 296.8 44.6477 294.062C42.2737 292.652 39.5788 291.054 35.2006 291.179C34.2242 291.21 33.2651 291.446 32.385 291.87C31.505 292.295 30.7235 292.9 30.0908 293.645C23.7141 300.678 24.4918 320.397 24.6481 323.361H24.6475Z" fill="#2F2E41"/>
<path d="M494.135 324.609H385.6L385.579 324L380.396 175.61H499.337L494.135 324.609ZM386.817 323.347H492.917L498.033 176.872H381.701L386.817 323.347Z" fill="#3F3D56"/>
<path d="M411.49 203.104H403.234V305.382H411.49V203.104Z" fill="#3F3D56"/>
<path d="M443.994 203.104H435.738V305.382H443.994V203.104Z" fill="#3F3D56"/>
<path d="M476.499 203.104H468.244V305.382H476.499V203.104Z" fill="#3F3D56"/>
<path d="M568.306 219.185L567.773 218.848L432.959 133.553L444.653 115.026L445.186 115.363L580 200.659L568.306 219.185ZM434.698 133.16L567.914 217.444L578.261 201.052L445.046 116.767L434.698 133.16Z" fill="#3F3D56"/>
<path d="M535.756 126.678C531.838 124.195 527.29 122.89 522.652 122.917C518.015 122.944 513.483 124.303 509.593 126.832C505.704 129.36 502.621 132.953 500.71 137.184C498.799 141.414 498.14 146.105 498.812 150.699L505.241 154.766C503.625 151.01 503.253 146.836 504.179 142.853C505.104 138.871 507.279 135.289 510.385 132.634C513.491 129.978 517.364 128.388 521.438 128.096C525.511 127.803 529.571 128.824 533.024 131.009C536.476 133.194 539.139 136.428 540.622 140.238C542.106 144.048 542.332 148.233 541.268 152.181C540.204 156.128 537.905 159.631 534.709 162.177C531.513 164.722 527.586 166.176 523.505 166.326L529.933 170.393C534.366 169.03 538.316 166.423 541.314 162.88C544.311 159.338 546.231 155.008 546.845 150.406C547.458 145.804 546.74 141.122 544.776 136.916C542.811 132.71 539.683 129.157 535.762 126.678H535.756Z" fill="#3F3D56"/>
<path d="M572.876 323.738H0V325H572.876V323.738Z" fill="#3F3D56"/>
<path d="M250.223 315.127H241.044L236.676 279.684H250.226L250.223 315.127Z" fill="#FEB8B8"/>
<path d="M223.344 323.659H252.19V312.501H234.334C231.419 312.501 228.624 313.661 226.563 315.724C224.502 317.788 223.344 320.587 223.344 323.505V323.659Z" fill="#2F2E41"/>
<path d="M246.998 260.205L253.329 266.859L281.974 245.578L272.631 235.759L246.998 260.205Z" fill="#FEB8B8"/>
<path d="M259.85 269.907L247.53 256.964L239.461 264.663L259.365 285.572L259.477 285.466C260.521 284.469 261.36 283.275 261.944 281.954C262.529 280.632 262.847 279.209 262.882 277.764C262.917 276.319 262.667 274.882 262.147 273.533C261.626 272.185 260.846 270.953 259.85 269.907Z" fill="#2F2E41"/>
<path d="M183.111 163.101C182.53 162.166 182.161 161.114 182.03 160.02C181.899 158.926 182.009 157.817 182.352 156.771C182.696 155.724 183.264 154.765 184.018 153.962C184.771 153.159 185.691 152.531 186.713 152.123L222.748 60.1746L236.795 68.5947L196.764 156.803C197.336 158.568 197.242 160.481 196.499 162.181C195.756 163.881 194.415 165.248 192.732 166.025C191.049 166.801 189.14 166.932 187.367 166.394C185.594 165.855 184.079 164.683 183.111 163.101Z" fill="#FEB8B8"/>
<path d="M319.891 169.692C318.793 169.613 317.726 169.294 316.764 168.758C315.803 168.222 314.97 167.481 314.326 166.587C313.681 165.694 313.24 164.67 313.034 163.587C312.827 162.505 312.86 161.39 313.131 160.322L259.969 77.1177L275.025 70.6819L322.819 154.93C324.584 155.501 326.078 156.701 327.018 158.302C327.957 159.904 328.277 161.795 327.915 163.616C327.554 165.438 326.537 167.063 325.058 168.183C323.579 169.304 321.74 169.842 319.891 169.694V169.692Z" fill="#FEB8B8"/>
<path d="M223.104 153.894L232.513 293.913L255.001 291.927L259.631 188.624L272.197 232.99L299.315 234.976L288.581 147.272L223.104 153.894Z" fill="#2F2E41"/>
<path d="M276.166 226.369L272.196 232.991L244.42 252.193L264.262 262.788C264.262 262.788 302.623 241.599 299.316 234.977L276.166 226.369Z" fill="#2F2E41"/>
<path d="M203.412 97.2443L211.24 75.1606C212.982 70.2469 215.679 65.7278 219.177 61.8648C222.675 58.0019 226.903 54.8717 231.617 52.6555C242.212 48.7476 253.735 48.116 264.693 50.8427L267.542 51.5507C275.138 53.394 282.255 56.8354 288.42 61.646C293.244 65.4533 297.584 70.2738 297.97 75.4591C297.972 75.4701 297.975 75.4809 297.979 75.4912C299.316 81.3541 299.977 111.814 299.977 111.814H288.191L290.056 152.869L289.905 152.571C289.905 152.571 221.931 165.45 221.931 158.828V116.448L220.538 101.103L203.412 97.2443Z" fill="#CCCCCC"/>
<path d="M266.858 45.1022C277.262 45.1022 285.695 36.6588 285.695 26.2433C285.695 15.8279 277.262 7.38452 266.858 7.38452C256.455 7.38452 248.021 15.8279 248.021 26.2433C248.021 36.6588 256.455 45.1022 266.858 45.1022Z" fill="#FEB8B8"/>
<path d="M269.679 17.7859L284.306 18.3727C286.146 18.367 288.155 18.302 289.557 17.1108C291.668 15.3132 291.314 11.9211 290.184 9.38718C287.033 2.33176 280.004 -0.195867 272.285 0.0117198C264.567 0.219306 256.479 2.83842 252.323 9.34995C248.167 15.8615 247.043 24.0842 248.609 31.6507C250.419 27.8032 253.205 24.4983 256.689 22.0659C260.174 19.6334 264.234 18.1585 268.466 17.7884L269.679 17.7859Z" fill="#2F2E41"/>
<path d="M356.534 202.251L303.594 165.105C303.102 164.758 302.767 164.231 302.663 163.638C302.559 163.045 302.694 162.434 303.038 161.941L344.59 102.584C344.936 102.092 345.463 101.757 346.055 101.653C346.648 101.548 347.257 101.683 347.75 102.028L400.69 139.174C401.182 139.521 401.517 140.048 401.621 140.642C401.725 141.235 401.59 141.845 401.246 142.339L359.696 201.693C359.35 202.186 358.823 202.522 358.23 202.627C357.637 202.731 357.027 202.596 356.534 202.251Z" fill="#6C63FF"/>
<path d="M368.439 161.945L337.374 140.148C337.015 139.896 336.709 139.575 336.474 139.205C336.238 138.834 336.078 138.421 336.002 137.989C335.926 137.556 335.936 137.113 336.031 136.684C336.126 136.255 336.304 135.849 336.556 135.49C336.808 135.13 337.128 134.824 337.498 134.588C337.868 134.352 338.281 134.191 338.713 134.115C339.145 134.039 339.588 134.049 340.016 134.144C340.444 134.24 340.85 134.418 341.209 134.67L372.273 156.467C372.999 156.976 373.493 157.753 373.646 158.627C373.8 159.5 373.6 160.399 373.092 161.126C372.583 161.852 371.807 162.346 370.935 162.5C370.062 162.654 369.164 162.454 368.439 161.945Z" fill="white"/>
<path d="M361.31 172.129L330.246 150.332C329.886 150.08 329.58 149.76 329.344 149.389C329.108 149.019 328.947 148.605 328.871 148.173C328.795 147.74 328.805 147.296 328.9 146.867C328.995 146.438 329.173 146.032 329.425 145.672C329.677 145.312 329.997 145.006 330.368 144.77C330.738 144.534 331.151 144.374 331.584 144.298C332.016 144.222 332.459 144.232 332.887 144.327C333.316 144.423 333.721 144.602 334.081 144.855L365.145 166.652C365.87 167.161 366.363 167.938 366.516 168.811C366.669 169.684 366.469 170.582 365.961 171.308C365.453 172.034 364.677 172.529 363.805 172.682C362.933 172.836 362.036 172.637 361.31 172.129Z" fill="white"/>
<path d="M354.105 182.423L323.04 160.626C322.681 160.374 322.375 160.054 322.14 159.683C321.904 159.312 321.744 158.899 321.668 158.467C321.592 158.034 321.602 157.591 321.697 157.162C321.792 156.733 321.97 156.327 322.222 155.968C322.474 155.608 322.794 155.302 323.164 155.066C323.534 154.83 323.947 154.669 324.379 154.593C324.811 154.517 325.254 154.527 325.682 154.622C326.11 154.718 326.516 154.896 326.875 155.148L357.939 176.945C358.665 177.454 359.159 178.231 359.312 179.105C359.466 179.978 359.266 180.877 358.758 181.604C358.249 182.33 357.473 182.824 356.601 182.978C355.728 183.132 354.83 182.932 354.105 182.423Z" fill="white"/>
<path d="M368.352 141.798L356.32 133.356C355.961 133.104 355.654 132.783 355.418 132.413C355.182 132.042 355.022 131.629 354.945 131.196C354.869 130.763 354.879 130.32 354.974 129.891C355.069 129.462 355.248 129.056 355.5 128.696C355.751 128.336 356.072 128.029 356.442 127.793C356.812 127.557 357.226 127.397 357.658 127.321C358.09 127.245 358.533 127.255 358.962 127.351C359.39 127.446 359.796 127.626 360.155 127.878L372.187 136.321C372.912 136.83 373.406 137.607 373.56 138.48C373.713 139.354 373.514 140.253 373.005 140.979C372.497 141.705 371.721 142.2 370.848 142.353C369.976 142.507 369.078 142.307 368.352 141.798Z" fill="white"/>
</g>
<defs>
<clipPath id="clip0_1104_4843">
<rect width="580" height="325" fill="white"/>
</clipPath>
</defs>
</svg>
