<svg width="1920" height="980" viewBox="0 0 1920 980" fill="none" xmlns="http://www.w3.org/2000/svg">
<g clip-path="url(#clip0_1086_2268)">
<rect width="1920" height="980" fill="white"/>
<rect width="1938" height="1018" fill="#F5F5F5"/>
<rect width="100" height="100" fill="white" fill-opacity="0.9"/>
<rect x="102" width="100" height="100" fill="white" fill-opacity="0.9"/>
<rect x="204" width="100" height="100" fill="white" fill-opacity="0.9"/>
<rect x="306" width="100" height="100" fill="white" fill-opacity="0.9"/>
<rect y="102" width="100" height="100" fill="white" fill-opacity="0.9"/>
<rect x="102" y="102" width="100" height="100" fill="white" fill-opacity="0.9"/>
<rect x="204" y="102" width="100" height="100" fill="white" fill-opacity="0.9"/>
<rect x="306" y="102" width="100" height="100" fill="white" fill-opacity="0.9"/>
<rect x="816" width="100" height="100" fill="white" fill-opacity="0.9"/>
<rect x="918" width="100" height="100" fill="white" fill-opacity="0.9"/>
<rect x="1020" width="100" height="100" fill="white" fill-opacity="0.9"/>
<rect x="1122" width="100" height="100" fill="white" fill-opacity="0.9"/>
<rect x="816" y="102" width="100" height="100" fill="white" fill-opacity="0.9"/>
<rect x="918" y="102" width="100" height="100" fill="white" fill-opacity="0.9"/>
<rect x="1020" y="102" width="100" height="100" fill="white" fill-opacity="0.9"/>
<rect x="1122" y="102" width="100" height="100" fill="white" fill-opacity="0.9"/>
<rect x="408" width="100" height="100" fill="white" fill-opacity="0.9"/>
<rect x="510" width="100" height="100" fill="white" fill-opacity="0.9"/>
<rect x="612" width="100" height="100" fill="white" fill-opacity="0.9"/>
<rect x="714" width="100" height="100" fill="white" fill-opacity="0.9"/>
<rect x="408" y="102" width="100" height="100" fill="white" fill-opacity="0.9"/>
<rect x="510" y="102" width="100" height="100" fill="white" fill-opacity="0.9"/>
<rect x="612" y="102" width="100" height="100" fill="white" fill-opacity="0.9"/>
<rect x="714" y="102" width="100" height="100" fill="white" fill-opacity="0.9"/>
<rect y="204" width="100" height="100" fill="white" fill-opacity="0.9"/>
<rect x="102" y="204" width="100" height="100" fill="white" fill-opacity="0.9"/>
<rect x="204" y="204" width="100" height="100" fill="white" fill-opacity="0.9"/>
<rect x="306" y="204" width="100" height="100" fill="white" fill-opacity="0.9"/>
<rect y="306" width="100" height="100" fill="white" fill-opacity="0.9"/>
<rect x="102" y="306" width="100" height="100" fill="white" fill-opacity="0.9"/>
<rect x="204" y="306" width="100" height="100" fill="white" fill-opacity="0.9"/>
<rect x="306" y="306" width="100" height="100" fill="white" fill-opacity="0.9"/>
<rect x="816" y="204" width="100" height="100" fill="white" fill-opacity="0.9"/>
<rect x="918" y="204" width="100" height="100" fill="white" fill-opacity="0.9"/>
<rect x="1020" y="204" width="100" height="100" fill="white" fill-opacity="0.9"/>
<rect x="1122" y="204" width="100" height="100" fill="white" fill-opacity="0.9"/>
<rect x="816" y="306" width="100" height="100" fill="white" fill-opacity="0.9"/>
<rect x="918" y="306" width="100" height="100" fill="white" fill-opacity="0.9"/>
<rect x="1020" y="306" width="100" height="100" fill="white" fill-opacity="0.9"/>
<rect x="1122" y="306" width="100" height="100" fill="white" fill-opacity="0.9"/>
<rect x="408" y="204" width="100" height="100" fill="white" fill-opacity="0.9"/>
<rect x="510" y="204" width="100" height="100" fill="white" fill-opacity="0.9"/>
<rect x="612" y="204" width="100" height="100" fill="white" fill-opacity="0.9"/>
<rect x="714" y="204" width="100" height="100" fill="white" fill-opacity="0.9"/>
<rect x="408" y="306" width="100" height="100" fill="white" fill-opacity="0.9"/>
<rect x="510" y="306" width="100" height="100" fill="white" fill-opacity="0.9"/>
<rect x="612" y="306" width="100" height="100" fill="white" fill-opacity="0.9"/>
<rect x="714" y="306" width="100" height="100" fill="white" fill-opacity="0.9"/>
<rect x="1" y="408" width="100" height="100" fill="white" fill-opacity="0.9"/>
<rect x="103" y="408" width="100" height="100" fill="white" fill-opacity="0.9"/>
<rect x="205" y="408" width="100" height="100" fill="white" fill-opacity="0.9"/>
<rect x="307" y="408" width="100" height="100" fill="white" fill-opacity="0.9"/>
<rect x="1" y="510" width="100" height="100" fill="white" fill-opacity="0.9"/>
<rect x="103" y="510" width="100" height="100" fill="white" fill-opacity="0.9"/>
<rect x="205" y="510" width="100" height="100" fill="white" fill-opacity="0.9"/>
<rect x="307" y="510" width="100" height="100" fill="white" fill-opacity="0.9"/>
<rect x="817" y="408" width="100" height="100" fill="white" fill-opacity="0.9"/>
<rect x="919" y="408" width="100" height="100" fill="white" fill-opacity="0.9"/>
<rect x="1021" y="408" width="100" height="100" fill="white" fill-opacity="0.9"/>
<rect x="1123" y="408" width="100" height="100" fill="white" fill-opacity="0.9"/>
<rect x="817" y="510" width="100" height="100" fill="white" fill-opacity="0.9"/>
<rect x="919" y="510" width="100" height="100" fill="white" fill-opacity="0.9"/>
<rect x="1021" y="510" width="100" height="100" fill="white" fill-opacity="0.9"/>
<rect x="1123" y="510" width="100" height="100" fill="white" fill-opacity="0.9"/>
<rect x="409" y="408" width="100" height="100" fill="white" fill-opacity="0.9"/>
<rect x="511" y="408" width="100" height="100" fill="white" fill-opacity="0.9"/>
<rect x="613" y="408" width="100" height="100" fill="white" fill-opacity="0.9"/>
<rect x="715" y="408" width="100" height="100" fill="white" fill-opacity="0.9"/>
<rect x="409" y="510" width="100" height="100" fill="white" fill-opacity="0.9"/>
<rect x="511" y="510" width="100" height="100" fill="white" fill-opacity="0.9"/>
<rect x="613" y="510" width="100" height="100" fill="white" fill-opacity="0.9"/>
<rect x="715" y="510" width="100" height="100" fill="white" fill-opacity="0.9"/>
<rect x="1" y="612" width="100" height="100" fill="white" fill-opacity="0.9"/>
<rect x="103" y="612" width="100" height="100" fill="white" fill-opacity="0.9"/>
<rect x="205" y="612" width="100" height="100" fill="white" fill-opacity="0.9"/>
<rect x="307" y="612" width="100" height="100" fill="white" fill-opacity="0.9"/>
<rect x="1" y="714" width="100" height="100" fill="white" fill-opacity="0.9"/>
<rect x="103" y="714" width="100" height="100" fill="white" fill-opacity="0.9"/>
<rect x="205" y="714" width="100" height="100" fill="white" fill-opacity="0.9"/>
<rect x="307" y="714" width="100" height="100" fill="white" fill-opacity="0.9"/>
<rect x="817" y="612" width="100" height="100" fill="white" fill-opacity="0.9"/>
<rect x="919" y="612" width="100" height="100" fill="white" fill-opacity="0.9"/>
<rect x="1021" y="612" width="100" height="100" fill="white" fill-opacity="0.9"/>
<rect x="1123" y="612" width="100" height="100" fill="white" fill-opacity="0.9"/>
<rect x="817" y="714" width="100" height="100" fill="white" fill-opacity="0.9"/>
<rect x="919" y="714" width="100" height="100" fill="white" fill-opacity="0.9"/>
<rect x="1021" y="714" width="100" height="100" fill="white" fill-opacity="0.9"/>
<rect x="1123" y="714" width="100" height="100" fill="white" fill-opacity="0.9"/>
<rect x="409" y="612" width="100" height="100" fill="white" fill-opacity="0.9"/>
<rect x="511" y="612" width="100" height="100" fill="white" fill-opacity="0.9"/>
<rect x="613" y="612" width="100" height="100" fill="white" fill-opacity="0.9"/>
<rect x="715" y="612" width="100" height="100" fill="white" fill-opacity="0.9"/>
<rect x="409" y="714" width="100" height="100" fill="white" fill-opacity="0.9"/>
<rect x="511" y="714" width="100" height="100" fill="white" fill-opacity="0.9"/>
<rect x="613" y="714" width="100" height="100" fill="white" fill-opacity="0.9"/>
<rect x="715" y="714" width="100" height="100" fill="white" fill-opacity="0.9"/>
<rect x="1" y="918" width="100" height="100" fill="white" fill-opacity="0.9"/>
<rect x="103" y="918" width="100" height="100" fill="white" fill-opacity="0.9"/>
<rect x="205" y="918" width="100" height="100" fill="white" fill-opacity="0.9"/>
<rect x="307" y="918" width="100" height="100" fill="white" fill-opacity="0.9"/>
<rect x="817" y="918" width="100" height="100" fill="white" fill-opacity="0.9"/>
<rect x="919" y="918" width="100" height="100" fill="white" fill-opacity="0.9"/>
<rect x="1021" y="918" width="100" height="100" fill="white" fill-opacity="0.9"/>
<rect x="1123" y="918" width="100" height="100" fill="white" fill-opacity="0.9"/>
<rect x="409" y="918" width="100" height="100" fill="white" fill-opacity="0.9"/>
<rect x="511" y="918" width="100" height="100" fill="white" fill-opacity="0.9"/>
<rect x="613" y="918" width="100" height="100" fill="white" fill-opacity="0.9"/>
<rect x="715" y="918" width="100" height="100" fill="white" fill-opacity="0.9"/>
<rect x="1" y="816" width="100" height="100" fill="white" fill-opacity="0.9"/>
<rect x="103" y="816" width="100" height="100" fill="white" fill-opacity="0.9"/>
<rect x="205" y="816" width="100" height="100" fill="white" fill-opacity="0.9"/>
<rect x="307" y="816" width="100" height="100" fill="white" fill-opacity="0.9"/>
<rect x="817" y="816" width="100" height="100" fill="white" fill-opacity="0.9"/>
<rect x="919" y="816" width="100" height="100" fill="white" fill-opacity="0.9"/>
<rect x="1021" y="816" width="100" height="100" fill="white" fill-opacity="0.9"/>
<rect x="1123" y="816" width="100" height="100" fill="white" fill-opacity="0.9"/>
<rect x="1531" width="100" height="100" fill="white" fill-opacity="0.9"/>
<rect x="1633" width="100" height="100" fill="white" fill-opacity="0.9"/>
<rect x="1735" width="100" height="100" fill="white" fill-opacity="0.9"/>
<rect x="1531" y="102" width="100" height="100" fill="white" fill-opacity="0.9"/>
<rect x="1633" y="102" width="100" height="100" fill="white" fill-opacity="0.9"/>
<rect x="1735" y="102" width="100" height="100" fill="white" fill-opacity="0.9"/>
<rect x="1531" y="204" width="100" height="100" fill="white" fill-opacity="0.9"/>
<rect x="1633" y="204" width="100" height="100" fill="white" fill-opacity="0.9"/>
<rect x="1735" y="204" width="100" height="100" fill="white" fill-opacity="0.9"/>
<rect x="1531" y="306" width="100" height="100" fill="white" fill-opacity="0.9"/>
<rect x="1633" y="306" width="100" height="100" fill="white" fill-opacity="0.9"/>
<rect x="1735" y="306" width="100" height="100" fill="white" fill-opacity="0.9"/>
<rect x="1532" y="408" width="100" height="100" fill="white" fill-opacity="0.9"/>
<rect x="1634" y="408" width="100" height="100" fill="white" fill-opacity="0.9"/>
<rect x="1736" y="408" width="100" height="100" fill="white" fill-opacity="0.9"/>
<rect x="1532" y="510" width="100" height="100" fill="white" fill-opacity="0.9"/>
<rect x="1634" y="510" width="100" height="100" fill="white" fill-opacity="0.9"/>
<rect x="1736" y="510" width="100" height="100" fill="white" fill-opacity="0.9"/>
<rect x="1532" y="612" width="100" height="100" fill="white" fill-opacity="0.9"/>
<rect x="1634" y="612" width="100" height="100" fill="white" fill-opacity="0.9"/>
<rect x="1736" y="612" width="100" height="100" fill="white" fill-opacity="0.9"/>
<rect x="1532" y="714" width="100" height="100" fill="white" fill-opacity="0.9"/>
<rect x="1634" y="714" width="100" height="100" fill="white" fill-opacity="0.9"/>
<rect x="1736" y="714" width="100" height="100" fill="white" fill-opacity="0.9"/>
<rect x="1532" y="918" width="100" height="100" fill="white" fill-opacity="0.9"/>
<rect x="1634" y="918" width="100" height="100" fill="white" fill-opacity="0.9"/>
<rect x="1736" y="918" width="100" height="100" fill="white" fill-opacity="0.9"/>
<rect x="1532" y="816" width="100" height="100" fill="white" fill-opacity="0.9"/>
<rect x="1634" y="816" width="100" height="100" fill="white" fill-opacity="0.9"/>
<rect x="1736" y="816" width="100" height="100" fill="white" fill-opacity="0.9"/>
<rect x="1838" width="100" height="100" fill="white" fill-opacity="0.9"/>
<rect x="1838" y="102" width="100" height="100" fill="white" fill-opacity="0.9"/>
<rect x="1838" y="204" width="100" height="100" fill="white" fill-opacity="0.9"/>
<rect x="1838" y="306" width="100" height="100" fill="white" fill-opacity="0.9"/>
<rect x="1839" y="408" width="100" height="100" fill="white" fill-opacity="0.9"/>
<rect x="1839" y="510" width="100" height="100" fill="white" fill-opacity="0.9"/>
<rect x="1839" y="612" width="100" height="100" fill="white" fill-opacity="0.9"/>
<rect x="1839" y="714" width="100" height="100" fill="white" fill-opacity="0.9"/>
<rect x="1839" y="918" width="100" height="100" fill="white" fill-opacity="0.9"/>
<rect x="1839" y="816" width="100" height="100" fill="white" fill-opacity="0.9"/>
<rect x="1224" width="100" height="100" fill="white" fill-opacity="0.9"/>
<rect x="1326" width="100" height="100" fill="white" fill-opacity="0.9"/>
<rect x="1428" width="100" height="100" fill="white" fill-opacity="0.9"/>
<rect x="1224" y="102" width="100" height="100" fill="white" fill-opacity="0.9"/>
<rect x="1326" y="102" width="100" height="100" fill="white" fill-opacity="0.9"/>
<rect x="1428" y="102" width="100" height="100" fill="white" fill-opacity="0.9"/>
<rect x="1224" y="204" width="100" height="100" fill="white" fill-opacity="0.9"/>
<rect x="1326" y="204" width="100" height="100" fill="white" fill-opacity="0.9"/>
<rect x="1428" y="204" width="100" height="100" fill="white" fill-opacity="0.9"/>
<rect x="1224" y="306" width="100" height="100" fill="white" fill-opacity="0.9"/>
<rect x="1326" y="306" width="100" height="100" fill="white" fill-opacity="0.9"/>
<rect x="1428" y="306" width="100" height="100" fill="white" fill-opacity="0.9"/>
<rect x="1225" y="408" width="100" height="100" fill="white" fill-opacity="0.9"/>
<rect x="1327" y="408" width="100" height="100" fill="white" fill-opacity="0.9"/>
<rect x="1429" y="408" width="100" height="100" fill="white" fill-opacity="0.9"/>
<rect x="1225" y="510" width="100" height="100" fill="white" fill-opacity="0.9"/>
<rect x="1327" y="510" width="100" height="100" fill="white" fill-opacity="0.9"/>
<rect x="1429" y="510" width="100" height="100" fill="white" fill-opacity="0.9"/>
<rect x="1225" y="612" width="100" height="100" fill="white" fill-opacity="0.9"/>
<rect x="1327" y="612" width="100" height="100" fill="white" fill-opacity="0.9"/>
<rect x="1429" y="612" width="100" height="100" fill="white" fill-opacity="0.9"/>
<rect x="1225" y="714" width="100" height="100" fill="white" fill-opacity="0.9"/>
<rect x="1327" y="714" width="100" height="100" fill="white" fill-opacity="0.9"/>
<rect x="1429" y="714" width="100" height="100" fill="white" fill-opacity="0.9"/>
<rect x="1225" y="918" width="100" height="100" fill="white" fill-opacity="0.9"/>
<rect x="1327" y="918" width="100" height="100" fill="white" fill-opacity="0.9"/>
<rect x="1429" y="918" width="100" height="100" fill="white" fill-opacity="0.9"/>
<rect x="1225" y="816" width="100" height="100" fill="white" fill-opacity="0.9"/>
<rect x="1327" y="816" width="100" height="100" fill="white" fill-opacity="0.9"/>
<rect x="1429" y="816" width="100" height="100" fill="white" fill-opacity="0.9"/>
<rect x="409" y="816" width="100" height="100" fill="white" fill-opacity="0.9"/>
<rect x="511" y="816" width="100" height="100" fill="white" fill-opacity="0.9"/>
<rect x="613" y="816" width="100" height="100" fill="white" fill-opacity="0.9"/>
<rect x="715" y="816" width="100" height="100" fill="white" fill-opacity="0.9"/>
<path d="M20 764.5C156.541 764.5 267.5 860.329 267.5 977.964C267.5 1095.6 156.541 1191.43 20 1191.43C-116.541 1191.43 -227.5 1095.6 -227.5 977.964C-227.5 860.329 -116.541 764.5 20 764.5ZM20 871.836C-47.698 871.836 -102.931 919.39 -102.931 977.964C-102.93 1036.54 -47.6979 1084.09 20 1084.09C87.6979 1084.09 142.93 1036.54 142.931 977.964C142.931 919.39 87.698 871.836 20 871.836Z" fill="black" stroke="black"/>
</g>
<defs>
<clipPath id="clip0_1086_2268">
<rect width="1920" height="980" fill="white"/>
</clipPath>
</defs>
</svg>
